<svg width="176" height="78" viewBox="0 0 176 78" fill="none" xmlns="http://www.w3.org/2000/svg">
<mask id="mask0_0_20663" style="mask-type:alpha" maskUnits="userSpaceOnUse" x="0" y="0" width="176" height="78">
<rect width="176" height="77.0803" rx="32" fill="#D9D9D9"/>
</mask>
<g mask="url(#mask0_0_20663)">
</g>
<g clip-path="url(#clip0_0_20663)">
<path d="M149.517 28.6893C151.333 28.6893 152.805 27.2364 152.805 25.4443C152.805 23.6521 151.333 22.1992 149.517 22.1992C147.702 22.1992 146.229 23.6521 146.229 25.4443C146.229 27.2364 147.702 28.6893 149.517 28.6893Z" fill="#DFDFDF"/>
<path fill-rule="evenodd" clip-rule="evenodd" d="M11.3974 22.3125C5.04649 22.3125 0 27.4928 0 33.7573C0 40.0218 5.04649 45.2021 11.3974 45.2021H17.4744V53.8165H22.795V45.2021H27.0853V53.8165H32.4059V45.2021H38.4828C44.8338 45.2021 49.8803 40.0218 49.8803 33.7573C49.8803 27.4928 44.8338 22.3125 38.4828 22.3125C32.1318 22.3125 27.0853 27.4928 27.0853 33.7573V39.9514H22.795V33.7573C22.795 27.4928 17.7485 22.3125 11.3974 22.3125ZM17.4744 33.7573V39.9514H11.3974C8.0976 39.9514 5.32055 37.2345 5.32055 33.7573C5.32055 30.2801 8.0976 27.5632 11.3974 27.5632C14.6974 27.5632 17.4744 30.2801 17.4744 33.7573ZM38.4828 39.9514H32.4059V33.7573C32.4059 30.2801 35.1829 27.5632 38.4828 27.5632C41.7827 27.5632 44.5597 30.2801 44.5597 33.7573C44.5597 37.2345 41.7827 39.9514 38.4828 39.9514Z" fill="#DFDFDF"/>
<path d="M146.711 30.9043H152.183V53.8163H146.711V30.9043Z" fill="#DFDFDF"/>
<path fill-rule="evenodd" clip-rule="evenodd" d="M58.7324 53.8169V23.2676H70.3408C72.719 23.2676 74.7143 23.7051 76.3265 24.5802C77.9489 25.4554 79.1732 26.6586 79.9994 28.1901C80.8359 29.7116 81.2541 31.4419 81.2541 33.3811C81.2541 35.3401 80.8359 37.0804 79.9994 38.6019C79.163 40.1234 77.9287 41.3217 76.2963 42.1968C74.6639 43.0619 72.6536 43.4945 70.2653 43.4945H64.3402V53.8169H58.7324ZM69.5096 38.945H64.3402V27.8917H69.4794C70.8801 27.8917 72.0237 28.1254 72.9104 28.5928C73.8074 29.0503 74.4674 29.6917 74.8906 30.5171C75.3239 31.3425 75.5406 32.2971 75.5406 33.3811C75.5406 34.465 75.3239 35.4246 74.8906 36.26C74.4674 37.0953 73.8124 37.7516 72.9256 38.229C72.0388 38.7064 70.9001 38.945 69.5096 38.945Z" fill="#DFDFDF"/>
<path fill-rule="evenodd" clip-rule="evenodd" d="M103.122 52.8332C104.563 53.758 106.195 54.2204 108.019 54.2204C109.349 54.2204 110.453 54.0017 111.33 53.5642C112.206 53.1266 112.911 52.5995 113.445 51.983C113.98 51.3565 114.388 50.7647 114.67 50.2079H115.002V53.8178H120.383V30.9058H114.897V34.6946H114.67C114.388 34.1377 113.99 33.546 113.476 32.9195C112.962 32.2831 112.267 31.7411 111.39 31.2936C110.513 30.8361 109.395 30.6074 108.034 30.6074C106.251 30.6074 104.633 31.0599 103.182 31.9648C101.731 32.8598 100.577 34.1874 99.721 35.9476C98.8744 37.6978 98.4512 39.8458 98.4512 42.3915C98.4512 44.9075 98.8694 47.0455 99.7058 48.8057C100.542 50.5659 101.681 51.9084 103.122 52.8332ZM112.508 48.8654C111.692 49.482 110.705 49.7902 109.546 49.7902C108.347 49.7902 107.334 49.472 106.508 48.8356C105.691 48.1892 105.072 47.309 104.648 46.1953C104.235 45.0715 104.029 43.7937 104.029 42.3617C104.029 40.9396 104.235 39.6768 104.648 38.5729C105.062 37.4691 105.676 36.6039 106.493 35.9774C107.309 35.3509 108.327 35.0377 109.546 35.0377C110.725 35.0377 111.717 35.341 112.523 35.9476C113.34 36.5542 113.954 37.4044 114.368 38.4984C114.791 39.5922 115.002 40.88 115.002 42.3617C115.002 43.8434 114.791 45.1411 114.368 46.255C113.944 47.3687 113.325 48.2389 112.508 48.8654Z" fill="#DFDFDF"/>
<path d="M128.966 30.9043L133.652 39.362L138.413 30.9043H144.202L137.204 42.3603L144.324 53.8163H138.564L133.652 45.5673L128.785 53.8163H122.98L130.054 42.3603L123.162 30.9043H128.966Z" fill="#DFDFDF"/>
<path d="M174.436 36.9619L169.447 37.4989C169.306 37.0017 169.06 36.5342 168.707 36.0967C168.364 35.6591 167.901 35.3062 167.316 35.0377C166.733 34.7692 166.017 34.6349 165.17 34.6349C164.032 34.6349 163.075 34.8785 162.299 35.3658C161.533 35.8531 161.155 36.4845 161.164 37.2603C161.155 37.9265 161.401 38.4685 161.905 38.8861C162.419 39.3038 163.266 39.6469 164.445 39.9154L168.405 40.7507C170.602 41.2181 172.233 41.959 173.302 42.9734C174.381 43.9876 174.925 45.3152 174.934 46.956C174.925 48.398 174.496 49.6709 173.65 50.7748C172.813 51.8686 171.65 52.7238 170.158 53.3404C168.667 53.957 166.953 54.2652 165.019 54.2652C162.177 54.2652 159.89 53.6785 158.156 52.5051C156.423 51.3216 155.39 49.6758 155.059 47.5677L160.394 47.0605C160.635 48.0948 161.15 48.8753 161.936 49.4024C162.721 49.9294 163.745 50.1929 165.004 50.1929C166.304 50.1929 167.347 49.9294 168.133 49.4024C168.929 48.8753 169.327 48.224 169.327 47.4484C169.327 46.792 169.07 46.2501 168.556 45.8224C168.053 45.3947 167.266 45.0666 166.198 44.8378L162.238 44.0175C160.011 43.56 158.363 42.7894 157.295 41.7055C156.227 40.6115 155.698 39.2292 155.708 37.5586C155.698 36.1465 156.086 34.9233 156.871 33.8891C157.667 32.8449 158.771 32.0394 160.183 31.4726C161.603 30.8958 163.24 30.6074 165.095 30.6074C167.816 30.6074 169.956 31.1792 171.519 32.3228C173.09 33.4664 174.063 35.0128 174.436 36.9619Z" fill="#DFDFDF"/>
<path d="M84.666 30.9043V53.8163H90.1377V40.3466C90.1377 39.372 90.3595 38.5167 90.8029 37.7808C91.2563 37.0351 91.866 36.4533 92.6318 36.0357C93.3976 35.618 94.2541 35.4092 95.2014 35.4092C95.6448 35.4092 96.0428 35.4539 96.3955 35.5434L96.4529 35.5583L96.4818 35.5659L99.0497 31.4076C98.648 31.1509 98.1865 30.9483 97.6651 30.7999C97.1412 30.6508 96.5669 30.5762 95.9419 30.5762C94.6018 30.5762 93.4177 30.9391 92.39 31.6651C91.3621 32.3811 90.6366 33.4004 90.2134 34.723H89.9716V30.9043H84.666Z" fill="#DFDFDF"/>
</g>
<defs>
<clipPath id="clip0_0_20663">
<rect width="176" height="32.0654" fill="white" transform="translate(0 22.1992)"/>
</clipPath>
</defs>
</svg>
