<svg width="159" height="53" viewBox="0 0 159 53" fill="none" xmlns="http://www.w3.org/2000/svg">
<mask id="mask0_0_20700" style="mask-type:luminance" maskUnits="userSpaceOnUse" x="0" y="0" width="40" height="41">
<path d="M0 0.511719H39.506V40.7283H0V0.511719Z" fill="white"/>
</mask>
<g mask="url(#mask0_0_20700)">
<path d="M39.1712 18.8318H20.6309V24.3001H33.7807C33.1291 31.954 26.7128 35.2395 20.6532 35.2395C20.414 35.2404 20.1748 35.2357 19.9356 35.225C19.6968 35.214 19.458 35.1973 19.2201 35.1752C18.9818 35.1526 18.7443 35.124 18.5077 35.0899C18.2711 35.0554 18.0353 35.0153 17.8004 34.9697C17.5659 34.9236 17.3323 34.8721 17.1004 34.8145C16.868 34.7574 16.6374 34.6943 16.4085 34.6252C16.1796 34.5566 15.9524 34.4824 15.7269 34.4023C15.5019 34.3221 15.2785 34.2369 15.0578 34.1456C14.8366 34.0548 14.618 33.9585 14.4019 33.8566C14.1859 33.7547 13.972 33.6477 13.7615 33.5352C13.5506 33.423 13.3427 33.3054 13.1378 33.183C12.9324 33.0603 12.731 32.9328 12.5321 32.8002C12.3336 32.6676 12.1385 32.5304 11.9469 32.388C11.7549 32.246 11.5671 32.0989 11.3824 31.9476C11.198 31.7963 11.0176 31.6402 10.841 31.4799C10.6644 31.3196 10.492 31.1547 10.3236 30.9858C10.1551 30.817 9.99092 30.6439 9.83146 30.467C9.67156 30.2901 9.51639 30.1094 9.36549 29.9248C9.21503 29.7402 9.06886 29.5517 8.9274 29.3599C8.78636 29.1681 8.64962 28.9728 8.51845 28.7742C8.38685 28.5755 8.25996 28.3739 8.13865 28.1692C8.01734 27.9642 7.90074 27.7566 7.78971 27.546C7.67869 27.3354 7.57281 27.1222 7.4725 26.9065C7.37219 26.6904 7.27703 26.4725 7.18744 26.2521C7.09784 26.0313 7.01382 25.8088 6.93538 25.5841C6.85693 25.3594 6.78406 25.1331 6.71719 24.905C6.64989 24.6769 6.58859 24.4471 6.53286 24.2157C6.47713 23.9846 6.42741 23.7518 6.38326 23.5182C6.33953 23.2846 6.30095 23.0497 6.2688 22.8144C6.23665 22.5786 6.21007 22.3425 6.1895 22.1054C6.16892 21.8688 6.15435 21.6314 6.14577 21.3939C6.1372 21.156 6.13463 20.9186 6.13763 20.6807C6.13763 12.4027 12.5852 6.02937 20.6707 6.02937C26.9083 6.02937 30.5837 9.98124 30.5837 9.98124L34.434 6.01573C34.434 6.01573 29.4876 0.544922 20.4693 0.544922C8.98527 0.544922 0.101562 10.1786 0.101562 20.5835C0.101562 30.7795 8.45801 40.7223 20.7595 40.7223C31.5803 40.7223 39.5012 33.354 39.5012 22.4588C39.5012 20.1598 39.1652 18.8318 39.1652 18.8318H39.1712Z" fill="#DFDFDF"/>
</g>
<path d="M54.3599 14.8704C46.751 14.8704 41.2988 20.7833 41.2988 27.6763C41.2988 34.6737 46.5856 40.6953 54.4486 40.6953C61.5658 40.6953 67.3957 35.2889 67.3957 27.8263C67.3957 19.2891 60.6133 14.8691 54.3599 14.8691V14.8704ZM54.4341 19.9426C58.1746 19.9426 61.7197 22.9498 61.7197 27.7939C61.7197 32.5336 58.1892 35.6273 54.4161 35.6273C50.2696 35.6273 47.0117 32.3273 47.0117 27.7556C47.0117 23.281 50.24 19.9426 54.4456 19.9426H54.4341Z" fill="#DFDFDF"/>
<path d="M82.7646 14.8704C75.1558 14.8704 69.7031 20.7833 69.7031 27.6763C69.7031 34.6737 74.9899 40.6953 82.8534 40.6953C89.9701 40.6953 95.8004 35.2889 95.8004 27.8263C95.8004 19.2891 89.018 14.8691 82.7646 14.8691V14.8704ZM82.8384 19.9426C86.5793 19.9426 90.1244 22.9498 90.1244 27.7939C90.1244 32.5336 86.5939 35.6273 82.8208 35.6273C78.6743 35.6273 75.4164 32.3273 75.4164 27.7556C75.4164 23.281 78.6447 19.9426 82.8504 19.9426H82.8384Z" fill="#DFDFDF"/>
<mask id="mask1_0_20700" style="mask-type:luminance" maskUnits="userSpaceOnUse" x="98" y="14" width="26" height="39">
<path d="M98.1074 14.8633H123.128V52.3234H98.1074V14.8633Z" fill="white"/>
</mask>
<g mask="url(#mask1_0_20700)">
<path d="M110.622 14.8848C103.638 14.8848 98.1504 20.9635 98.1504 27.7874C98.1504 35.5594 104.514 40.7139 110.501 40.7139C114.203 40.7139 116.172 39.2521 117.609 37.5758V40.1222C117.609 44.5775 114.887 47.2462 110.779 47.2462C106.81 47.2462 104.82 44.3128 104.115 42.6493L99.1218 44.7101C100.893 48.4343 104.459 52.3154 110.821 52.3154C117.78 52.3154 123.055 47.9692 123.055 38.8518V15.6602H117.629V17.8476C115.956 16.052 113.664 14.8848 110.625 14.8848H110.622ZM111.126 19.948C114.549 19.948 118.065 22.8537 118.065 27.8155C118.065 32.8596 114.555 35.6387 111.05 35.6387C107.327 35.6387 103.863 32.6358 103.863 27.8624C103.863 22.9049 107.462 19.9463 111.126 19.9463V19.948Z" fill="#DFDFDF"/>
</g>
<path d="M147.307 14.8535C140.721 14.8535 135.189 20.0643 135.189 27.7476C135.189 35.8816 141.355 40.7048 147.925 40.7048C153.422 40.7048 156.81 37.7168 158.809 35.0379L154.318 32.0678C153.152 33.8634 151.204 35.6224 147.953 35.6224C144.301 35.6224 142.622 33.6354 141.581 31.7072L159 24.5239L158.112 22.4192C156.429 18.2977 152.504 14.8535 147.309 14.8535H147.307ZM147.534 19.82C149.908 19.82 151.615 21.0738 152.341 22.5782L140.707 27.4104C140.204 23.6687 143.773 19.82 147.519 19.82H147.534Z" fill="#DFDFDF"/>
<path d="M126.871 39.9403H132.593V1.88086H126.871V39.9403Z" fill="#DFDFDF"/>
</svg>
