<svg width="65" height="65" viewBox="0 0 65 65" fill="none" xmlns="http://www.w3.org/2000/svg">
<path d="M32.084 64.166C49.7637 64.166 64.084 49.8358 64.084 32.166C64.084 14.4963 49.7637 0.166016 32.084 0.166016C14.4043 0.166016 0.0839844 14.4963 0.0839844 32.166C0.0839844 49.8358 14.4166 64.166 32.084 64.166Z" fill="#FF060A"/>
<path d="M50.3117 24.6043C48.4685 22.9659 45.9085 20.4699 43.8349 18.7035L43.7069 18.6267C43.5021 18.4731 43.2717 18.3451 43.0285 18.2555C38.0109 17.3595 14.6637 13.1739 14.2157 13.2251C14.0877 13.2379 13.9597 13.2891 13.8573 13.3531L13.7421 13.4427C13.6013 13.5835 13.4861 13.7499 13.4221 13.9419L13.3965 14.0187V14.4411V14.5051C16.0205 21.5195 26.4013 44.4827 28.4493 49.8843C28.5773 50.2555 28.8077 50.9467 29.2429 50.9851H29.3453C29.5757 50.9851 30.5741 49.7179 30.5741 49.7179C30.5741 49.7179 48.4045 29.0075 50.2093 26.8059C50.4397 26.5371 50.6445 26.2427 50.8237 25.9355C50.8749 25.6923 50.8493 25.4491 50.7597 25.2187C50.6701 24.9883 50.5037 24.7707 50.3117 24.6043ZM35.1309 27.0235L42.7341 20.9819L47.2013 24.9243L35.1309 27.0235ZM32.1741 26.6267L19.0797 16.3355L40.2765 20.0859L32.1741 26.6267ZM33.3517 29.3147L46.7533 27.2411L31.4317 44.9435L33.3517 29.3147ZM17.3005 17.3723L31.0861 28.5723L29.0893 44.9563L17.3005 17.3723Z" fill="black"/>
</svg>
