<svg width="40" height="40" viewBox="0 0 40 40" fill="none" xmlns="http://www.w3.org/2000/svg">
<g id="Frame">
<path id="Vector" d="M33.555 33.0797L23.7738 17.7078L33.4253 7.09063C33.6436 6.84457 33.7561 6.52239 33.7384 6.19394C33.7208 5.86549 33.5743 5.55724 33.3309 5.33602C33.0875 5.11481 32.7667 4.99845 32.4381 5.01218C32.1094 5.02591 31.7994 5.16862 31.5753 5.40937L22.3816 15.5219L16.055 5.57969C15.9422 5.40212 15.7864 5.25589 15.602 5.15456C15.4177 5.05323 15.2107 5.00007 15.0003 5H7.50031C7.27619 4.99989 7.05616 5.06004 6.86326 5.17416C6.67037 5.28827 6.5117 5.45215 6.40387 5.64863C6.29605 5.84511 6.24303 6.06697 6.25038 6.29097C6.25772 6.51497 6.32516 6.73288 6.44563 6.92188L16.2269 22.2922L6.57531 32.9172C6.46261 33.0383 6.37505 33.1805 6.31772 33.3357C6.26039 33.4908 6.23442 33.6558 6.24132 33.8211C6.24823 33.9864 6.28787 34.1486 6.35794 34.2984C6.42802 34.4483 6.52713 34.5827 6.64955 34.694C6.77196 34.8052 6.91524 34.8911 7.07108 34.9465C7.22691 35.002 7.39221 35.026 7.55738 35.0171C7.72256 35.0082 7.88433 34.9666 8.03331 34.8948C8.1823 34.8229 8.31554 34.7222 8.42531 34.5984L17.6191 24.4859L23.9456 34.4281C24.0594 34.6042 24.2156 34.7489 24.3999 34.8489C24.5842 34.9488 24.7907 35.0008 25.0003 35H32.5003C32.7242 34.9999 32.944 34.9397 33.1366 34.8257C33.3293 34.7117 33.4878 34.548 33.5956 34.3517C33.7033 34.1555 33.7564 33.9339 33.7493 33.7102C33.7422 33.4864 33.6751 33.2687 33.555 33.0797ZM25.6863 32.5L9.77688 7.5H14.3081L30.2238 32.5H25.6863Z" fill="url(#paint0_linear_0_21034)"/>
</g>
<defs>
<linearGradient id="paint0_linear_0_21034" x1="19.9951" y1="5" x2="19.9951" y2="35.0189" gradientUnits="userSpaceOnUse">
<stop stop-color="#3DFFB9"/>
<stop offset="1" stop-color="#24996F"/>
</linearGradient>
</defs>
</svg>
