<svg width="284" height="125" viewBox="0 0 284 125" fill="none" xmlns="http://www.w3.org/2000/svg">
<mask id="mask0_13_1086" style="mask-type:alpha" maskUnits="userSpaceOnUse" x="0" y="0" width="284" height="125">
<rect width="284" height="125" rx="32" fill="#D9D9D9"/>
</mask>
<g mask="url(#mask0_13_1086)">
</g>
<g clip-path="url(#clip0_13_1086)">
<path d="M241.267 46.5249C244.197 46.5249 246.574 44.1688 246.574 41.2624C246.574 38.3561 244.197 36 241.267 36C238.338 36 235.961 38.3561 235.961 41.2624C235.961 44.1688 238.338 46.5249 241.267 46.5249Z" fill="#16181D"/>
<path fill-rule="evenodd" clip-rule="evenodd" d="M18.3913 36.1855C8.1432 36.1855 0 44.5863 0 54.7454C0 64.9045 8.1432 73.3053 18.3913 73.3053H28.1973V87.2751H36.7828V73.3053H43.7059V87.2751H52.2914V73.3053H62.0973C72.3455 73.3053 80.4887 64.9045 80.4887 54.7454C80.4887 44.5863 72.3455 36.1855 62.0973 36.1855C51.849 36.1855 43.7059 44.5863 43.7059 54.7454V64.7903H36.7828V54.7454C36.7828 44.5863 28.6397 36.1855 18.3913 36.1855ZM28.1973 54.7454V64.7903H18.3913C13.0666 64.7903 8.58543 60.3844 8.58543 54.7454C8.58543 49.1065 13.0666 44.7005 18.3913 44.7005C23.7162 44.7005 28.1973 49.1065 28.1973 54.7454ZM62.0973 64.7903H52.2914V54.7454C52.2914 49.1065 56.7725 44.7005 62.0973 44.7005C67.422 44.7005 71.9031 49.1065 71.9031 54.7454C71.9031 60.3844 67.422 64.7903 62.0973 64.7903Z" fill="#16181D"/>
<path d="M236.738 50.1182H245.568V87.2742H236.738V50.1182Z" fill="#16181D"/>
<path fill-rule="evenodd" clip-rule="evenodd" d="M94.7734 87.2748V37.7334H113.505C117.343 37.7334 120.562 38.443 123.164 39.8621C125.782 41.2813 127.757 43.2326 129.091 45.7161C130.44 48.1835 131.115 50.9896 131.115 54.1343C131.115 57.3112 130.44 60.1334 129.091 62.6008C127.741 65.0682 125.749 67.0115 123.115 68.4307C120.481 69.8336 117.237 70.5351 113.383 70.5351H103.822V87.2748H94.7734ZM112.164 63.1572H103.822V45.2323H112.115C114.375 45.2323 116.221 45.6113 117.652 46.3693C119.099 47.1111 120.164 48.1513 120.847 49.4898C121.546 50.8283 121.896 52.3765 121.896 54.1343C121.896 55.8921 121.546 57.4483 120.847 58.8031C120.164 60.1577 119.107 61.2219 117.676 61.9961C116.245 62.7702 114.408 63.1572 112.164 63.1572Z" fill="#16181D"/>
<path fill-rule="evenodd" clip-rule="evenodd" d="M166.4 85.678C168.725 87.1778 171.36 87.9277 174.303 87.9277C176.449 87.9277 178.229 87.573 179.644 86.8634C181.059 86.1538 182.197 85.2991 183.059 84.2992C183.921 83.2832 184.579 82.3236 185.034 81.4205H185.571V87.2746H194.254V50.1186H185.4V56.2628H185.034C184.579 55.3597 183.937 54.4002 183.107 53.3842C182.278 52.3521 181.156 51.4732 179.742 50.7475C178.327 50.0057 176.522 49.6348 174.327 49.6348C171.449 49.6348 168.839 50.3685 166.498 51.8361C164.156 53.2875 162.294 55.4404 160.912 58.2948C159.546 61.1332 158.863 64.6165 158.863 68.7449C158.863 72.8249 159.538 76.2922 160.888 79.1466C162.237 82.0012 164.075 84.1783 166.4 85.678ZM181.547 79.2435C180.229 80.2434 178.636 80.7432 176.766 80.7432C174.831 80.7432 173.197 80.2271 171.864 79.1951C170.546 78.1469 169.546 76.7195 168.863 74.9134C168.197 73.091 167.863 71.0188 167.863 68.6966C167.863 66.3904 168.197 64.3424 168.863 62.5523C169.53 60.7622 170.522 59.3591 171.839 58.3431C173.156 57.3272 174.799 56.8192 176.766 56.8192C178.668 56.8192 180.27 57.3111 181.571 58.2948C182.888 59.2785 183.88 60.6574 184.546 62.4314C185.23 64.2053 185.571 66.2937 185.571 68.6966C185.571 71.0994 185.23 73.2039 184.546 75.0102C183.864 76.8164 182.863 78.2275 181.547 79.2435Z" fill="#16181D"/>
<path d="M208.104 50.1182L215.665 63.8339L223.347 50.1182H232.689L221.396 68.6962L232.885 87.2742H223.592L215.665 73.897L207.811 87.2742H198.445L209.86 68.6962L198.738 50.1182H208.104Z" fill="#16181D"/>
<path d="M281.475 59.9398L273.425 60.8105C273.198 60.0043 272.8 59.2462 272.23 58.5366C271.677 57.827 270.93 57.2546 269.987 56.8192C269.045 56.3838 267.889 56.1661 266.524 56.1661C264.687 56.1661 263.142 56.5612 261.89 57.3514C260.654 58.1416 260.044 59.1656 260.06 60.4236C260.044 61.5041 260.442 62.3829 261.255 63.0602C262.085 63.7375 263.45 64.2939 265.353 64.7294L271.743 66.084C275.289 66.8419 277.921 68.0435 279.645 69.6885C281.386 71.3332 282.264 73.4862 282.279 76.1471C282.264 78.4856 281.572 80.5497 280.206 82.3398C278.856 84.1137 276.979 85.5006 274.572 86.5005C272.167 87.5004 269.401 88.0003 266.279 88.0003C261.694 88.0003 258.004 87.0489 255.205 85.1459C252.409 83.2267 250.742 80.5578 250.207 77.139L258.817 76.3165C259.205 77.9937 260.036 79.2595 261.305 80.1142C262.572 80.969 264.224 81.3963 266.255 81.3963C268.352 81.3963 270.037 80.969 271.304 80.1142C272.588 79.2595 273.231 78.2032 273.231 76.9455C273.231 75.881 272.816 75.0022 271.988 74.3087C271.175 73.6151 269.906 73.083 268.182 72.712L261.792 71.3817C258.198 70.6398 255.54 69.3901 253.816 67.6323C252.092 65.8582 251.238 63.6166 251.256 60.9074C251.238 58.6174 251.865 56.6337 253.132 54.9566C254.417 53.2633 256.197 51.957 258.476 51.0378C260.767 50.1024 263.409 49.6348 266.402 49.6348C270.793 49.6348 274.247 50.5621 276.768 52.4166C279.304 54.2712 280.872 56.7789 281.475 59.9398Z" fill="#16181D"/>
<path d="M136.619 50.1181V87.2742H145.448V65.4305C145.448 63.8499 145.806 62.463 146.522 61.2696C147.253 60.0602 148.237 59.1168 149.473 58.4395C150.709 57.7622 152.091 57.4235 153.619 57.4235C154.335 57.4235 154.977 57.4961 155.546 57.6412L155.639 57.6654L155.686 57.6777L159.829 50.9342C159.181 50.5179 158.436 50.1895 157.595 49.9488C156.749 49.7069 155.823 49.5859 154.814 49.5859C152.652 49.5859 150.741 50.1746 149.083 51.3518C147.424 52.5129 146.254 54.1659 145.571 56.3108H145.18V50.1181H136.619Z" fill="#16181D"/>
</g>
<defs>
<clipPath id="clip0_13_1086">
<rect width="284" height="52" fill="white" transform="translate(0 36)"/>
</clipPath>
</defs>
</svg>
