<svg width="186" height="39" viewBox="0 0 186 39" fill="none" xmlns="http://www.w3.org/2000/svg">
<g clip-path="url(#clip0_1212_680)">
<path d="M53.6211 30.4279C51.7617 30.4279 50.166 30.1088 48.8471 29.4685C47.5281 28.828 46.509 27.8453 45.7964 26.5113C45.0837 25.1774 44.6795 23.5053 44.5966 21.4929C44.5775 20.5376 44.5625 19.6271 44.5625 18.7464C44.5625 17.8656 44.5731 16.9551 44.5966 15.9999C44.6859 14.0065 45.0987 12.3493 45.8476 11.0155C46.5962 9.68156 47.6346 8.68808 48.9683 8.0286C50.3023 7.36911 51.851 7.03937 53.6295 7.03937C55.4081 7.03937 56.927 7.36911 58.2607 8.0286C59.5946 8.68808 60.637 9.68795 61.3965 11.0155C62.154 12.3493 62.5687 14.0065 62.6326 15.9999C62.6773 16.9551 62.6963 17.8656 62.6963 18.7464C62.6963 19.6271 62.6773 20.5376 62.6326 21.4929C62.5687 23.5053 62.1709 25.1795 61.4455 26.5113C60.7221 27.8453 59.699 28.828 58.3756 29.4685C57.0567 30.1088 55.4718 30.4279 53.6316 30.4279H53.6274H53.6211ZM53.6211 27.6665C55.2633 27.6665 56.6121 27.1688 57.665 26.1709C58.714 25.1774 59.284 23.5628 59.3733 21.3332C59.4182 20.3589 59.4372 19.4888 59.4372 18.7208C59.4372 17.9529 59.4182 17.0913 59.3733 16.1382C59.3287 14.6426 59.0542 13.4322 58.5459 12.5025C58.0375 11.5728 57.3588 10.8878 56.5186 10.4559C55.6717 10.0219 54.7123 9.80709 53.6295 9.80709C52.5465 9.80709 51.5829 10.0241 50.7405 10.4559C49.8939 10.8899 49.2195 11.5728 48.7131 12.5025C48.2067 13.4322 47.9154 14.649 47.8515 16.1382C47.8324 17.0934 47.8174 17.955 47.8174 18.7208C47.8174 19.4867 47.8282 20.3589 47.8515 21.3332C47.9344 23.5628 48.511 25.1774 49.5748 26.1709C50.6383 27.1643 51.9913 27.6665 53.6338 27.6665H53.6187H53.6211Z" fill="white"/>
<path d="M72.2074 30.1023C71.882 30.1023 71.6265 30.0278 71.4437 29.877C71.2607 29.7238 71.1138 29.5323 71.0055 29.2919L64.9976 14.2236C64.953 14.1151 64.9339 14.0066 64.9339 13.8981C64.9339 13.7002 64.9976 13.5386 65.1297 13.4109C65.2573 13.2833 65.421 13.2131 65.6168 13.2131H67.1761C67.4122 13.2131 67.5995 13.2769 67.7271 13.4109C67.8547 13.5386 67.9442 13.6619 67.9889 13.7704L72.9243 26.5645L77.8598 13.7704C77.9046 13.6619 77.9833 13.5449 78.1067 13.4109C78.2237 13.2833 78.4023 13.2131 78.6427 13.2131H80.2319C80.4043 13.2131 80.5617 13.2769 80.7042 13.4109C80.8468 13.5386 80.9147 13.7002 80.9147 13.8981C80.9147 14.0066 80.8957 14.1151 80.851 14.2236L74.8093 29.2919C74.7198 29.528 74.5879 29.7238 74.4007 29.877C74.2178 30.0299 73.9519 30.1023 73.6029 30.1023H72.2053H72.2074Z" fill="white"/>
<path d="M89.6076 30.428C87.3546 30.428 85.5676 29.7388 84.2487 28.3666C82.9253 26.9945 82.2021 25.1138 82.0745 22.7311C82.0552 22.4503 82.0404 22.0866 82.0404 21.6441C82.0404 21.2017 82.051 20.8378 82.0745 20.557C82.1574 19.021 82.5169 17.6744 83.1467 16.5128C83.7764 15.3555 84.6336 14.4599 85.7293 13.8302C86.8229 13.2005 88.1056 12.8899 89.5777 12.8899C91.2221 12.8899 92.6049 13.2345 93.7218 13.9281C94.8389 14.6216 95.6855 15.6066 96.2706 16.8851C96.8554 18.1637 97.147 19.655 97.147 21.3676V21.9186C97.147 22.1547 97.0789 22.3418 96.9363 22.4696C96.7939 22.5972 96.6172 22.6674 96.4003 22.6674H85.1614V22.9567C85.206 23.8416 85.3975 24.6734 85.7462 25.4416C86.0909 26.2095 86.5973 26.835 87.2567 27.3115C87.9162 27.788 88.6886 28.0242 89.5799 28.0242C90.3564 28.0242 91.0073 27.9051 91.5285 27.6647C92.0497 27.4285 92.4689 27.1625 92.7922 26.8667C93.1177 26.5711 93.3327 26.3413 93.441 26.1669C93.6388 25.9052 93.7857 25.7478 93.8943 25.6946C94.0026 25.6415 94.1751 25.6117 94.4154 25.6117H96.0046C96.2024 25.6117 96.3683 25.6712 96.5067 25.7882C96.6491 25.9073 96.7088 26.0732 96.6832 26.2903C96.6642 26.6158 96.4853 27.0093 96.162 27.4753C95.8366 27.9434 95.3791 28.4006 94.7834 28.8581C94.1877 29.3112 93.4497 29.6855 92.573 29.9792C91.6965 30.2706 90.7073 30.4174 89.6012 30.4174L89.6055 30.4217L89.6076 30.428ZM85.1592 20.423H94.0559V20.3251C94.0559 19.3508 93.8792 18.4849 93.5197 17.7276C93.1602 16.9702 92.6496 16.3703 91.9795 15.9257C91.3095 15.4832 90.5073 15.2619 89.5777 15.2619C88.6482 15.2619 87.8502 15.4832 87.1908 15.9257C86.5313 16.3682 86.0249 16.9681 85.6804 17.7276C85.3357 18.4849 85.1592 19.3508 85.1592 20.3251V20.423Z" fill="white"/>
<path d="M100.789 30.1045C100.572 30.1045 100.395 30.0366 100.253 29.8939C100.11 29.7513 100.04 29.5748 100.04 29.3579V13.9939C100.04 13.7769 100.108 13.5961 100.253 13.4429C100.395 13.2897 100.572 13.2174 100.789 13.2174H102.284C102.501 13.2174 102.682 13.2918 102.835 13.4429C102.988 13.5961 103.061 13.7769 103.061 13.9939V15.4214C103.495 14.6832 104.088 14.1322 104.848 13.762C105.605 13.394 106.526 13.211 107.609 13.211H108.875C109.092 13.211 109.268 13.2791 109.411 13.4216C109.553 13.5641 109.622 13.7407 109.622 13.9577V15.2916C109.622 15.5086 109.553 15.6809 109.411 15.8128C109.268 15.9404 109.092 16.0106 108.875 16.0106H106.926C105.754 16.0106 104.835 16.351 104.165 17.0339C103.495 17.7189 103.156 18.6422 103.156 19.8101V29.3558C103.156 29.5727 103.078 29.7492 102.931 29.8918C102.778 30.0344 102.597 30.1024 102.38 30.1024H100.791L100.789 30.1045Z" fill="white"/>
<path d="M118.384 30.428C116.848 30.428 115.521 30.1282 114.408 29.5325C113.292 28.9368 112.43 28.0815 111.826 26.9689C111.219 25.8521 110.896 24.5181 110.851 22.9588C110.832 22.6334 110.817 22.2015 110.817 21.6589C110.817 21.1165 110.828 20.6846 110.851 20.3591C110.896 18.7998 111.219 17.4659 111.826 16.349C112.43 15.2321 113.292 14.3812 114.408 13.7855C115.525 13.1899 116.848 12.8899 118.384 12.8899C119.64 12.8899 120.716 13.0622 121.618 13.4111C122.518 13.7557 123.256 14.2025 123.843 14.745C124.428 15.2853 124.867 15.8725 125.158 16.4958C125.45 17.1255 125.607 17.7212 125.63 18.2828C125.649 18.4998 125.586 18.6721 125.435 18.804C125.282 18.9317 125.101 19.0019 124.884 19.0019H123.324C123.107 19.0019 122.946 18.9529 122.837 18.8551C122.729 18.7572 122.62 18.5892 122.512 18.353C122.122 17.2893 121.59 16.5469 120.922 16.115C120.252 15.681 119.416 15.4662 118.423 15.4662C117.123 15.4662 116.066 15.8704 115.253 16.666C114.44 17.468 114.002 18.7572 113.938 20.5293C113.919 21.3058 113.919 22.0652 113.938 22.8035C114.002 24.599 114.44 25.8946 115.253 26.686C116.066 27.4774 117.119 27.871 118.423 27.871C119.416 27.871 120.254 27.6539 120.922 27.222C121.593 26.788 122.122 26.0415 122.512 24.9841C122.62 24.7479 122.729 24.5757 122.837 24.4629C122.946 24.3543 123.107 24.3012 123.324 24.3012H124.884C125.101 24.3012 125.282 24.3694 125.435 24.5118C125.588 24.6544 125.652 24.8309 125.63 25.048C125.611 25.501 125.513 25.9691 125.341 26.4456C125.169 26.9222 124.894 27.405 124.513 27.8922C124.135 28.3795 123.663 28.8133 123.101 29.192C122.539 29.5708 121.865 29.8749 121.088 30.1026C120.312 30.3281 119.41 30.443 118.391 30.443L118.387 30.4323L118.384 30.428Z" fill="white"/>
<path d="M129.232 30.1022C129.015 30.1022 128.838 30.0341 128.696 29.8917C128.553 29.749 128.485 29.5723 128.485 29.3554V7.79227C128.485 7.57527 128.553 7.39871 128.696 7.25617C128.838 7.11364 129.015 7.04556 129.232 7.04556H130.855C131.091 7.04556 131.278 7.11364 131.406 7.25617C131.534 7.39871 131.604 7.57527 131.604 7.79227V15.3615C132.189 14.6233 132.904 14.0276 133.75 13.5745C134.597 13.1214 135.665 12.8895 136.963 12.8895C138.371 12.8895 139.567 13.2001 140.549 13.8149C141.534 14.4297 142.281 15.2871 142.789 16.3784C143.296 17.4719 143.553 18.7462 143.553 20.1928V29.3512C143.553 29.5681 143.489 29.7448 143.355 29.8872C143.228 30.0298 143.041 30.098 142.804 30.098H141.181C140.964 30.098 140.788 30.0298 140.645 29.8872C140.503 29.7448 140.435 29.5681 140.435 29.3512V20.3566C140.435 18.8419 140.067 17.6548 139.332 16.7996C138.594 15.9444 137.511 15.5147 136.084 15.5147C134.739 15.5147 133.659 15.9423 132.835 16.7996C132.014 17.6548 131.599 18.8419 131.599 20.3566V29.3512C131.599 29.5681 131.536 29.7448 131.404 29.8872C131.276 30.0298 131.089 30.098 130.853 30.098H129.23L129.234 30.1022H129.232Z" fill="white"/>
<path d="M151.946 30.4278C150.863 30.4278 149.878 30.2107 148.989 29.7788C148.104 29.3448 147.385 28.7599 146.842 28.028C146.302 27.2897 146.03 26.4581 146.03 25.5283C146.03 24.0327 146.634 22.8413 147.851 21.9564C149.061 21.0714 150.646 20.4843 152.595 20.2056L157.432 19.5206V18.5803C157.432 17.5421 157.132 16.7295 156.541 16.1444C155.945 15.5594 154.975 15.2679 153.633 15.2679C152.678 15.2679 151.901 15.4658 151.295 15.853C150.689 16.2423 150.267 16.738 150.029 17.3485C149.901 17.674 149.67 17.8357 149.344 17.8357H147.883C147.646 17.8357 147.464 17.7676 147.347 17.6251C147.23 17.4825 147.17 17.3145 147.17 17.123C147.17 16.7975 147.293 16.3997 147.544 15.9232C147.791 15.4466 148.178 14.9829 148.695 14.5255C149.217 14.0723 149.88 13.6894 150.693 13.3746C151.505 13.0597 152.495 12.9023 153.665 12.9023C154.965 12.9023 156.056 13.0703 156.947 13.4044C157.832 13.7384 158.532 14.1872 159.043 14.7531C159.549 15.3147 159.919 15.953 160.145 16.6678C160.37 17.3804 160.485 18.1101 160.485 18.8419V29.364C160.485 29.5809 160.417 29.7576 160.275 29.9C160.132 30.0427 159.955 30.1108 159.739 30.1108H158.243C158.007 30.1108 157.82 30.0427 157.692 29.9C157.564 29.7576 157.496 29.5809 157.496 29.364V27.9664C157.215 28.3555 156.837 28.7385 156.36 29.1173C155.884 29.4959 155.288 29.8107 154.573 30.0575C153.858 30.3086 152.984 30.432 151.939 30.432H151.944L151.946 30.4278ZM152.631 27.9918C153.516 27.9918 154.329 27.8045 155.067 27.4217C155.805 27.043 156.381 26.4515 156.803 25.6495C157.226 24.8476 157.437 23.8435 157.437 22.6287V21.7182L153.667 22.2692C152.131 22.4861 150.969 22.85 150.193 23.3562C149.416 23.8625 149.021 24.5071 149.021 25.29C149.021 25.8963 149.197 26.4026 149.557 26.8005C149.916 27.1983 150.37 27.5004 150.921 27.6962C151.472 27.8919 152.042 27.9854 152.622 27.9854L152.627 27.9897L152.631 27.9918Z" fill="white"/>
<path d="M164.573 10.0642C164.355 10.0642 164.179 9.99613 164.036 9.8536C163.894 9.71106 163.826 9.53448 163.826 9.31748V7.56664C163.826 7.34966 163.894 7.16883 164.036 7.01565C164.179 6.86249 164.355 6.79016 164.573 6.79016H166.619C166.836 6.79016 167.017 6.86886 167.17 7.01565C167.323 7.16883 167.396 7.34966 167.396 7.56664V9.31748C167.396 9.53448 167.317 9.71106 167.17 9.8536C167.017 9.99613 166.836 10.0642 166.619 10.0642H164.573ZM164.834 30.1021C164.617 30.1021 164.441 30.034 164.298 29.8913C164.155 29.7489 164.088 29.5722 164.088 29.3553V13.9637C164.088 13.7467 164.155 13.5701 164.298 13.4276C164.441 13.2851 164.617 13.217 164.834 13.217H166.394C166.611 13.217 166.787 13.2851 166.93 13.4276C167.072 13.5701 167.14 13.7467 167.14 13.9637V29.3553C167.14 29.5722 167.072 29.7489 166.93 29.8913C166.787 30.034 166.611 30.1021 166.394 30.1021H164.834Z" fill="white"/>
<path d="M171.61 30.1041C171.393 30.1041 171.216 30.0362 171.074 29.8935C170.931 29.7509 170.863 29.5745 170.863 29.3576V13.9658C170.863 13.7488 170.931 13.5723 171.074 13.4297C171.216 13.2872 171.393 13.2191 171.61 13.2191H173.135C173.352 13.2191 173.529 13.2872 173.671 13.4297C173.814 13.5723 173.882 13.7488 173.882 13.9658V15.3933C174.444 14.6551 175.152 14.0552 176.007 13.5914C176.862 13.1234 177.96 12.8936 179.305 12.8936C180.649 12.8936 181.909 13.2042 182.891 13.819C183.877 14.4338 184.623 15.2912 185.13 16.3825C185.636 17.476 185.893 18.7503 185.893 20.1969V29.3552C185.893 29.5723 185.825 29.7488 185.683 29.8914C185.54 30.0341 185.364 30.102 185.147 30.102H183.523C183.306 30.102 183.13 30.0341 182.987 29.8914C182.845 29.7488 182.777 29.5723 182.777 29.3552V20.3607C182.777 18.846 182.409 17.659 181.675 16.8038C180.936 15.9485 179.854 15.5188 178.426 15.5188C177.082 15.5188 176.005 15.9464 175.192 16.8038C174.38 17.659 173.978 18.846 173.978 20.3607V29.3552C173.978 29.5723 173.91 29.7488 173.767 29.8914C173.625 30.0341 173.448 30.102 173.231 30.102H171.608L171.612 30.1062L171.61 30.1041Z" fill="white"/>
<path d="M28.1252 9.2328C28.657 9.00729 29.2719 9.10516 29.7186 9.4732C30.0633 9.75825 30.2654 10.222 30.2696 10.7369L30.3227 15.4256C30.3227 15.583 30.4014 15.7213 30.5292 15.8043C30.6568 15.8873 30.8143 15.9085 30.9567 15.849L33.0245 15.0065C33.2799 14.9023 33.4479 14.6512 33.4437 14.3768L33.399 10.622C33.3798 8.60947 32.2714 6.91607 30.4165 6.21192C29.2209 5.75876 27.8827 5.84813 26.6998 6.33955L26.1211 6.61185L26.0339 10.1327L28.121 9.22854L28.1252 9.2328Z" fill="white"/>
<path d="M5.81353 28.5196C5.61143 28.6025 5.40507 28.6429 5.19871 28.6429C4.89451 28.6429 4.5988 28.5536 4.32862 28.3812C3.88186 28.0919 3.62021 27.6239 3.61594 27.1027L3.47342 10.8729C3.46915 10.2623 3.83294 9.70065 4.40308 9.45177L18.8672 3.43764C19.5862 3.11854 20.1755 3.41212 20.3968 3.55677C20.618 3.69931 21.1243 4.11202 21.1094 4.88639L21.1264 21.4311C21.1116 22.0415 20.7286 22.5883 20.1521 22.8245L14.0806 25.1987L14.1976 28.6258L21.42 25.788C23.1965 25.0647 24.3728 23.3818 24.4174 21.5013L24.4005 4.96722C24.4388 3.31425 23.6218 1.78253 22.2115 0.878393C21.4095 0.361438 20.4797 0.0870056 19.5288 0.0870056C18.831 0.0870056 18.146 0.233796 17.5014 0.520992L3.03942 6.52234C1.28646 7.30523 0.169582 9.02202 0.184473 10.9026L0.327009 27.1325C0.341899 28.7217 1.15882 30.1938 2.51608 31.0681C3.3181 31.5851 4.24353 31.8553 5.20297 31.8553C5.85183 31.8553 6.48154 31.7319 7.08358 31.4871L7.78987 31.0724L7.75584 27.609L5.81353 28.5217V28.5196Z" fill="white"/>
<path d="M33.4956 21.5502C33.4956 21.3927 33.4212 21.2546 33.2893 21.1716C33.1615 21.0822 33.0041 21.0673 32.8617 21.1268L30.796 21.9694C30.5406 22.0714 30.3726 22.3247 30.3768 22.5991L30.4215 26.8858C30.4257 27.4963 30.0727 28.0557 29.5152 28.3067L14.9171 34.8123C14.213 35.1314 13.6386 34.8379 13.4216 34.6952C13.2046 34.5528 12.7089 34.14 12.7238 33.3615L12.3239 17.0678C12.3387 16.4572 12.7217 15.6467 13.2791 15.4148L15.5639 14.4894L19.3336 12.7832L19.3953 9.27731L11.9473 12.4322C10.2092 13.1555 9.0647 14.8425 9.02003 16.7232L9.50933 33.2912C9.46891 34.9443 10.273 36.4759 11.6495 37.3843C12.4366 37.9013 13.3429 38.1757 14.2725 38.1757C14.9576 38.1757 15.6256 38.0288 16.2553 37.7417L30.8555 31.2361C32.5384 30.4682 33.5722 28.7898 33.5572 26.8559L33.5041 21.5459L33.4956 21.5502Z" fill="white"/>
</g>
<defs>
<clipPath id="clip0_1212_680">
<rect width="186" height="38.3003" fill="white"/>
</clipPath>
</defs>
</svg>
