<svg width="48" height="48" viewBox="0 0 48 48" fill="none" xmlns="http://www.w3.org/2000/svg">
<g id="currency-btc-duotone 1">
<path id="Vector" opacity="0.2" d="M36 30C36 30.9849 35.806 31.9602 35.4291 32.8701C35.0522 33.7801 34.4997 34.6069 33.8033 35.3033C33.1069 35.9997 32.2801 36.5522 31.3701 36.9291C30.4602 37.306 29.4849 37.5 28.5 37.5H15V9H26.25C28.0402 9 29.7571 9.71116 31.023 10.977C32.2888 12.2429 33 13.9598 33 15.75C33 17.5402 32.2888 19.2571 31.023 20.523C29.7571 21.7888 28.0402 22.5 26.25 22.5H28.5C29.4849 22.5 30.4602 22.694 31.3701 23.0709C32.2801 23.4478 33.1069 24.0003 33.8033 24.6967C34.4997 25.3931 35.0522 26.2199 35.4291 27.1299C35.806 28.0398 36 29.0151 36 30Z" fill="url(#paint0_linear_1_1054)"/>
<path id="Vector_2" d="M31.965 21.6937C33.1035 20.5976 33.9031 19.1974 34.2689 17.6599C34.6346 16.1223 34.551 14.5121 34.028 13.0207C33.5049 11.5293 32.5646 10.2195 31.3187 9.24712C30.0728 8.27474 28.5738 7.68069 27 7.53562V4.5C27 4.10218 26.842 3.72064 26.5607 3.43934C26.2794 3.15804 25.8978 3 25.5 3C25.1022 3 24.7206 3.15804 24.4393 3.43934C24.158 3.72064 24 4.10218 24 4.5V7.5H21V4.5C21 4.10218 20.842 3.72064 20.5607 3.43934C20.2794 3.15804 19.8978 3 19.5 3C19.1022 3 18.7206 3.15804 18.4393 3.43934C18.158 3.72064 18 4.10218 18 4.5V7.5H12C11.6022 7.5 11.2206 7.65804 10.9393 7.93934C10.658 8.22064 10.5 8.60218 10.5 9C10.5 9.39782 10.658 9.77936 10.9393 10.0607C11.2206 10.342 11.6022 10.5 12 10.5H13.5V36H12C11.6022 36 11.2206 36.158 10.9393 36.4393C10.658 36.7206 10.5 37.1022 10.5 37.5C10.5 37.8978 10.658 38.2794 10.9393 38.5607C11.2206 38.842 11.6022 39 12 39H18V42C18 42.3978 18.158 42.7794 18.4393 43.0607C18.7206 43.342 19.1022 43.5 19.5 43.5C19.8978 43.5 20.2794 43.342 20.5607 43.0607C20.842 42.7794 21 42.3978 21 42V39H24V42C24 42.3978 24.158 42.7794 24.4393 43.0607C24.7206 43.342 25.1022 43.5 25.5 43.5C25.8978 43.5 26.2794 43.342 26.5607 43.0607C26.842 42.7794 27 42.3978 27 42V39H28.5C30.5803 39 32.5963 38.2794 34.2052 36.9607C35.8141 35.642 36.9165 33.8067 37.3249 31.7669C37.7333 29.7271 37.4224 27.6088 36.4453 25.7724C35.4681 23.9359 33.8849 22.4946 31.965 21.6937ZM16.5 10.5H26.25C27.6424 10.5 28.9777 11.0531 29.9623 12.0377C30.9469 13.0223 31.5 14.3576 31.5 15.75C31.5 17.1424 30.9469 18.4777 29.9623 19.4623C28.9777 20.4469 27.6424 21 26.25 21H16.5V10.5ZM28.5 36H16.5V24H28.5C30.0913 24 31.6174 24.6321 32.7426 25.7574C33.8679 26.8826 34.5 28.4087 34.5 30C34.5 31.5913 33.8679 33.1174 32.7426 34.2426C31.6174 35.3679 30.0913 36 28.5 36Z" fill="url(#paint1_linear_1_1054)"/>
</g>
<defs>
<linearGradient id="paint0_linear_1_1054" x1="25.5" y1="9" x2="25.5" y2="37.5" gradientUnits="userSpaceOnUse">
<stop stop-color="#3DFFB9"/>
<stop offset="1" stop-color="#24996F"/>
</linearGradient>
<linearGradient id="paint1_linear_1_1054" x1="24" y1="3" x2="24" y2="43.5" gradientUnits="userSpaceOnUse">
<stop stop-color="#3DFFB9"/>
<stop offset="1" stop-color="#24996F"/>
</linearGradient>
</defs>
</svg>
