<svg width="48" height="48" viewBox="0 0 48 48" fill="none" xmlns="http://www.w3.org/2000/svg">
<g id="Frame">
<path id="Vector" opacity="0.2" d="M30 24C30 33.9375 25.2994 42 19.5 42C13.7006 42 9 33.9375 9 24C9 14.0625 13.7006 6 19.5 6C25.2994 6 30 14.0625 30 24Z" fill="url(#paint0_linear_1_1047)"/>
<path id="Vector_2" d="M37.2206 10.5169C34.9575 6.6375 31.86 4.5 28.5 4.5H19.5C16.14 4.5 13.0425 6.6375 10.7794 10.5169C8.66438 14.1413 7.5 18.9375 7.5 24C7.5 29.0625 8.66438 33.8588 10.7794 37.4831C13.0425 41.3625 16.14 43.5 19.5 43.5H28.5C31.86 43.5 34.9575 41.3625 37.2206 37.4831C39.3356 33.8588 40.5 29.0625 40.5 24C40.5 18.9375 39.3356 14.1413 37.2206 10.5169ZM37.4606 22.5H31.4606C31.3434 19.4219 30.7306 16.3829 29.6456 13.5H35.3812C36.5287 16.0088 37.2862 19.125 37.4606 22.5ZM33.5981 10.5H28.2113C27.5847 9.4131 26.8293 8.40581 25.9613 7.5H28.5C30.375 7.5 32.1375 8.625 33.5981 10.5ZM10.5 24C10.5 15.0562 14.625 7.5 19.5 7.5C24.375 7.5 28.5 15.0562 28.5 24C28.5 32.9438 24.375 40.5 19.5 40.5C14.625 40.5 10.5 32.9438 10.5 24ZM28.5 40.5H25.9669C26.8349 39.5942 27.5903 38.5869 28.2169 37.5H33.6038C32.1375 39.375 30.375 40.5 28.5 40.5ZM35.3812 34.5H29.6475C30.7324 31.6171 31.3453 28.5781 31.4625 25.5H37.4625C37.2863 28.875 36.5287 31.9912 35.3812 34.5Z" fill="url(#paint1_linear_1_1047)"/>
</g>
<defs>
<linearGradient id="paint0_linear_1_1047" x1="19.5" y1="6" x2="19.5" y2="42" gradientUnits="userSpaceOnUse">
<stop stop-color="#3DFFB9"/>
<stop offset="1" stop-color="#24996F"/>
</linearGradient>
<linearGradient id="paint1_linear_1_1047" x1="24" y1="4.5" x2="24" y2="43.5" gradientUnits="userSpaceOnUse">
<stop stop-color="#3DFFB9"/>
<stop offset="1" stop-color="#24996F"/>
</linearGradient>
</defs>
</svg>
