<svg width="48" height="48" viewBox="0 0 48 48" fill="none" xmlns="http://www.w3.org/2000/svg">
<g id="tree-structure-duotone">
<path id="Vector" opacity="0.2" d="M13.5 21V27C13.5 27.3978 13.342 27.7794 13.0607 28.0607C12.7794 28.342 12.3978 28.5 12 28.5H6C5.60218 28.5 5.22064 28.342 4.93934 28.0607C4.65804 27.7794 4.5 27.3978 4.5 27V21C4.5 20.6022 4.65804 20.2206 4.93934 19.9393C5.22064 19.658 5.60218 19.5 6 19.5H12C12.3978 19.5 12.7794 19.658 13.0607 19.9393C13.342 20.2206 13.5 20.6022 13.5 21ZM40.5 7.5H31.5C31.1022 7.5 30.7206 7.65804 30.4393 7.93934C30.158 8.22064 30 8.60218 30 9V18C30 18.3978 30.158 18.7794 30.4393 19.0607C30.7206 19.342 31.1022 19.5 31.5 19.5H40.5C40.8978 19.5 41.2794 19.342 41.5607 19.0607C41.842 18.7794 42 18.3978 42 18V9C42 8.60218 41.842 8.22064 41.5607 7.93934C41.2794 7.65804 40.8978 7.5 40.5 7.5ZM40.5 28.5H31.5C31.1022 28.5 30.7206 28.658 30.4393 28.9393C30.158 29.2206 30 29.6022 30 30V39C30 39.3978 30.158 39.7794 30.4393 40.0607C30.7206 40.342 31.1022 40.5 31.5 40.5H40.5C40.8978 40.5 41.2794 40.342 41.5607 40.0607C41.842 39.7794 42 39.3978 42 39V30C42 29.6022 41.842 29.2206 41.5607 28.9393C41.2794 28.658 40.8978 28.5 40.5 28.5Z" fill="url(#paint0_linear_1_1040)"/>
<path id="Vector_2" d="M31.5 21H40.5C41.2956 21 42.0587 20.6839 42.6213 20.1213C43.1839 19.5587 43.5 18.7956 43.5 18V9C43.5 8.20435 43.1839 7.44129 42.6213 6.87868C42.0587 6.31607 41.2956 6 40.5 6H31.5C30.7044 6 29.9413 6.31607 29.3787 6.87868C28.8161 7.44129 28.5 8.20435 28.5 9V12H27C25.4087 12 23.8826 12.6321 22.7574 13.7574C21.6321 14.8826 21 16.4087 21 18V22.5H15V21C15 20.2044 14.6839 19.4413 14.1213 18.8787C13.5587 18.3161 12.7956 18 12 18H6C5.20435 18 4.44129 18.3161 3.87868 18.8787C3.31607 19.4413 3 20.2044 3 21V27C3 27.7956 3.31607 28.5587 3.87868 29.1213C4.44129 29.6839 5.20435 30 6 30H12C12.7956 30 13.5587 29.6839 14.1213 29.1213C14.6839 28.5587 15 27.7956 15 27V25.5H21V30C21 31.5913 21.6321 33.1174 22.7574 34.2426C23.8826 35.3679 25.4087 36 27 36H28.5V39C28.5 39.7956 28.8161 40.5587 29.3787 41.1213C29.9413 41.6839 30.7044 42 31.5 42H40.5C41.2956 42 42.0587 41.6839 42.6213 41.1213C43.1839 40.5587 43.5 39.7956 43.5 39V30C43.5 29.2044 43.1839 28.4413 42.6213 27.8787C42.0587 27.3161 41.2956 27 40.5 27H31.5C30.7044 27 29.9413 27.3161 29.3787 27.8787C28.8161 28.4413 28.5 29.2044 28.5 30V33H27C26.2044 33 25.4413 32.6839 24.8787 32.1213C24.3161 31.5587 24 30.7956 24 30V18C24 17.2044 24.3161 16.4413 24.8787 15.8787C25.4413 15.3161 26.2044 15 27 15H28.5V18C28.5 18.7956 28.8161 19.5587 29.3787 20.1213C29.9413 20.6839 30.7044 21 31.5 21ZM12 27H6V21H12V27ZM31.5 30H40.5V39H31.5V30ZM31.5 9H40.5V18H31.5V9Z" fill="url(#paint1_linear_1_1040)"/>
</g>
<defs>
<linearGradient id="paint0_linear_1_1040" x1="23.25" y1="7.5" x2="23.25" y2="40.5" gradientUnits="userSpaceOnUse">
<stop stop-color="#3DFFB9"/>
<stop offset="1" stop-color="#24996F"/>
</linearGradient>
<linearGradient id="paint1_linear_1_1040" x1="23.25" y1="6" x2="23.25" y2="42" gradientUnits="userSpaceOnUse">
<stop stop-color="#3DFFB9"/>
<stop offset="1" stop-color="#24996F"/>
</linearGradient>
</defs>
</svg>
