<svg width="48" height="48" viewBox="0 0 48 48" fill="none" xmlns="http://www.w3.org/2000/svg">
<g id="eye-slash-duotone">
<path id="Vector" opacity="0.2" d="M24 10.5C9 10.5 3 24 3 24C3 24 9 37.5 24 37.5C39 37.5 45 24 45 24C45 24 39 10.5 24 10.5ZM24 31.5C22.5166 31.5 21.0666 31.0601 19.8332 30.236C18.5999 29.4119 17.6386 28.2406 17.0709 26.8701C16.5032 25.4997 16.3547 23.9917 16.6441 22.5368C16.9335 21.082 17.6478 19.7456 18.6967 18.6967C19.7456 17.6478 21.082 16.9335 22.5368 16.6441C23.9917 16.3547 25.4997 16.5032 26.8701 17.0709C28.2406 17.6386 29.4119 18.5999 30.236 19.8332C31.0601 21.0666 31.5 22.5166 31.5 24C31.5 25.9891 30.7098 27.8968 29.3033 29.3033C27.8968 30.7098 25.9891 31.5 24 31.5Z" fill="url(#paint0_linear_1_1060)"/>
<path id="Vector_2" d="M10.11 6.49089C9.97825 6.3424 9.81837 6.22153 9.63958 6.13529C9.4608 6.04905 9.26668 5.99916 9.06847 5.98849C8.87026 5.97783 8.6719 6.00661 8.4849 6.07317C8.2979 6.13974 8.12596 6.24275 7.97906 6.37625C7.83217 6.50975 7.71323 6.67107 7.62914 6.85088C7.54505 7.03068 7.49748 7.22539 7.48919 7.42371C7.48091 7.62203 7.51207 7.82003 7.58087 8.00622C7.64966 8.19242 7.75473 8.3631 7.88998 8.50839L11.4975 12.4778C4.68748 16.6571 1.75873 23.0996 1.62936 23.3921C1.54407 23.584 1.5 23.7916 1.5 24.0015C1.5 24.2115 1.54407 24.4191 1.62936 24.6109C1.69498 24.759 3.28311 28.2803 6.81373 31.8109C11.5181 36.5134 17.46 38.9996 24 38.9996C27.3611 39.0188 30.6883 38.3268 33.7631 36.969L37.8881 41.5084C38.0198 41.6569 38.1797 41.7777 38.3585 41.864C38.5373 41.9502 38.7314 42.0001 38.9296 42.0108C39.1278 42.0214 39.3262 41.9927 39.5132 41.9261C39.7002 41.8595 39.8721 41.7565 40.019 41.623C40.1659 41.4895 40.2849 41.3282 40.369 41.1484C40.453 40.9686 40.5006 40.7739 40.5089 40.5756C40.5172 40.3772 40.486 40.1792 40.4172 39.9931C40.3484 39.8069 40.2434 39.6362 40.1081 39.4909L10.11 6.49089ZM18.9844 20.7109L26.7975 29.3078C25.6209 29.9267 24.2721 30.1374 22.9628 29.9067C21.6535 29.676 20.4579 29.017 19.5638 28.0332C18.6696 27.0493 18.1275 25.7964 18.0227 24.471C17.9178 23.1457 18.2561 21.8231 18.9844 20.7109ZM24 35.9996C18.2287 35.9996 13.1869 33.9015 9.01311 29.7653C7.29995 28.0627 5.84289 26.1206 4.68748 23.9996C5.56686 22.3515 8.37373 17.739 13.5656 14.7409L16.9406 18.444C15.634 20.1175 14.961 22.199 15.0407 24.3206C15.1204 26.4422 15.9476 28.4674 17.376 30.0381C18.8045 31.6088 20.7423 32.624 22.8468 32.9041C24.9514 33.1843 27.0872 32.7114 28.8769 31.569L31.6387 34.6065C29.2012 35.5417 26.6107 36.0141 24 35.9996ZM25.125 18.1065C24.7341 18.0319 24.3889 17.8051 24.1653 17.476C23.9416 17.1469 23.8579 16.7424 23.9325 16.3515C24.0071 15.9606 24.2339 15.6154 24.563 15.3918C24.8921 15.1682 25.2966 15.0844 25.6875 15.159C27.5992 15.5296 29.34 16.5084 30.65 17.9492C31.9601 19.39 32.7693 21.2157 32.9569 23.154C32.9939 23.5501 32.8721 23.9447 32.6182 24.2509C32.3643 24.5572 31.9992 24.7501 31.6031 24.7871C31.5563 24.7899 31.5093 24.7899 31.4625 24.7871C31.0876 24.7887 30.7256 24.6499 30.448 24.3979C30.1704 24.146 29.9972 23.7992 29.9625 23.4259C29.8362 22.1366 29.2972 20.9225 28.4257 19.9642C27.5541 19.0058 26.3965 18.3543 25.125 18.1065ZM46.365 24.6109C46.2862 24.7871 44.3869 28.9928 40.11 32.8234C39.9638 32.9584 39.7923 33.0631 39.6053 33.1312C39.4184 33.1993 39.2197 33.2295 39.0209 33.2201C38.8222 33.2107 38.6273 33.1618 38.4476 33.0764C38.2679 32.9909 38.107 32.8705 37.9743 32.7222C37.8415 32.574 37.7397 32.4008 37.6745 32.2127C37.6094 32.0247 37.5823 31.8256 37.5949 31.627C37.6075 31.4284 37.6594 31.2343 37.7478 31.056C37.8361 30.8777 37.959 30.7187 38.1094 30.5884C40.2076 28.7033 41.9702 26.4753 43.3219 23.9996C42.1639 21.8767 40.7036 19.9333 38.9869 18.2303C34.8131 14.0978 29.7712 11.9996 24 11.9996C22.784 11.9982 21.5699 12.0966 20.37 12.294C20.1749 12.3285 19.9748 12.324 19.7815 12.2808C19.5881 12.2375 19.4052 12.1564 19.2433 12.0421C19.0815 11.9278 18.9439 11.7825 18.8385 11.6147C18.7331 11.4469 18.662 11.2599 18.6293 11.0644C18.5966 10.869 18.603 10.669 18.648 10.4761C18.693 10.2831 18.7759 10.101 18.8917 9.94018C19.0075 9.7794 19.154 9.64316 19.3228 9.53933C19.4916 9.4355 19.6793 9.36615 19.875 9.33526C21.2384 9.11014 22.6181 8.99788 24 8.99964C30.54 8.99964 36.4819 11.4859 41.1862 16.1903C44.7169 19.7209 46.305 23.244 46.3706 23.3921C46.4559 23.584 46.5 23.7916 46.5 24.0015C46.5 24.2115 46.4559 24.4191 46.3706 24.6109H46.365Z" fill="url(#paint1_linear_1_1060)"/>
</g>
<defs>
<linearGradient id="paint0_linear_1_1060" x1="24" y1="10.5" x2="24" y2="37.5" gradientUnits="userSpaceOnUse">
<stop stop-color="#3DFFB9"/>
<stop offset="1" stop-color="#24996F"/>
</linearGradient>
<linearGradient id="paint1_linear_1_1060" x1="24" y1="5.98633" x2="24" y2="42.0129" gradientUnits="userSpaceOnUse">
<stop stop-color="#3DFFB9"/>
<stop offset="1" stop-color="#24996F"/>
</linearGradient>
</defs>
</svg>
