<svg width="96" height="96" viewBox="0 0 96 96" fill="none" xmlns="http://www.w3.org/2000/svg">
<g id="Frame">
<path id="Vector" opacity="0.2" d="M30 54V69C30 70.5913 29.3679 72.1174 28.2426 73.2426C27.1174 74.3679 25.5913 75 24 75H18C16.4087 75 14.8826 74.3679 13.7574 73.2426C12.6321 72.1174 12 70.5913 12 69V48H24C25.5913 48 27.1174 48.6321 28.2426 49.7574C29.3679 50.8826 30 52.4087 30 54ZM72 48C70.4087 48 68.8826 48.6321 67.7574 49.7574C66.6321 50.8826 66 52.4087 66 54V69C66 70.5913 66.6321 72.1174 67.7574 73.2426C68.8826 74.3679 70.4087 75 72 75H84V48H72Z" fill="#28FFB2"/>
<path id="Vector_2" d="M75.7088 20.4976C70.2603 15.0173 63.3077 11.2778 55.7318 9.75282C48.156 8.22788 40.298 8.98621 33.1535 11.9317C26.0091 14.8772 19.8998 19.8773 15.5999 26.2983C11.3 32.7193 9.00302 40.2723 9 48.0001V69.0001C9 71.3871 9.94821 73.6762 11.636 75.3641C13.3239 77.0519 15.6131 78.0001 18 78.0001H24C26.3869 78.0001 28.6761 77.0519 30.364 75.3641C32.0518 73.6762 33 71.3871 33 69.0001V54.0001C33 51.6132 32.0518 49.324 30.364 47.6361C28.6761 45.9483 26.3869 45.0001 24 45.0001H15.135C15.7136 38.7449 18.0631 32.7841 21.9083 27.8165C25.7536 22.8489 30.9351 19.0802 36.8456 16.9522C42.7562 14.8242 49.1508 14.4251 55.2801 15.8015C61.4094 17.178 67.0194 20.273 71.4525 24.7239C76.8708 30.17 80.2037 37.3466 80.8688 45.0001H72C69.6131 45.0001 67.3239 45.9483 65.636 47.6361C63.9482 49.324 63 51.6132 63 54.0001V69.0001C63 71.3871 63.9482 73.6762 65.636 75.3641C67.3239 77.0519 69.6131 78.0001 72 78.0001H81C81 80.3871 80.0518 82.6762 78.364 84.3641C76.6761 86.0519 74.387 87.0001 72 87.0001H51C50.2044 87.0001 49.4413 87.3162 48.8787 87.8788C48.3161 88.4414 48 89.2045 48 90.0001C48 90.7958 48.3161 91.5588 48.8787 92.1214C49.4413 92.684 50.2044 93.0001 51 93.0001H72C75.9783 93.0001 79.7936 91.4198 82.6066 88.6067C85.4197 85.7937 87 81.9784 87 78.0001V48.0001C87.0195 42.8985 86.0322 37.8432 84.0947 33.1238C82.1571 28.4044 79.3074 24.1138 75.7088 20.4976ZM24 51.0001C24.7957 51.0001 25.5587 51.3162 26.1213 51.8788C26.6839 52.4414 27 53.2045 27 54.0001V69.0001C27 69.7958 26.6839 70.5588 26.1213 71.1214C25.5587 71.684 24.7957 72.0001 24 72.0001H18C17.2044 72.0001 16.4413 71.684 15.8787 71.1214C15.3161 70.5588 15 69.7958 15 69.0001V51.0001H24ZM72 72.0001C71.2044 72.0001 70.4413 71.684 69.8787 71.1214C69.3161 70.5588 69 69.7958 69 69.0001V54.0001C69 53.2045 69.3161 52.4414 69.8787 51.8788C70.4413 51.3162 71.2044 51.0001 72 51.0001H81V72.0001H72Z" fill="url(#paint0_linear_13_499)"/>
</g>
<defs>
<linearGradient id="paint0_linear_13_499" x1="48.0001" y1="8.98535" x2="48.0001" y2="93.0001" gradientUnits="userSpaceOnUse">
<stop stop-color="#3DFFB9"/>
<stop offset="1" stop-color="#24996F"/>
</linearGradient>
</defs>
</svg>
