<svg width="64" height="64" viewBox="0 0 64 64" fill="none" xmlns="http://www.w3.org/2000/svg">
<g id="Frame">
<path id="Vector" opacity="0.2" d="M34 27C34 29.5712 33.2376 32.0846 31.8091 34.2224C30.3807 36.3603 28.3503 38.0265 25.9749 39.0104C23.5995 39.9944 20.9856 40.2518 18.4638 39.7502C15.9421 39.2486 13.6257 38.0105 11.8076 36.1924C9.98953 34.3743 8.75141 32.0579 8.2498 29.5362C7.74819 27.0144 8.00563 24.4006 8.98957 22.0251C9.97351 19.6497 11.6398 17.6194 13.7776 16.1909C15.9154 14.7624 18.4288 14 21 14C24.4478 14 27.7544 15.3696 30.1924 17.8076C32.6304 20.2456 34 23.5522 34 27Z" fill="url(#paint0_linear_13_354)"/>
<path id="Vector_2" d="M29.3126 39.4802C31.9931 37.6957 34.0282 35.0959 35.1169 32.0654C36.2056 29.0348 36.2901 25.7343 35.3579 22.652C34.4257 19.5697 32.5264 16.8692 29.9407 14.9498C27.355 13.0304 24.2203 11.9941 21.0001 11.9941C17.7799 11.9941 14.6452 13.0304 12.0596 14.9498C9.47388 16.8692 7.57452 19.5697 6.64235 22.652C5.71018 25.7343 5.79468 29.0348 6.88337 32.0654C7.97205 35.0959 10.0071 37.6957 12.6876 39.4802C7.83885 41.2673 3.69789 44.5743 0.882624 48.9077C0.734663 49.1276 0.63189 49.3748 0.580277 49.6347C0.528664 49.8947 0.529242 50.1624 0.581977 50.4221C0.634712 50.6819 0.738552 50.9285 0.887461 51.1478C1.03637 51.3671 1.22738 51.5546 1.44938 51.6994C1.67138 51.8442 1.91995 51.9434 2.18064 51.9913C2.44133 52.0392 2.70894 52.0348 2.96791 51.9783C3.22689 51.9219 3.47205 51.8145 3.68917 51.6625C3.90629 51.5105 4.09102 51.3168 4.23262 51.0927C6.0486 48.2997 8.53352 46.0045 11.4617 44.4157C14.3899 42.8268 17.6686 41.9946 21.0001 41.9946C24.3316 41.9946 27.6103 42.8268 30.5385 44.4157C33.4667 46.0045 35.9517 48.2997 37.7676 51.0927C38.061 51.5287 38.5141 51.8317 39.0291 51.9363C39.544 52.0408 40.0795 51.9385 40.5196 51.6514C40.9597 51.3644 41.2692 50.9156 41.3811 50.4022C41.493 49.8888 41.3984 49.3519 41.1176 48.9077C38.3024 44.5743 34.1614 41.2673 29.3126 39.4802ZM10.0001 27.0002C10.0001 24.8246 10.6453 22.6979 11.854 20.889C13.0627 19.08 14.7806 17.6701 16.7906 16.8376C18.8006 16.005 21.0123 15.7872 23.1461 16.2116C25.2799 16.636 27.2399 17.6837 28.7783 19.2221C30.3167 20.7604 31.3643 22.7204 31.7888 24.8542C32.2132 26.988 31.9954 29.1998 31.1628 31.2097C30.3302 33.2197 28.9203 34.9377 27.1114 36.1464C25.3025 37.3551 23.1757 38.0002 21.0001 38.0002C18.0838 37.9969 15.2878 36.8369 13.2256 34.7747C11.1634 32.7126 10.0034 29.9166 10.0001 27.0002ZM62.5351 51.6752C62.0909 51.9649 61.5497 52.0663 61.0308 51.9571C60.5118 51.8478 60.0574 51.5369 59.7676 51.0927C57.9538 48.298 55.4692 46.0019 52.5404 44.4137C49.6116 42.8255 46.3318 41.9958 43.0001 42.0002C42.4697 42.0002 41.961 41.7895 41.5859 41.4144C41.2108 41.0394 41.0001 40.5307 41.0001 40.0002C41.0001 39.4698 41.2108 38.9611 41.5859 38.586C41.961 38.2109 42.4697 38.0002 43.0001 38.0002C44.62 37.9987 46.2196 37.6394 47.6846 36.948C49.1496 36.2566 50.4438 35.2502 51.4747 34.0007C52.5056 32.7511 53.2478 31.2893 53.6483 29.7197C54.0488 28.15 54.0976 26.5113 53.7914 24.9206C53.4851 23.3299 52.8313 21.8265 51.8767 20.5177C50.922 19.209 49.6901 18.1272 48.2689 17.3498C46.8477 16.5724 45.2724 16.1184 43.6554 16.0204C42.0385 15.9224 40.4198 16.1827 38.9151 16.7827C38.6698 16.8888 38.4057 16.9446 38.1384 16.9468C37.8712 16.9491 37.6061 16.8978 37.3591 16.7959C37.112 16.694 36.8878 16.5436 36.6998 16.3536C36.5118 16.1636 36.3638 15.9379 36.2646 15.6897C36.1653 15.4415 36.1168 15.176 36.1219 14.9088C36.127 14.6415 36.1856 14.3781 36.2942 14.1339C36.4029 13.8897 36.5594 13.6697 36.7545 13.487C36.9496 13.3044 37.1793 13.1626 37.4301 13.0702C40.8738 11.6969 44.704 11.6474 48.182 12.9315C51.6599 14.2156 54.5391 16.7421 56.2641 20.0238C57.9891 23.3054 58.4377 27.1096 57.5234 30.7025C56.609 34.2954 54.3965 37.4224 51.3126 39.4802C56.1614 41.2673 60.3024 44.5743 63.1176 48.9077C63.4073 49.352 63.5087 49.8931 63.3995 50.4121C63.2902 50.9311 62.9793 51.3854 62.5351 51.6752Z" fill="url(#paint1_linear_13_354)"/>
</g>
<defs>
<linearGradient id="paint0_linear_13_354" x1="21" y1="14" x2="21" y2="40" gradientUnits="userSpaceOnUse">
<stop stop-color="#3DFFB9"/>
<stop offset="1" stop-color="#24996F"/>
</linearGradient>
<linearGradient id="paint1_linear_13_354" x1="31.9922" y1="11.9941" x2="31.9922" y2="52.0242" gradientUnits="userSpaceOnUse">
<stop stop-color="#3DFFB9"/>
<stop offset="1" stop-color="#24996F"/>
</linearGradient>
</defs>
</svg>
