<svg width="80" height="80" viewBox="0 0 80 80" fill="none" xmlns="http://www.w3.org/2000/svg">
<path opacity="0.2" d="M50 40C50 41.9778 49.4135 43.9112 48.3147 45.5557C47.2159 47.2002 45.6541 48.4819 43.8268 49.2388C41.9996 49.9957 39.9889 50.1937 38.0491 49.8079C36.1093 49.422 34.3275 48.4696 32.9289 47.0711C31.5304 45.6725 30.578 43.8907 30.1921 41.9509C29.8063 40.0111 30.0043 38.0004 30.7612 36.1732C31.5181 34.3459 32.7998 32.7841 34.4443 31.6853C36.0888 30.5865 38.0222 30 40 30C42.6522 30 45.1957 31.0536 47.0711 32.9289C48.9464 34.8043 50 37.3478 50 40ZM62.5 20C63.0293 23.1229 64.5169 26.0038 66.7565 28.2435C68.9962 30.4831 71.8771 31.9707 75 32.5V20H62.5ZM62.5 60H75V47.5C71.8771 48.0293 68.9962 49.5169 66.7565 51.7565C64.5169 53.9962 63.0293 56.8771 62.5 60ZM5 47.5V60H17.5C16.9707 56.8771 15.4831 53.9962 13.2435 51.7565C11.0038 49.5169 8.12286 48.0293 5 47.5ZM5 32.5C8.12286 31.9707 11.0038 30.4831 13.2435 28.2435C15.4831 26.0038 16.9707 23.1229 17.5 20H5V32.5Z" fill="url(#paint0_linear_13_1847)"/>
<path d="M40 27.5C37.5277 27.5 35.111 28.2331 33.0554 29.6066C30.9998 30.9801 29.3976 32.9324 28.4515 35.2165C27.5054 37.5005 27.2579 40.0139 27.7402 42.4386C28.2225 44.8634 29.413 47.0907 31.1612 48.8388C32.9093 50.587 35.1366 51.7775 37.5614 52.2598C39.9861 52.7421 42.4995 52.4946 44.7835 51.5485C47.0676 50.6024 49.0199 49.0002 50.3934 46.9446C51.7669 44.889 52.5 42.4723 52.5 40C52.5 36.6848 51.183 33.5054 48.8388 31.1612C46.4946 28.817 43.3152 27.5 40 27.5ZM40 47.5C38.5166 47.5 37.0666 47.0601 35.8332 46.236C34.5999 45.4119 33.6386 44.2406 33.0709 42.8701C32.5032 41.4997 32.3547 39.9917 32.6441 38.5368C32.9335 37.082 33.6478 35.7456 34.6967 34.6967C35.7456 33.6478 37.082 32.9335 38.5368 32.6441C39.9917 32.3547 41.4997 32.5032 42.8701 33.0709C44.2406 33.6386 45.4119 34.5999 46.236 35.8332C47.0601 37.0666 47.5 38.5166 47.5 40C47.5 41.9891 46.7098 43.8968 45.3033 45.3033C43.8968 46.7098 41.9891 47.5 40 47.5ZM75 17.5H5C4.33696 17.5 3.70107 17.7634 3.23223 18.2322C2.76339 18.7011 2.5 19.337 2.5 20V60C2.5 60.663 2.76339 61.2989 3.23223 61.7678C3.70107 62.2366 4.33696 62.5 5 62.5H75C75.663 62.5 76.2989 62.2366 76.7678 61.7678C77.2366 61.2989 77.5 60.663 77.5 60V20C77.5 19.337 77.2366 18.7011 76.7678 18.2322C76.2989 17.7634 75.663 17.5 75 17.5ZM7.5 22.5H14.1781C12.8887 25.4986 10.4986 27.8887 7.5 29.1781V22.5ZM7.5 57.5V50.8219C10.4986 52.1113 12.8887 54.5014 14.1781 57.5H7.5ZM72.5 57.5H65.8219C67.1113 54.5014 69.5014 52.1113 72.5 50.8219V57.5ZM72.5 45.5156C69.6613 46.355 67.0776 47.8912 64.9844 49.9844C62.8912 52.0776 61.355 54.6613 60.5156 57.5H19.4844C18.645 54.6613 17.1088 52.0776 15.0156 49.9844C12.9224 47.8912 10.3387 46.355 7.5 45.5156V34.4844C10.3387 33.645 12.9224 32.1088 15.0156 30.0156C17.1088 27.9224 18.645 25.3387 19.4844 22.5H60.5156C61.355 25.3387 62.8912 27.9224 64.9844 30.0156C67.0776 32.1088 69.6613 33.645 72.5 34.4844V45.5156ZM72.5 29.1781C69.5014 27.8887 67.1113 25.4986 65.8219 22.5H72.5V29.1781Z" fill="url(#paint1_linear_13_1847)"/>
<defs>
<linearGradient id="paint0_linear_13_1847" x1="40" y1="20" x2="40" y2="60" gradientUnits="userSpaceOnUse">
<stop stop-color="#3DFFB9"/>
<stop offset="1" stop-color="#24996F"/>
</linearGradient>
<linearGradient id="paint1_linear_13_1847" x1="40" y1="17.5" x2="40" y2="62.5" gradientUnits="userSpaceOnUse">
<stop stop-color="#3DFFB9"/>
<stop offset="1" stop-color="#24996F"/>
</linearGradient>
</defs>
</svg>
