<svg width="80" height="80" viewBox="0 0 80 80" fill="none" xmlns="http://www.w3.org/2000/svg">
<path opacity="0.2" d="M75 41.25C75 47.4625 63.8063 52.5 50 52.5C43.875 52.5 38.2625 51.5094 33.9156 49.8625C45.8625 49.0156 55 44.375 55 38.75V30.225C66.4125 31.2688 75 35.8062 75 41.25ZM55 26.25C55 20.0375 43.8063 15 30 15C16.1938 15 5 20.0375 5 26.25C5 32.4625 16.1938 37.5 30 37.5C43.8063 37.5 55 32.4625 55 26.25Z" fill="url(#paint0_linear_13_1844)"/>
<path d="M57.5 27.9906V26.25C57.5 18.4125 45.6781 12.5 30 12.5C14.3219 12.5 2.5 18.4125 2.5 26.25V38.75C2.5 45.2781 10.7031 50.4656 22.5 52.0188V53.75C22.5 61.5875 34.3219 67.5 50 67.5C65.6781 67.5 77.5 61.5875 77.5 53.75V41.25C77.5 34.7812 69.5563 29.5875 57.5 27.9906ZM72.5 41.25C72.5 45.3812 62.8781 50 50 50C48.8344 50 47.6781 49.9594 46.5375 49.8844C53.2781 47.4281 57.5 43.4375 57.5 38.75V33.0437C66.8344 34.4344 72.5 38.2094 72.5 41.25ZM22.5 46.9531V39.5187C24.9868 39.8428 27.4922 40.0035 30 40C32.5078 40.0035 35.0132 39.8428 37.5 39.5187V46.9531C35.0169 47.32 32.5101 47.5027 30 47.5C27.4899 47.5027 24.9831 47.32 22.5 46.9531ZM52.5 34.3531V38.75C52.5 41.3719 48.6219 44.1875 42.5 45.8969V38.5938C46.5344 37.6156 49.95 36.1594 52.5 34.3531ZM30 17.5C42.8781 17.5 52.5 22.1187 52.5 26.25C52.5 30.3813 42.8781 35 30 35C17.1219 35 7.5 30.3813 7.5 26.25C7.5 22.1187 17.1219 17.5 30 17.5ZM7.5 38.75V34.3531C10.05 36.1594 13.4656 37.6156 17.5 38.5938V45.8969C11.3781 44.1875 7.5 41.3719 7.5 38.75ZM27.5 53.75V52.4469C28.3219 52.4781 29.1531 52.5 30 52.5C31.2125 52.5 32.3969 52.4594 33.5594 52.3906C34.8508 52.8529 36.1663 53.2452 37.5 53.5656V60.8969C31.3781 59.1875 27.5 56.3719 27.5 53.75ZM42.5 61.9531V54.5C44.986 54.8342 47.4916 55.0012 50 55C52.5078 55.0035 55.0132 54.8428 57.5 54.5188V61.9531C52.5266 62.6823 47.4734 62.6823 42.5 61.9531ZM62.5 60.8969V53.5938C66.5344 52.6156 69.95 51.1594 72.5 49.3531V53.75C72.5 56.3719 68.6219 59.1875 62.5 60.8969Z" fill="url(#paint1_linear_13_1844)"/>
<defs>
<linearGradient id="paint0_linear_13_1844" x1="40" y1="15" x2="40" y2="52.5" gradientUnits="userSpaceOnUse">
<stop stop-color="#3DFFB9"/>
<stop offset="1" stop-color="#24996F"/>
</linearGradient>
<linearGradient id="paint1_linear_13_1844" x1="40" y1="12.5" x2="40" y2="67.5" gradientUnits="userSpaceOnUse">
<stop stop-color="#3DFFB9"/>
<stop offset="1" stop-color="#24996F"/>
</linearGradient>
</defs>
</svg>
