<svg width="48" height="48" viewBox="0 0 48 48" fill="none" xmlns="http://www.w3.org/2000/svg">
<path opacity="0.2" d="M25.5 20.25C25.5 22.1784 24.9282 24.0634 23.8568 25.6668C22.7855 27.2702 21.2627 28.5199 19.4812 29.2578C17.6996 29.9958 15.7392 30.1889 13.8479 29.8127C11.9566 29.4365 10.2193 28.5079 8.85571 27.1443C7.49215 25.7807 6.56355 24.0434 6.18735 22.1521C5.81114 20.2608 6.00422 18.3004 6.74218 16.5188C7.48013 14.7373 8.72982 13.2145 10.3332 12.1432C11.9366 11.0718 13.8216 10.5 15.75 10.5C18.3359 10.5 20.8158 11.5272 22.6443 13.3557C24.4728 15.1842 25.5 17.6641 25.5 20.25Z" fill="url(#paint0_linear_1_368)"/>
<path d="M21.9842 29.6107C23.9946 28.2723 25.5209 26.3224 26.3374 24.0495C27.1539 21.7766 27.2173 19.3012 26.5182 16.9895C25.819 14.6777 24.3945 12.6524 22.4553 11.2128C20.516 9.77332 18.165 8.99609 15.7498 8.99609C13.3347 8.99609 10.9837 9.77332 9.04442 11.2128C7.10517 12.6524 5.68065 14.6777 4.98152 16.9895C4.28239 19.3012 4.34577 21.7766 5.16228 24.0495C5.9788 26.3224 7.5051 28.2723 9.51547 29.6107C5.8789 30.951 2.77317 33.4312 0.661724 36.6813C0.550753 36.8462 0.473673 37.0316 0.434964 37.2265C0.396254 37.4215 0.396688 37.6223 0.436239 37.8171C0.47579 38.0119 0.55367 38.1969 0.665351 38.3613C0.777033 38.5258 0.920289 38.6664 1.08679 38.775C1.25329 38.8836 1.43972 38.958 1.63524 38.9939C1.83076 39.0299 2.03146 39.0266 2.22569 38.9842C2.41992 38.9419 2.6038 38.8614 2.76663 38.7474C2.92947 38.6333 3.06802 38.4881 3.17422 38.32C4.5362 36.2253 6.39989 34.5039 8.59604 33.3122C10.7922 32.1206 13.2512 31.4964 15.7498 31.4964C18.2485 31.4964 20.7075 32.1206 22.9037 33.3122C25.0998 34.5039 26.9635 36.2253 28.3255 38.32C28.5455 38.647 28.8853 38.8743 29.2716 38.9527C29.6578 39.0311 30.0594 38.9544 30.3895 38.7391C30.7196 38.5238 30.9517 38.1872 31.0356 37.8021C31.1195 37.4171 31.0485 37.0144 30.838 36.6813C28.7265 33.4312 25.6208 30.951 21.9842 29.6107ZM7.49985 20.2507C7.49985 18.619 7.9837 17.0239 8.89022 15.6672C9.79675 14.3105 11.0852 13.2531 12.5927 12.6287C14.1002 12.0042 15.759 11.8409 17.3593 12.1592C18.9597 12.4775 20.4297 13.2632 21.5835 14.417C22.7373 15.5708 23.523 17.0408 23.8413 18.6412C24.1597 20.2415 23.9963 21.9003 23.3719 23.4078C22.7474 24.9153 21.69 26.2038 20.3333 27.1103C18.9766 28.0168 17.3815 28.5007 15.7498 28.5007C13.5626 28.4982 11.4656 27.6282 9.91896 26.0815C8.37232 24.5349 7.50233 22.4379 7.49985 20.2507ZM46.9011 38.7569C46.5679 38.9742 46.1621 39.0502 45.7728 38.9683C45.3836 38.8864 45.0428 38.6532 44.8255 38.32C43.4651 36.224 41.6017 34.5019 39.4051 33.3107C37.2085 32.1196 34.7486 31.4973 32.2499 31.5007C31.852 31.5007 31.4705 31.3426 31.1892 31.0613C30.9079 30.78 30.7499 30.3985 30.7499 30.0007C30.7499 29.6028 30.9079 29.2213 31.1892 28.94C31.4705 28.6587 31.852 28.5007 32.2499 28.5007C33.4648 28.4995 34.6645 28.23 35.7632 27.7115C36.8619 27.193 37.8326 26.4381 38.6058 25.501C39.379 24.5638 39.9356 23.4675 40.236 22.2902C40.5363 21.113 40.573 19.884 40.3433 18.6909C40.1136 17.4979 39.6232 16.3703 38.9072 15.3888C38.1913 14.4072 37.2673 13.5959 36.2014 13.0128C35.1355 12.4298 33.954 12.0893 32.7413 12.0158C31.5286 11.9423 30.3146 12.1375 29.1861 12.5875C29.0021 12.6671 28.804 12.7089 28.6036 12.7106C28.4031 12.7123 28.2044 12.6738 28.019 12.5974C27.8337 12.521 27.6656 12.4082 27.5246 12.2657C27.3836 12.1232 27.2726 11.9539 27.1982 11.7678C27.1237 11.5816 27.0873 11.3825 27.0912 11.1821C27.095 10.9816 27.1389 10.784 27.2204 10.6009C27.3019 10.4177 27.4193 10.2528 27.5656 10.1158C27.712 9.97875 27.8843 9.87246 28.0723 9.80316C30.6551 8.77313 33.5278 8.73606 36.1362 9.69911C38.7447 10.6622 40.9041 12.5571 42.1978 15.0183C43.4916 17.4796 43.8281 20.3327 43.1423 23.0274C42.4565 25.722 40.7971 28.0673 38.4842 29.6107C42.1208 30.951 45.2265 33.4312 47.338 36.6813C47.5552 37.0145 47.6313 37.4203 47.5494 37.8096C47.4674 38.1988 47.2342 38.5396 46.9011 38.7569Z" fill="url(#paint1_linear_1_368)"/>
<defs>
<linearGradient id="paint0_linear_1_368" x1="15.75" y1="10.5" x2="15.75" y2="30" gradientUnits="userSpaceOnUse">
<stop stop-color="#3DFFB9"/>
<stop offset="1" stop-color="#24996F"/>
</linearGradient>
<linearGradient id="paint1_linear_1_368" x1="23.9939" y1="8.99609" x2="23.9939" y2="39.0186" gradientUnits="userSpaceOnUse">
<stop stop-color="#3DFFB9"/>
<stop offset="1" stop-color="#24996F"/>
</linearGradient>
</defs>
</svg>
