<svg width="48" height="48" viewBox="0 0 48 48" fill="none" xmlns="http://www.w3.org/2000/svg">
<path opacity="0.2" d="M36 31.5V12H16.5L36 31.5Z" fill="url(#paint0_linear_1_6651)"/>
<path d="M36.5746 32.8858C36.3005 32.9995 35.9989 33.0293 35.7079 32.9716C35.4168 32.9139 35.1495 32.7711 34.9396 32.5614L26.2508 23.8708L13.0621 37.0614C12.7806 37.3429 12.3989 37.501 12.0008 37.501C11.6028 37.501 11.221 37.3429 10.9396 37.0614C10.6581 36.7799 10.5 36.3982 10.5 36.0001C10.5 35.6021 10.6581 35.2204 10.9396 34.9389L24.1302 21.7501L15.4396 13.0614C15.2296 12.8516 15.0865 12.5842 15.0285 12.2931C14.9706 12.002 15.0003 11.7002 15.1139 11.426C15.2275 11.1517 15.42 10.9174 15.6669 10.7526C15.9138 10.5878 16.204 10.4999 16.5008 10.5001H36.0008C36.3987 10.5001 36.7802 10.6582 37.0615 10.9395C37.3428 11.2208 37.5008 11.6023 37.5008 12.0001V31.5001C37.5008 31.7968 37.4127 32.0868 37.2479 32.3334C37.083 32.5801 36.8487 32.7723 36.5746 32.8858ZM34.5008 13.5001H20.1215L27.3102 20.6889L34.5008 27.8795V13.5001Z" fill="url(#paint1_linear_1_6651)"/>
<defs>
<linearGradient id="paint0_linear_1_6651" x1="26.25" y1="31.5" x2="26.25" y2="12" gradientUnits="userSpaceOnUse">
<stop stop-color="#3DFFB9"/>
<stop offset="1" stop-color="#24996F"/>
</linearGradient>
<linearGradient id="paint1_linear_1_6651" x1="24.0004" y1="37.501" x2="24.0004" y2="10.5001" gradientUnits="userSpaceOnUse">
<stop stop-color="#3DFFB9"/>
<stop offset="1" stop-color="#24996F"/>
</linearGradient>
</defs>
</svg>
