<svg width="80" height="80" viewBox="0 0 80 80" fill="none" xmlns="http://www.w3.org/2000/svg">
<g id="Frame">
<path id="Vector" opacity="0.2" d="M71.9059 33.9875L61.9528 28.3188C61.7528 27.9563 61.5434 27.6031 61.3278 27.2531L61.2903 16.0031C58.1447 13.3485 54.5261 11.3117 50.6247 10L40.6247 15.5906C40.2059 15.5906 39.784 15.5906 39.3747 15.5906L29.3747 10C25.4744 11.316 21.8579 13.357 18.7153 16.0156L18.6653 27.2656C18.4465 27.6156 18.2372 27.9719 18.0403 28.3313L8.09029 33.9875C7.30584 37.9554 7.30584 42.0384 8.09029 46.0062L18.0434 51.675C18.2434 52.0375 18.4528 52.3906 18.6684 52.7406L18.7059 63.9906C21.8519 66.6478 25.4717 68.6867 29.3747 70L39.3747 64.4156C39.7934 64.4156 40.2153 64.4156 40.6247 64.4156L50.6247 70C54.5216 68.6829 58.1349 66.642 61.2747 63.9844L61.3247 52.7344C61.5434 52.3844 61.7528 52.0281 61.9497 51.6687L71.8997 46.0125C72.687 42.043 72.6891 37.9578 71.9059 33.9875ZM39.9997 52.5C37.5274 52.5 35.1107 51.7669 33.055 50.3934C30.9994 49.0199 29.3973 47.0676 28.4512 44.7835C27.5051 42.4995 27.2575 39.9861 27.7399 37.5614C28.2222 35.1366 29.4127 32.9093 31.1608 31.1612C32.909 29.413 35.1363 28.2225 37.561 27.7402C39.9858 27.2579 42.4991 27.5054 44.7832 28.4515C47.0673 29.3976 49.0195 30.9998 50.393 33.0554C51.7666 35.111 52.4997 37.5277 52.4997 40C52.4997 43.3152 51.1827 46.4946 48.8385 48.8388C46.4943 51.183 43.3149 52.5 39.9997 52.5Z" fill="url(#paint0_linear_13_677)"/>
<path id="Vector_2" d="M39.9996 25.0001C37.0329 25.0001 34.1328 25.8798 31.6661 27.5281C29.1993 29.1763 27.2767 31.519 26.1414 34.2599C25.0061 37.0007 24.7091 40.0167 25.2878 42.9265C25.8666 45.8362 27.2952 48.5089 29.393 50.6067C31.4908 52.7045 34.1635 54.1331 37.0733 54.7119C39.983 55.2907 42.999 54.9936 45.7399 53.8583C48.4808 52.723 50.8234 50.8004 52.4717 48.3337C54.1199 45.8669 54.9996 42.9668 54.9996 40.0001C54.9955 36.0231 53.4138 32.2102 50.6017 29.3981C47.7895 26.5859 43.9766 25.0042 39.9996 25.0001ZM39.9996 50.0001C38.0218 50.0001 36.0884 49.4136 34.4439 48.3148C32.7994 47.216 31.5177 45.6542 30.7608 43.8269C30.0039 41.9997 29.8059 39.989 30.1918 38.0492C30.5776 36.1094 31.53 34.3276 32.9285 32.929C34.3271 31.5305 36.1089 30.5781 38.0487 30.1922C39.9885 29.8064 41.9992 30.0044 43.8265 30.7613C45.6537 31.5182 47.2155 32.7999 48.3143 34.4444C49.4131 36.0889 49.9996 38.0223 49.9996 40.0001C49.9996 42.6523 48.946 45.1958 47.0707 47.0712C45.1953 48.9465 42.6518 50.0001 39.9996 50.0001ZM74.3559 33.5032C74.2862 33.1512 74.1416 32.8183 73.9319 32.5271C73.7221 32.2359 73.4521 31.9933 73.1402 31.8157L63.8184 26.5032L63.7809 15.997C63.7797 15.6351 63.7001 15.2779 63.5474 14.9498C63.3947 14.6218 63.1726 14.3308 62.8965 14.097C59.515 11.2367 55.621 9.04468 51.4215 7.6376C51.0908 7.52567 50.7403 7.48424 50.3926 7.516C50.0449 7.54775 49.7077 7.65198 49.4027 7.82198L39.9996 13.0782L30.5871 7.8126C30.282 7.64165 29.9443 7.53663 29.5961 7.50433C29.2478 7.47204 28.8966 7.51318 28.5652 7.6251C24.3683 9.04122 20.4785 11.2417 17.1027 14.1095C16.827 14.343 16.6052 14.6335 16.4525 14.9609C16.2998 15.2884 16.22 15.645 16.2184 16.0064L16.1715 26.522L6.84962 31.8345C6.53775 32.012 6.26776 32.2546 6.058 32.5458C5.84824 32.837 5.70363 33.1699 5.63399 33.522C4.78086 37.8091 4.78086 42.2223 5.63399 46.5095C5.70363 46.8615 5.84824 47.1945 6.058 47.4856C6.26776 47.7768 6.53775 48.0194 6.84962 48.197L16.1715 53.5095L16.209 64.0189C16.2101 64.3807 16.2898 64.738 16.4425 65.066C16.5952 65.394 16.8172 65.685 17.0934 65.9189C20.4748 68.7792 24.3689 70.9711 28.5684 72.3782C28.8991 72.4902 29.2496 72.5316 29.5973 72.4998C29.945 72.4681 30.2822 72.3639 30.5871 72.1939L39.9996 66.922L49.4121 72.1876C49.7846 72.3951 50.2045 72.5028 50.6309 72.5001C50.9039 72.5 51.1751 72.4557 51.434 72.3689C55.6299 70.9534 59.5195 68.7552 62.8965 65.8907C63.1722 65.6572 63.3941 65.3668 63.5467 65.0393C63.6994 64.7118 63.7793 64.3552 63.7809 63.9939L63.8277 53.4782L73.1496 48.1657C73.4615 47.9882 73.7315 47.7456 73.9412 47.4544C74.151 47.1632 74.2956 46.8303 74.3652 46.4782C75.2136 42.1945 75.2104 37.7857 74.3559 33.5032ZM69.6684 44.4126L60.7402 49.4907C60.3491 49.7132 60.0252 50.037 59.8027 50.4282C59.6215 50.7407 59.4309 51.072 59.2371 51.3845C58.9891 51.7786 58.857 52.2345 58.8559 52.7001L58.809 62.7782C56.4092 64.6628 53.7357 66.1697 50.8809 67.247L41.8746 62.2282C41.5007 62.0214 41.08 61.9138 40.6527 61.9157H40.5934C40.2152 61.9157 39.834 61.9157 39.4559 61.9157C39.0087 61.9049 38.5666 62.0127 38.1746 62.2282L29.1621 67.2595C26.3012 66.1905 23.6203 64.6909 21.2121 62.8126L21.1777 52.7501C21.1762 52.2836 21.0441 51.8268 20.7965 51.4314C20.6027 51.1189 20.4121 50.8064 20.234 50.4751C20.0131 50.0779 19.6893 49.7475 19.2965 49.5189L10.359 44.4282C9.89649 41.5026 9.89649 38.5226 10.359 35.597L19.2715 30.5095C19.6627 30.287 19.9866 29.9632 20.209 29.572C20.3902 29.2595 20.5809 28.9282 20.7746 28.6157C21.0226 28.2216 21.1547 27.7657 21.1559 27.3001L21.2027 17.222C23.6025 15.3374 26.2761 13.8305 29.1309 12.7532L38.1246 17.772C38.516 17.9889 38.9585 18.0969 39.4059 18.0845C39.784 18.0845 40.1652 18.0845 40.5434 18.0845C40.9907 18.0969 41.4332 17.9889 41.8246 17.772L50.8371 12.7407C53.698 13.8097 56.3789 15.3093 58.7871 17.1876L58.8215 27.2501C58.823 27.7166 58.9551 28.1735 59.2027 28.5689C59.3965 28.8814 59.5871 29.1939 59.7652 29.5251C59.9861 29.9223 60.31 30.2527 60.7027 30.4814L69.6402 35.572C70.1089 38.4998 70.1142 41.4831 69.6559 44.4126H69.6684Z" fill="url(#paint1_linear_13_677)"/>
</g>
<defs>
<linearGradient id="paint0_linear_13_677" x1="39.9969" y1="10" x2="39.9969" y2="70" gradientUnits="userSpaceOnUse">
<stop stop-color="#3DFFB9"/>
<stop offset="1" stop-color="#24996F"/>
</linearGradient>
<linearGradient id="paint1_linear_13_677" x1="39.9967" y1="7.49365" x2="39.9967" y2="72.5102" gradientUnits="userSpaceOnUse">
<stop stop-color="#3DFFB9"/>
<stop offset="1" stop-color="#24996F"/>
</linearGradient>
</defs>
</svg>
