<svg width="96" height="96" viewBox="0 0 96 96" fill="none" xmlns="http://www.w3.org/2000/svg">
<g id="Frame">
<path id="Vector" opacity="0.2" d="M81 51C81 57.5268 79.0646 63.907 75.4385 69.3338C71.8124 74.7606 66.6585 78.9903 60.6286 81.488C54.5986 83.9857 47.9634 84.6392 41.562 83.3659C35.1607 82.0926 29.2806 78.9497 24.6655 74.3345C20.0504 69.7194 16.9074 63.8394 15.6341 57.438C14.3608 51.0366 15.0143 44.4014 17.512 38.3714C20.0097 32.3415 24.2394 27.1876 29.6662 23.5615C35.093 19.9354 41.4732 18 48 18C56.7522 18 65.1458 21.4768 71.3345 27.6655C77.5232 33.8542 81 42.2479 81 51Z" fill="url(#paint0_linear_13_493)"/>
<path id="Vector_2" d="M48 15C40.8799 15 33.9197 17.1114 27.9995 21.0671C22.0793 25.0228 17.4651 30.6453 14.7404 37.2234C12.0156 43.8015 11.3027 51.0399 12.6917 58.0233C14.0808 65.0066 17.5095 71.4212 22.5442 76.4558C27.5789 81.4905 33.9935 84.9192 40.9768 86.3083C47.9601 87.6973 55.1985 86.9844 61.7766 84.2597C68.3548 81.5349 73.9772 76.9207 77.9329 71.0005C81.8886 65.0804 84 58.1201 84 51C83.9891 41.4556 80.1927 32.3052 73.4438 25.5562C66.6949 18.8073 57.5445 15.0109 48 15ZM48 81C42.0666 81 36.2664 79.2405 31.3329 75.9441C26.3994 72.6477 22.5543 67.9623 20.2836 62.4805C18.013 56.9987 17.4189 50.9667 18.5765 45.1473C19.734 39.3279 22.5912 33.9824 26.7868 29.7868C30.9824 25.5912 36.3279 22.734 42.1473 21.5764C47.9667 20.4189 53.9987 21.013 59.4805 23.2836C64.9623 25.5542 69.6477 29.3994 72.9441 34.3329C76.2405 39.2664 78 45.0666 78 51C77.9911 58.9538 74.8275 66.5792 69.2034 72.2033C63.5792 77.8275 55.9538 80.9911 48 81ZM65.1225 33.8775C65.4014 34.1561 65.6227 34.487 65.7737 34.8512C65.9247 35.2154 66.0024 35.6058 66.0024 36C66.0024 36.3942 65.9247 36.7846 65.7737 37.1488C65.6227 37.513 65.4014 37.8439 65.1225 38.1225L50.1225 53.1225C49.8438 53.4012 49.5129 53.6223 49.1487 53.7732C48.7845 53.924 48.3942 54.0017 48 54.0017C47.6058 54.0017 47.2155 53.924 46.8513 53.7732C46.4871 53.6223 46.1562 53.4012 45.8775 53.1225C45.5988 52.8438 45.3777 52.5129 45.2268 52.1487C45.076 51.7845 44.9983 51.3942 44.9983 51C44.9983 50.6058 45.076 50.2155 45.2268 49.8513C45.3777 49.4871 45.5988 49.1562 45.8775 48.8775L60.8775 33.8775C61.1561 33.5986 61.487 33.3773 61.8512 33.2263C62.2154 33.0753 62.6058 32.9976 63 32.9976C63.3943 32.9976 63.7846 33.0753 64.1488 33.2263C64.513 33.3773 64.8439 33.5986 65.1225 33.8775ZM36 6C36 5.20435 36.3161 4.44129 36.8787 3.87868C37.4413 3.31607 38.2044 3 39 3H57C57.7957 3 58.5587 3.31607 59.1213 3.87868C59.6839 4.44129 60 5.20435 60 6C60 6.79565 59.6839 7.55871 59.1213 8.12132C58.5587 8.68393 57.7957 9 57 9H39C38.2044 9 37.4413 8.68393 36.8787 8.12132C36.3161 7.55871 36 6.79565 36 6Z" fill="url(#paint1_linear_13_493)"/>
</g>
<defs>
<linearGradient id="paint0_linear_13_493" x1="48" y1="18" x2="48" y2="84" gradientUnits="userSpaceOnUse">
<stop stop-color="#3DFFB9"/>
<stop offset="1" stop-color="#24996F"/>
</linearGradient>
<linearGradient id="paint1_linear_13_493" x1="48" y1="3" x2="48" y2="87" gradientUnits="userSpaceOnUse">
<stop stop-color="#3DFFB9"/>
<stop offset="1" stop-color="#24996F"/>
</linearGradient>
</defs>
</svg>
