<svg width="96" height="96" viewBox="0 0 96 96" fill="none" xmlns="http://www.w3.org/2000/svg">
<g id="Frame">
<path id="Vector" opacity="0.2" d="M63 36C63 43.1608 60.1554 50.0284 55.0919 55.0919C50.0284 60.1554 43.1608 63 36 63C35.048 62.9993 34.0968 62.9493 33.15 62.85C33.0507 61.9032 33.0007 60.952 33 60C33 52.8392 35.8446 45.9716 40.9081 40.9081C45.9716 35.8446 52.8392 33 60 33C60.952 33.0007 61.9032 33.0507 62.85 33.15C62.9493 34.0968 62.9993 35.048 63 36Z" fill="#28FFB2"/>
<path id="Vector_2" d="M65.4861 30.5136C64.4884 25.1403 62.0419 20.1416 58.4106 16.0572C54.7794 11.9728 50.1014 8.958 44.8818 7.3382C39.6622 5.7184 34.0993 5.55518 28.7937 6.86618C23.4882 8.17718 18.6415 10.9126 14.777 14.777C10.9126 18.6415 8.17718 23.4882 6.86618 28.7937C5.55518 34.0993 5.7184 39.6622 7.3382 44.8818C8.958 50.1014 11.9728 54.7794 16.0572 58.4106C20.1416 62.0419 25.1403 64.4884 30.5136 65.4861C31.5113 70.8594 33.9578 75.8581 37.5891 79.9425C41.2203 84.0269 45.8983 87.0417 51.1179 88.6615C56.3375 90.2813 61.9004 90.4445 67.206 89.1335C72.5116 87.8225 77.3582 85.0871 81.2227 81.2227C85.0871 77.3582 87.8225 72.5116 89.1335 67.206C90.4445 61.9004 90.2813 56.3375 88.6615 51.1179C87.0417 45.8983 84.0269 41.2203 79.9425 37.5891C75.8581 33.9578 70.8594 31.5113 65.4861 30.5136ZM11.9999 35.9999C11.9883 30.1502 14.1137 24.4976 17.9764 20.1047C21.8392 15.7117 27.1734 12.8807 32.9765 12.1438C38.7796 11.4069 44.652 12.8148 49.4902 16.1029C54.3283 19.391 57.7989 24.3329 59.2499 29.9999C51.5578 30.202 44.2368 33.3491 38.7975 38.7919C33.3583 44.2346 30.2158 51.5577 30.0186 59.2499C24.8649 57.9163 20.2995 54.9099 17.0385 50.7022C13.7775 46.4944 12.0053 41.3233 11.9999 35.9999ZM59.9999 35.9999C59.9929 42.3629 57.4621 48.4634 52.9627 52.9627C48.4634 57.4621 42.3629 59.9929 35.9999 59.9999C36.0068 53.6368 38.5376 47.5363 43.037 43.037C47.5363 38.5376 53.6368 36.0068 59.9999 35.9999ZM59.9999 83.9999C54.6789 83.9955 49.5097 82.226 45.3023 78.9686C41.0949 75.7112 38.0869 71.1501 36.7499 65.9999C44.4452 65.8024 51.7709 62.6574 57.2141 57.2141C62.6574 51.7709 65.8024 44.4452 65.9999 36.7499C71.6668 38.2008 76.6087 41.6714 79.8968 46.5096C83.1849 51.3477 84.5928 57.2201 83.8559 63.0232C83.119 68.8264 80.288 74.1605 75.8951 78.0233C71.5021 81.886 65.8496 84.0114 59.9999 83.9999Z" fill="url(#paint0_linear_13_496)"/>
</g>
<defs>
<linearGradient id="paint0_linear_13_496" x1="47.9999" y1="5.99023" x2="47.9999" y2="90.0095" gradientUnits="userSpaceOnUse">
<stop stop-color="#3DFFB9"/>
<stop offset="1" stop-color="#24996F"/>
</linearGradient>
</defs>
</svg>
