<svg width="48" height="48" viewBox="0 0 48 48" fill="none" xmlns="http://www.w3.org/2000/svg">
<path opacity="0.2" d="M43.5 19.5C43.5 24 36 28.5 24 28.5C12 28.5 4.5 24 4.5 19.5C4.5 15 12 10.5 24 10.5C36 10.5 43.5 15 43.5 19.5Z" fill="url(#paint0_linear_1_6639)"/>
<path d="M38.9212 11.97C35.0344 10.0275 29.8744 9 24 9C18.1256 9 12.9656 10.0275 9.07875 11.97C5.19187 13.9125 3 16.6462 3 19.5V28.5C3 31.3538 5.21625 34.0969 9.07875 36.03C12.9412 37.9631 18.1256 39 24 39C29.8744 39 35.0344 37.9725 38.9212 36.03C42.8081 34.0875 45 31.3538 45 28.5V19.5C45 16.6462 42.7837 13.9031 38.9212 11.97ZM24 12C35.745 12 42 16.3556 42 19.5C42 22.6444 35.745 27 24 27C12.255 27 6 22.6444 6 19.5C6 16.3556 12.255 12 24 12ZM22.5 29.9738V35.9738C18.9375 35.8575 15.9375 35.3325 13.5 34.5694V28.6969C16.4384 29.4797 19.4598 29.9084 22.5 29.9738ZM25.5 29.9738C28.5402 29.9084 31.5616 29.4797 34.5 28.6969V34.5675C32.0625 35.3306 29.0625 35.8556 25.5 35.9719V29.9738ZM6 28.5V25.0369C6.94398 25.8204 7.97742 26.4895 9.07875 27.03C9.53437 27.2569 10.0163 27.4706 10.5 27.6731V33.375C7.53188 31.905 6 30.0544 6 28.5ZM37.5 33.375V27.6731C37.9894 27.4706 38.4656 27.2569 38.9212 27.03C40.0226 26.4895 41.056 25.8204 42 25.0369V28.5C42 30.0544 40.4681 31.905 37.5 33.375Z" fill="url(#paint1_linear_1_6639)"/>
<defs>
<linearGradient id="paint0_linear_1_6639" x1="24" y1="10.5" x2="24" y2="28.5" gradientUnits="userSpaceOnUse">
<stop stop-color="#3DFFB9"/>
<stop offset="1" stop-color="#24996F"/>
</linearGradient>
<linearGradient id="paint1_linear_1_6639" x1="24" y1="9" x2="24" y2="39" gradientUnits="userSpaceOnUse">
<stop stop-color="#3DFFB9"/>
<stop offset="1" stop-color="#24996F"/>
</linearGradient>
</defs>
</svg>
