<svg width="64" height="64" viewBox="0 0 64 64" fill="none" xmlns="http://www.w3.org/2000/svg">
<g id="Frame">
<path id="Vector" opacity="0.2" d="M56 22V50C56 50.5304 55.7893 51.0391 55.4142 51.4142C55.0391 51.7893 54.5304 52 54 52H14C12.9391 52 11.9217 51.5786 11.1716 50.8284C10.4214 50.0783 10 49.0609 10 48V16C10 17.0609 10.4214 18.0783 11.1716 18.8284C11.9217 19.5786 12.9391 20 14 20H54C54.5304 20 55.0391 20.2107 55.4142 20.5858C55.7893 20.9609 56 21.4696 56 22Z" fill="url(#paint0_linear_13_363)"/>
<path id="Vector_2" d="M54 18H14C13.4696 18 12.9609 17.7893 12.5858 17.4142C12.2107 17.0391 12 16.5304 12 16C12 15.4696 12.2107 14.9609 12.5858 14.5858C12.9609 14.2107 13.4696 14 14 14H48C48.5304 14 49.0391 13.7893 49.4142 13.4142C49.7893 13.0391 50 12.5304 50 12C50 11.4696 49.7893 10.9609 49.4142 10.5858C49.0391 10.2107 48.5304 10 48 10H14C12.4087 10 10.8826 10.6321 9.75736 11.7574C8.63214 12.8826 8 14.4087 8 16V48C8 49.5913 8.63214 51.1174 9.75736 52.2426C10.8826 53.3679 12.4087 54 14 54H54C55.0609 54 56.0783 53.5786 56.8284 52.8284C57.5786 52.0783 58 51.0609 58 50V22C58 20.9391 57.5786 19.9217 56.8284 19.1716C56.0783 18.4214 55.0609 18 54 18ZM54 50H14C13.4696 50 12.9609 49.7893 12.5858 49.4142C12.2107 49.0391 12 48.5304 12 48V21.6575C12.6422 21.8851 13.3187 22.001 14 22H54V50ZM42 35C42 34.4067 42.1759 33.8266 42.5056 33.3333C42.8352 32.8399 43.3038 32.4554 43.852 32.2284C44.4001 32.0013 45.0033 31.9419 45.5853 32.0576C46.1672 32.1734 46.7018 32.4591 47.1213 32.8787C47.5409 33.2982 47.8266 33.8328 47.9424 34.4147C48.0581 34.9967 47.9987 35.5999 47.7716 36.148C47.5446 36.6962 47.1601 37.1648 46.6667 37.4944C46.1734 37.8241 45.5933 38 45 38C44.2043 38 43.4413 37.6839 42.8787 37.1213C42.3161 36.5587 42 35.7956 42 35Z" fill="url(#paint1_linear_13_363)"/>
</g>
<defs>
<linearGradient id="paint0_linear_13_363" x1="33" y1="16" x2="33" y2="52" gradientUnits="userSpaceOnUse">
<stop stop-color="#3DFFB9"/>
<stop offset="1" stop-color="#24996F"/>
</linearGradient>
<linearGradient id="paint1_linear_13_363" x1="33" y1="10" x2="33" y2="54" gradientUnits="userSpaceOnUse">
<stop stop-color="#3DFFB9"/>
<stop offset="1" stop-color="#24996F"/>
</linearGradient>
</defs>
</svg>
