<svg width="120" height="120" viewBox="0 0 120 120" fill="none" xmlns="http://www.w3.org/2000/svg">
<g id="Frame">
<path id="Vector" opacity="0.2" d="M105 26.25V97.5L90 90L75 97.5L60 90L45 97.5L30 90L15 97.5V26.25C15 25.2554 15.3951 24.3016 16.0984 23.5984C16.8016 22.8951 17.7554 22.5 18.75 22.5H101.25C102.245 22.5 103.198 22.8951 103.902 23.5984C104.605 24.3016 105 25.2554 105 26.25Z" fill="url(#paint0_linear_13_346)"/>
<path id="Vector_2" d="M33.75 48.75C33.75 47.7554 34.1451 46.8016 34.8484 46.0984C35.5516 45.3951 36.5054 45 37.5 45H82.5C83.4946 45 84.4484 45.3951 85.1517 46.0984C85.8549 46.8016 86.25 47.7554 86.25 48.75C86.25 49.7446 85.8549 50.6984 85.1517 51.4017C84.4484 52.1049 83.4946 52.5 82.5 52.5H37.5C36.5054 52.5 35.5516 52.1049 34.8484 51.4017C34.1451 50.6984 33.75 49.7446 33.75 48.75ZM37.5 67.5H82.5C83.4946 67.5 84.4484 67.1049 85.1517 66.4017C85.8549 65.6984 86.25 64.7446 86.25 63.75C86.25 62.7554 85.8549 61.8016 85.1517 61.0984C84.4484 60.3951 83.4946 60 82.5 60H37.5C36.5054 60 35.5516 60.3951 34.8484 61.0984C34.1451 61.8016 33.75 62.7554 33.75 63.75C33.75 64.7446 34.1451 65.6984 34.8484 66.4017C35.5516 67.1049 36.5054 67.5 37.5 67.5ZM108.75 26.25V97.5C108.75 98.1392 108.586 98.7676 108.274 99.3257C107.963 99.8838 107.514 100.353 106.97 100.689C106.426 101.025 105.806 101.216 105.167 101.244C104.529 101.273 103.893 101.138 103.322 100.852L90 94.1906L76.6781 100.852C76.1571 101.112 75.5826 101.248 75 101.248C74.4174 101.248 73.8429 101.112 73.3219 100.852L60 94.1906L46.6781 100.852C46.1571 101.112 45.5826 101.248 45 101.248C44.4174 101.248 43.8429 101.112 43.3219 100.852L30 94.1906L16.6781 100.852C16.1065 101.138 15.4714 101.273 14.8328 101.244C14.1943 101.216 13.5737 101.025 13.0299 100.689C12.486 100.353 12.0371 99.8838 11.7255 99.3257C11.414 98.7676 11.2503 98.1392 11.25 97.5V26.25C11.25 24.2609 12.0402 22.3532 13.4467 20.9467C14.8532 19.5402 16.7609 18.75 18.75 18.75H101.25C103.239 18.75 105.147 19.5402 106.553 20.9467C107.96 22.3532 108.75 24.2609 108.75 26.25ZM101.25 26.25H18.75V91.4344L28.3219 86.6438C28.8429 86.383 29.4174 86.2473 30 86.2473C30.5826 86.2473 31.1571 86.383 31.6781 86.6438L45 93.3094L58.3219 86.6438C58.8429 86.383 59.4174 86.2473 60 86.2473C60.5826 86.2473 61.1571 86.383 61.6781 86.6438L75 93.3094L88.3219 86.6438C88.8429 86.383 89.4174 86.2473 90 86.2473C90.5826 86.2473 91.1571 86.383 91.6781 86.6438L101.25 91.4344V26.25Z" fill="url(#paint1_linear_13_346)"/>
</g>
<defs>
<linearGradient id="paint0_linear_13_346" x1="60" y1="22.5" x2="60" y2="97.5" gradientUnits="userSpaceOnUse">
<stop stop-color="#3DFFB9"/>
<stop offset="1" stop-color="#24996F"/>
</linearGradient>
<linearGradient id="paint1_linear_13_346" x1="60" y1="18.75" x2="60" y2="101.248" gradientUnits="userSpaceOnUse">
<stop stop-color="#3DFFB9"/>
<stop offset="1" stop-color="#24996F"/>
</linearGradient>
</defs>
</svg>
