<svg width="80" height="80" viewBox="0 0 80 80" fill="none" xmlns="http://www.w3.org/2000/svg">
<g id="Frame">
<path id="Vector" opacity="0.2" d="M40 40.3405V72.4999C39.5801 72.4982 39.1674 72.3907 38.8 72.1874L11.3 57.1312C10.9073 56.9163 10.5795 56.6 10.3509 56.2152C10.1222 55.8304 10.001 55.3913 10 54.9437V25.0562C10.001 24.706 10.0755 24.36 10.2188 24.0405L40 40.3405Z" fill="url(#paint0_linear_13_698)"/>
<path id="Vector_2" d="M69.9 20.6717L42.4 5.62481C41.6652 5.21882 40.8395 5.00586 40 5.00586C39.1605 5.00586 38.3348 5.21882 37.6 5.62481L10.1 20.6779C9.31465 21.1076 8.65907 21.7403 8.20172 22.5099C7.74438 23.2795 7.50203 24.1577 7.5 25.0529V54.9404C7.50203 55.8357 7.74438 56.7139 8.20172 57.4835C8.65907 58.2531 9.31465 58.8857 10.1 59.3154L37.6 74.3686C38.3348 74.7746 39.1605 74.9875 40 74.9875C40.8395 74.9875 41.6652 74.7746 42.4 74.3686L69.9 59.3154C70.6853 58.8857 71.3409 58.2531 71.7983 57.4835C72.2556 56.7139 72.498 55.8357 72.5 54.9404V25.0561C72.4996 24.1593 72.2581 23.279 71.8007 22.5077C71.3432 21.7363 70.6867 21.1022 69.9 20.6717ZM40 9.99981L65.1062 23.7498L55.8031 28.8436L30.6938 15.0936L40 9.99981ZM40 37.4998L14.8938 23.7498L25.4875 17.9498L50.5938 31.6998L40 37.4998ZM12.5 28.1248L37.5 41.8061V68.6154L12.5 54.9436V28.1248ZM67.5 54.9311L42.5 68.6154V41.8186L52.5 36.3467V47.4998C52.5 48.1629 52.7634 48.7987 53.2322 49.2676C53.7011 49.7364 54.337 49.9998 55 49.9998C55.663 49.9998 56.2989 49.7364 56.7678 49.2676C57.2366 48.7987 57.5 48.1629 57.5 47.4998V33.6092L67.5 28.1248V54.9279V54.9311Z" fill="url(#paint1_linear_13_698)"/>
</g>
<defs>
<linearGradient id="paint0_linear_13_698" x1="25" y1="24.0405" x2="25" y2="72.4999" gradientUnits="userSpaceOnUse">
<stop stop-color="#3DFFB9"/>
<stop offset="1" stop-color="#24996F"/>
</linearGradient>
<linearGradient id="paint1_linear_13_698" x1="40" y1="5.00586" x2="40" y2="74.9875" gradientUnits="userSpaceOnUse">
<stop stop-color="#3DFFB9"/>
<stop offset="1" stop-color="#24996F"/>
</linearGradient>
</defs>
</svg>
