<svg width="80" height="80" viewBox="0 0 80 80" fill="none" xmlns="http://www.w3.org/2000/svg">
<g id="Frame">
<g id="Vector" opacity="0.2">
<path d="M70 32.5V47.5C70 48.163 69.7366 48.7989 69.2678 49.2678C68.7989 49.7366 68.163 50 67.5 50H50V67.5C50 68.163 49.7366 68.7989 49.2678 69.2678C48.7989 69.7366 48.163 70 47.5 70H32.5C31.837 70 31.2011 69.7366 30.7322 69.2678C30.2634 68.7989 30 68.163 30 67.5V50H12.5C11.837 50 11.2011 49.7366 10.7322 49.2678C10.2634 48.7989 10 48.163 10 47.5V32.5C10 31.837 10.2634 31.2011 10.7322 30.7322C11.2011 30.2634 11.837 30 12.5 30H30V12.5C30 11.837 30.2634 11.2011 30.7322 10.7322C31.2011 10.2634 31.837 10 32.5 10H47.5C48.163 10 48.7989 10.2634 49.2678 10.7322C49.7366 11.2011 50 11.837 50 12.5V30H67.5C68.163 30 68.7989 30.2634 69.2678 30.7322C69.7366 31.2011 70 31.837 70 32.5Z" fill="black"/>
<path d="M70 32.5V47.5C70 48.163 69.7366 48.7989 69.2678 49.2678C68.7989 49.7366 68.163 50 67.5 50H50V67.5C50 68.163 49.7366 68.7989 49.2678 69.2678C48.7989 69.7366 48.163 70 47.5 70H32.5C31.837 70 31.2011 69.7366 30.7322 69.2678C30.2634 68.7989 30 68.163 30 67.5V50H12.5C11.837 50 11.2011 49.7366 10.7322 49.2678C10.2634 48.7989 10 48.163 10 47.5V32.5C10 31.837 10.2634 31.2011 10.7322 30.7322C11.2011 30.2634 11.837 30 12.5 30H30V12.5C30 11.837 30.2634 11.2011 30.7322 10.7322C31.2011 10.2634 31.837 10 32.5 10H47.5C48.163 10 48.7989 10.2634 49.2678 10.7322C49.7366 11.2011 50 11.837 50 12.5V30H67.5C68.163 30 68.7989 30.2634 69.2678 30.7322C69.7366 31.2011 70 31.837 70 32.5Z" fill="url(#paint0_linear_13_712)"/>
</g>
<g id="Vector_2">
<path d="M67.5 27.5H52.5V12.5C52.5 11.1739 51.9732 9.90215 51.0355 8.96447C50.0979 8.02678 48.8261 7.5 47.5 7.5H32.5C31.1739 7.5 29.9021 8.02678 28.9645 8.96447C28.0268 9.90215 27.5 11.1739 27.5 12.5V27.5H12.5C11.1739 27.5 9.90215 28.0268 8.96447 28.9645C8.02678 29.9021 7.5 31.1739 7.5 32.5V47.5C7.5 48.8261 8.02678 50.0979 8.96447 51.0355C9.90215 51.9732 11.1739 52.5 12.5 52.5H27.5V67.5C27.5 68.8261 28.0268 70.0979 28.9645 71.0355C29.9021 71.9732 31.1739 72.5 32.5 72.5H47.5C48.8261 72.5 50.0979 71.9732 51.0355 71.0355C51.9732 70.0979 52.5 68.8261 52.5 67.5V52.5H67.5C68.8261 52.5 70.0979 51.9732 71.0355 51.0355C71.9732 50.0979 72.5 48.8261 72.5 47.5V32.5C72.5 31.1739 71.9732 29.9021 71.0355 28.9645C70.0979 28.0268 68.8261 27.5 67.5 27.5ZM67.5 47.5H50C49.337 47.5 48.7011 47.7634 48.2322 48.2322C47.7634 48.7011 47.5 49.337 47.5 50V67.5H32.5V50C32.5 49.337 32.2366 48.7011 31.7678 48.2322C31.2989 47.7634 30.663 47.5 30 47.5H12.5V32.5H30C30.663 32.5 31.2989 32.2366 31.7678 31.7678C32.2366 31.2989 32.5 30.663 32.5 30V12.5H47.5V30C47.5 30.663 47.7634 31.2989 48.2322 31.7678C48.7011 32.2366 49.337 32.5 50 32.5H67.5V47.5Z" fill="black"/>
<path d="M67.5 27.5H52.5V12.5C52.5 11.1739 51.9732 9.90215 51.0355 8.96447C50.0979 8.02678 48.8261 7.5 47.5 7.5H32.5C31.1739 7.5 29.9021 8.02678 28.9645 8.96447C28.0268 9.90215 27.5 11.1739 27.5 12.5V27.5H12.5C11.1739 27.5 9.90215 28.0268 8.96447 28.9645C8.02678 29.9021 7.5 31.1739 7.5 32.5V47.5C7.5 48.8261 8.02678 50.0979 8.96447 51.0355C9.90215 51.9732 11.1739 52.5 12.5 52.5H27.5V67.5C27.5 68.8261 28.0268 70.0979 28.9645 71.0355C29.9021 71.9732 31.1739 72.5 32.5 72.5H47.5C48.8261 72.5 50.0979 71.9732 51.0355 71.0355C51.9732 70.0979 52.5 68.8261 52.5 67.5V52.5H67.5C68.8261 52.5 70.0979 51.9732 71.0355 51.0355C71.9732 50.0979 72.5 48.8261 72.5 47.5V32.5C72.5 31.1739 71.9732 29.9021 71.0355 28.9645C70.0979 28.0268 68.8261 27.5 67.5 27.5ZM67.5 47.5H50C49.337 47.5 48.7011 47.7634 48.2322 48.2322C47.7634 48.7011 47.5 49.337 47.5 50V67.5H32.5V50C32.5 49.337 32.2366 48.7011 31.7678 48.2322C31.2989 47.7634 30.663 47.5 30 47.5H12.5V32.5H30C30.663 32.5 31.2989 32.2366 31.7678 31.7678C32.2366 31.2989 32.5 30.663 32.5 30V12.5H47.5V30C47.5 30.663 47.7634 31.2989 48.2322 31.7678C48.7011 32.2366 49.337 32.5 50 32.5H67.5V47.5Z" fill="url(#paint1_linear_13_712)"/>
</g>
</g>
<defs>
<linearGradient id="paint0_linear_13_712" x1="40" y1="10" x2="40" y2="70" gradientUnits="userSpaceOnUse">
<stop stop-color="#3DFFB9"/>
<stop offset="1" stop-color="#24996F"/>
</linearGradient>
<linearGradient id="paint1_linear_13_712" x1="40" y1="7.5" x2="40" y2="72.5" gradientUnits="userSpaceOnUse">
<stop stop-color="#3DFFB9"/>
<stop offset="1" stop-color="#24996F"/>
</linearGradient>
</defs>
</svg>
