<svg width="96" height="96" viewBox="0 0 96 96" fill="none" xmlns="http://www.w3.org/2000/svg">
<g id="Frame">
<path id="Vector" opacity="0.2" d="M75 66H39C39 66 42 68.25 42 72C42 74.3869 41.0518 76.6761 39.364 78.364C37.6761 80.0518 35.3869 81 33 81C30.6131 81 28.3239 80.0518 26.636 78.364C24.9482 76.6761 24 74.3869 24 72V24C24 21.6131 23.0518 19.3239 21.364 17.636C19.6761 15.9482 17.3869 15 15 15H66C68.3869 15 70.6761 15.9482 72.364 17.636C74.0518 19.3239 75 21.6131 75 24V66Z" fill="url(#paint0_linear_13_490)"/>
<path id="Vector_2" d="M36 39C36 38.2044 36.3161 37.4413 36.8787 36.8787C37.4413 36.3161 38.2043 36 39 36H63C63.7957 36 64.5587 36.3161 65.1213 36.8787C65.6839 37.4413 66 38.2044 66 39C66 39.7956 65.6839 40.5587 65.1213 41.1213C64.5587 41.6839 63.7957 42 63 42H39C38.2043 42 37.4413 41.6839 36.8787 41.1213C36.3161 40.5587 36 39.7956 36 39ZM39 54H63C63.7957 54 64.5587 53.6839 65.1213 53.1213C65.6839 52.5587 66 51.7957 66 51C66 50.2043 65.6839 49.4413 65.1213 48.8787C64.5587 48.3161 63.7957 48 63 48H39C38.2043 48 37.4413 48.3161 36.8787 48.8787C36.3161 49.4413 36 50.2043 36 51C36 51.7957 36.3161 52.5587 36.8787 53.1213C37.4413 53.6839 38.2043 54 39 54ZM87 72C87 75.1826 85.7357 78.2348 83.4853 80.4853C81.2348 82.7357 78.1826 84 75 84H33C29.8174 84 26.7652 82.7357 24.5147 80.4853C22.2643 78.2348 21 75.1826 21 72V24C21 22.4087 20.3679 20.8826 19.2426 19.7574C18.1174 18.6321 16.5913 18 15 18C13.4087 18 11.8826 18.6321 10.7574 19.7574C9.63214 20.8826 9 22.4087 9 24C9 26.1525 10.8112 27.6075 10.83 27.6225C11.3265 28.0046 11.6909 28.5325 11.8721 29.1323C12.0534 29.732 12.0423 30.3734 11.8404 30.9665C11.6386 31.5596 11.2561 32.0746 10.7467 32.4393C10.2373 32.804 9.6265 33.0001 9 33C8.35125 33.0011 7.72012 32.789 7.20375 32.3962C6.76875 32.0775 3 29.1038 3 24C3 20.8174 4.26428 17.7652 6.51472 15.5147C8.76516 13.2643 11.8174 12 15 12H66C69.1826 12 72.2348 13.2643 74.4853 15.5147C76.7357 17.7652 78 20.8174 78 24V63H81C81.6491 63 82.2807 63.2105 82.8 63.6C83.25 63.9225 87 66.8963 87 72ZM36.0975 65.055C36.3025 64.45 36.6937 63.9253 37.215 63.5562C37.7364 63.187 38.3612 62.9923 39 63H72V24C72 22.4087 71.3679 20.8826 70.2426 19.7574C69.1174 18.6321 67.5913 18 66 18H25.3838C26.4448 19.8214 27.0026 21.8921 27 24V72C27 73.5913 27.6321 75.1174 28.7574 76.2426C29.8826 77.3679 31.4087 78 33 78C34.5913 78 36.1174 77.3679 37.2426 76.2426C38.3679 75.1174 39 73.5913 39 72C39 69.8475 37.1888 68.3925 37.17 68.3775C36.6587 68.0118 36.2785 67.4915 36.0854 66.8932C35.8923 66.295 35.8966 65.6506 36.0975 65.055ZM81 72C80.9625 70.8885 80.5335 69.826 79.7887 69H44.5387C44.8403 69.9714 44.9933 70.9829 44.9925 72C44.9954 74.107 44.4403 76.1771 43.3838 78H75C76.5913 78 78.1174 77.3679 79.2426 76.2426C80.3679 75.1174 81 73.5913 81 72Z" fill="url(#paint1_linear_13_490)"/>
</g>
<defs>
<linearGradient id="paint0_linear_13_490" x1="45" y1="15" x2="45" y2="81" gradientUnits="userSpaceOnUse">
<stop stop-color="#3DFFB9"/>
<stop offset="1" stop-color="#24996F"/>
</linearGradient>
<linearGradient id="paint1_linear_13_490" x1="45" y1="12" x2="45" y2="84" gradientUnits="userSpaceOnUse">
<stop stop-color="#3DFFB9"/>
<stop offset="1" stop-color="#24996F"/>
</linearGradient>
</defs>
</svg>
