<svg width="80" height="80" viewBox="0 0 80 80" fill="none" xmlns="http://www.w3.org/2000/svg">
<g id="Frame">
<path id="Vector" opacity="0.2" d="M50 40C50 56.5625 42.1656 70 32.5 70C22.8344 70 15 56.5625 15 40C15 23.4375 22.8344 10 32.5 10C42.1656 10 50 23.4375 50 40Z" fill="url(#paint0_linear_0_22089)"/>
<path id="Vector_2" d="M62.0344 17.5281C58.2625 11.0625 53.1 7.5 47.5 7.5H32.5C26.9 7.5 21.7375 11.0625 17.9656 17.5281C14.4406 23.5688 12.5 31.5625 12.5 40C12.5 48.4375 14.4406 56.4313 17.9656 62.4719C21.7375 68.9375 26.9 72.5 32.5 72.5H47.5C53.1 72.5 58.2625 68.9375 62.0344 62.4719C65.5594 56.4313 67.5 48.4375 67.5 40C67.5 31.5625 65.5594 23.5688 62.0344 17.5281ZM62.4344 37.5H52.4344C52.2391 32.3699 51.2176 27.3048 49.4094 22.5H58.9688C60.8812 26.6812 62.1437 31.875 62.4344 37.5ZM55.9969 17.5H47.0188C45.9745 15.6885 44.7154 14.0097 43.2688 12.5H47.5C50.625 12.5 53.5625 14.375 55.9969 17.5ZM17.5 40C17.5 25.0938 24.375 12.5 32.5 12.5C40.625 12.5 47.5 25.0938 47.5 40C47.5 54.9062 40.625 67.5 32.5 67.5C24.375 67.5 17.5 54.9062 17.5 40ZM47.5 67.5H43.2781C44.7248 65.9903 45.9839 64.3115 47.0281 62.5H56.0062C53.5625 65.625 50.625 67.5 47.5 67.5ZM58.9688 57.5H49.4125C51.2207 52.6952 52.2422 47.6301 52.4375 42.5H62.4375C62.1437 48.125 60.8812 53.3187 58.9688 57.5Z" fill="url(#paint1_linear_0_22089)"/>
</g>
<defs>
<linearGradient id="paint0_linear_0_22089" x1="32.5" y1="10" x2="32.5" y2="70" gradientUnits="userSpaceOnUse">
<stop stop-color="#3DFFB9"/>
<stop offset="1" stop-color="#24996F"/>
</linearGradient>
<linearGradient id="paint1_linear_0_22089" x1="40" y1="7.5" x2="40" y2="72.5" gradientUnits="userSpaceOnUse">
<stop stop-color="#3DFFB9"/>
<stop offset="1" stop-color="#24996F"/>
</linearGradient>
</defs>
</svg>
