<svg width="48" height="48" viewBox="0 0 48 48" fill="none" xmlns="http://www.w3.org/2000/svg">
<path opacity="0.2" d="M40.5 9V18H31.5L40.5 9ZM7.5 39L16.5 30H7.5V39Z" fill="url(#paint0_linear_1_6657)"/>
<path d="M41.0737 7.61438C40.7997 7.50068 40.4981 7.47081 40.207 7.52855C39.916 7.58629 39.6486 7.72904 39.4388 7.93875L36.4275 10.9519C32.6494 7.70625 28.38 6 24 6C15.9713 6 11.1413 10.7381 10.9388 10.9388C10.6573 11.2202 10.4992 11.602 10.4992 12C10.4992 12.398 10.6573 12.7798 10.9388 13.0613C11.2202 13.3427 11.602 13.5008 12 13.5008C12.398 13.5008 12.7798 13.3427 13.0613 13.0613C13.1006 13.02 17.1994 9 24 9C28.3444 9 31.86 11.0344 34.2975 13.08L30.4387 16.9387C30.2287 17.1485 30.0857 17.4159 30.0277 17.707C29.9697 17.9982 29.9994 18.3 30.1131 18.5742C30.2267 18.8484 30.4191 19.0828 30.666 19.2476C30.9129 19.4124 31.2032 19.5002 31.5 19.5H40.5C40.8978 19.5 41.2794 19.342 41.5607 19.0607C41.842 18.7794 42 18.3978 42 18V9C41.9999 8.70333 41.9119 8.41334 41.747 8.1667C41.5822 7.92006 41.3479 7.72785 41.0737 7.61438ZM39 16.5H35.1206L39 12.6206V16.5ZM34.9387 34.9387C34.8994 34.98 30.8006 39 24 39C19.6556 39 16.14 36.9656 13.7025 34.92L17.5613 31.0613C17.7713 30.8515 17.9143 30.5841 17.9723 30.293C18.0303 30.0018 18.0006 29.7001 17.8869 29.4258C17.7733 29.1516 17.5809 28.9172 17.334 28.7524C17.0871 28.5876 16.7968 28.4998 16.5 28.5H7.5C7.10218 28.5 6.72065 28.658 6.43934 28.9393C6.15804 29.2206 6 29.6022 6 30V39C5.99977 39.2968 6.08761 39.5871 6.25242 39.834C6.41723 40.0809 6.65158 40.2733 6.92582 40.3869C7.20005 40.5006 7.50183 40.5303 7.79296 40.4723C8.08409 40.4143 8.35147 40.2713 8.56125 40.0612L11.5725 37.0481C15.3506 40.2938 19.62 42 24 42C32.0287 42 36.8588 37.2619 37.0613 37.0613C37.3427 36.7798 37.5008 36.398 37.5008 36C37.5008 35.602 37.3427 35.2202 37.0613 34.9387C36.7798 34.6573 36.398 34.4992 36 34.4992C35.602 34.4992 35.2202 34.6573 34.9387 34.9387ZM9 31.5H12.8794L9 35.3794V31.5Z" fill="url(#paint1_linear_1_6657)"/>
<defs>
<linearGradient id="paint0_linear_1_6657" x1="24" y1="9" x2="24" y2="39" gradientUnits="userSpaceOnUse">
<stop stop-color="#3DFFB9"/>
<stop offset="1" stop-color="#24996F"/>
</linearGradient>
<linearGradient id="paint1_linear_1_6657" x1="24" y1="6" x2="24" y2="42" gradientUnits="userSpaceOnUse">
<stop stop-color="#3DFFB9"/>
<stop offset="1" stop-color="#24996F"/>
</linearGradient>
</defs>
</svg>
