<svg width="80" height="80" viewBox="0 0 80 80" fill="none" xmlns="http://www.w3.org/2000/svg">
<g id="Frame">
<path id="Vector" opacity="0.2" d="M52.5 17.5V67.5H17.5V17.5C17.5 16.1739 18.0268 14.9021 18.9645 13.9645C19.9021 13.0268 21.1739 12.5 22.5 12.5H47.5C48.8261 12.5 50.0979 13.0268 51.0355 13.9645C51.9732 14.9021 52.5 16.1739 52.5 17.5Z" fill="url(#paint0_linear_13_705)"/>
<path id="Vector_2" d="M42.0687 38.5969C42.2983 38.9351 42.4415 39.3245 42.4856 39.731C42.5297 40.1374 42.4735 40.5485 42.3219 40.9281L37.3219 53.4281C37.0745 54.0439 36.5926 54.5362 35.9822 54.7967C35.3718 55.0572 34.683 55.0646 34.0672 54.8172C33.4514 54.5698 32.9591 54.0879 32.6986 53.4775C32.4381 52.8672 32.4307 52.1783 32.6781 51.5625L36.3062 42.5H30C29.5903 42.5007 29.1866 42.4007 28.8246 42.2088C28.4626 42.0168 28.1533 41.7389 27.924 41.3993C27.6947 41.0598 27.5523 40.6691 27.5094 40.2616C27.4665 39.8541 27.5245 39.4423 27.6781 39.0625L32.6781 26.5625C32.8012 26.2576 32.9832 25.9799 33.2136 25.7453C33.4441 25.5107 33.7184 25.3238 34.0211 25.1953C34.3238 25.0667 34.6488 24.999 34.9776 24.9961C35.3064 24.9932 35.6326 25.055 35.9375 25.1781C36.2424 25.3012 36.5201 25.4832 36.7547 25.7136C36.9893 25.9441 37.1762 26.2184 37.3047 26.5211C37.4333 26.8238 37.501 27.1488 37.5039 27.4776C37.5068 27.8064 37.445 28.1326 37.3219 28.4375L33.6938 37.5H40C40.4082 37.5001 40.8101 37.6001 41.1707 37.7913C41.5313 37.9825 41.8397 38.2591 42.0687 38.5969ZM77.5 27.0719V52.5C77.5 54.4891 76.7098 56.3968 75.3033 57.8033C73.8968 59.2098 71.9891 60 70 60C68.0109 60 66.1032 59.2098 64.6967 57.8033C63.2902 56.3968 62.5 54.4891 62.5 52.5V40C62.5 39.337 62.2366 38.7011 61.7678 38.2322C61.2989 37.7634 60.663 37.5 60 37.5H55V65H60C60.663 65 61.2989 65.2634 61.7678 65.7322C62.2366 66.2011 62.5 66.837 62.5 67.5C62.5 68.163 62.2366 68.7989 61.7678 69.2678C61.2989 69.7366 60.663 70 60 70H10C9.33696 70 8.70107 69.7366 8.23223 69.2678C7.76339 68.7989 7.5 68.163 7.5 67.5C7.5 66.837 7.76339 66.2011 8.23223 65.7322C8.70107 65.2634 9.33696 65 10 65H15V17.5C15 15.5109 15.7902 13.6032 17.1967 12.1967C18.6032 10.7902 20.5109 10 22.5 10H47.5C49.4891 10 51.3968 10.7902 52.8033 12.1967C54.2098 13.6032 55 15.5109 55 17.5V32.5H60C61.9891 32.5 63.8968 33.2902 65.3033 34.6967C66.7098 36.1032 67.5 38.0109 67.5 40V52.5C67.5 53.163 67.7634 53.7989 68.2322 54.2678C68.7011 54.7366 69.337 55 70 55C70.663 55 71.2989 54.7366 71.7678 54.2678C72.2366 53.7989 72.5 53.163 72.5 52.5V27.0719C72.498 26.4119 72.2352 25.7794 71.7688 25.3125L65.7312 19.2688C65.2621 18.7996 64.9986 18.1634 64.9986 17.5C64.9986 16.8366 65.2621 16.2004 65.7312 15.7312C66.2004 15.2621 66.8366 14.9986 67.5 14.9986C68.1634 14.9986 68.7996 15.2621 69.2688 15.7312L75.3125 21.7688C76.0093 22.4644 76.5614 23.2912 76.9369 24.2014C77.3124 25.1117 77.5038 26.0873 77.5 27.0719ZM50 65V17.5C50 16.837 49.7366 16.2011 49.2678 15.7322C48.7989 15.2634 48.163 15 47.5 15H22.5C21.837 15 21.2011 15.2634 20.7322 15.7322C20.2634 16.2011 20 16.837 20 17.5V65H50Z" fill="url(#paint1_linear_13_705)"/>
</g>
<defs>
<linearGradient id="paint0_linear_13_705" x1="35" y1="12.5" x2="35" y2="67.5" gradientUnits="userSpaceOnUse">
<stop stop-color="#3DFFB9"/>
<stop offset="1" stop-color="#24996F"/>
</linearGradient>
<linearGradient id="paint1_linear_13_705" x1="42.5" y1="10" x2="42.5" y2="70" gradientUnits="userSpaceOnUse">
<stop stop-color="#3DFFB9"/>
<stop offset="1" stop-color="#24996F"/>
</linearGradient>
</defs>
</svg>
