<svg width="48" height="48" viewBox="0 0 48 48" fill="none" xmlns="http://www.w3.org/2000/svg">
<path opacity="0.2" d="M40.5 9V28.5C40.5 28.8978 40.342 29.2794 40.0607 29.5607C39.7794 29.842 39.3978 30 39 30H31.5V39C31.5 39.3978 31.342 39.7794 31.0607 40.0607C30.7794 40.342 30.3978 40.5 30 40.5H9C8.60218 40.5 8.22064 40.342 7.93934 40.0607C7.65804 39.7794 7.5 39.3978 7.5 39V19.5C7.5 19.1022 7.65804 18.7206 7.93934 18.4393C8.22064 18.158 8.60218 18 9 18H16.5V9C16.5 8.60218 16.658 8.22064 16.9393 7.93934C17.2206 7.65804 17.6022 7.5 18 7.5H39C39.3978 7.5 39.7794 7.65804 40.0607 7.93934C40.342 8.22064 40.5 8.60218 40.5 9Z" fill="url(#paint0_linear_1_6645)"/>
<path d="M42 9V28.5C42 29.2956 41.6839 30.0587 41.1213 30.6213C40.5587 31.1839 39.7957 31.5 39 31.5H18.6206L20.5613 33.4387C20.7006 33.5781 20.8112 33.7436 20.8866 33.9257C20.962 34.1077 21.0008 34.3029 21.0008 34.5C21.0008 34.6971 20.962 34.8923 20.8866 35.0743C20.8112 35.2564 20.7006 35.4219 20.5613 35.5613C20.4219 35.7006 20.2564 35.8112 20.0743 35.8866C19.8923 35.962 19.6971 36.0008 19.5 36.0008C19.3029 36.0008 19.1077 35.962 18.9257 35.8866C18.7436 35.8112 18.5781 35.7006 18.4387 35.5613L13.9387 31.0613C13.7993 30.9219 13.6886 30.7565 13.6132 30.5744C13.5377 30.3923 13.4988 30.1971 13.4988 30C13.4988 29.8029 13.5377 29.6077 13.6132 29.4256C13.6886 29.2435 13.7993 29.0781 13.9387 28.9387L18.4387 24.4387C18.7202 24.1573 19.102 23.9992 19.5 23.9992C19.898 23.9992 20.2798 24.1573 20.5613 24.4387C20.8427 24.7202 21.0008 25.102 21.0008 25.5C21.0008 25.898 20.8427 26.2798 20.5613 26.5613L18.6206 28.5H39V9H18V10.5C18 10.8978 17.842 11.2794 17.5607 11.5607C17.2794 11.842 16.8978 12 16.5 12C16.1022 12 15.7206 11.842 15.4393 11.5607C15.158 11.2794 15 10.8978 15 10.5V9C15 8.20435 15.3161 7.44129 15.8787 6.87868C16.4413 6.31607 17.2044 6 18 6H39C39.7957 6 40.5587 6.31607 41.1213 6.87868C41.6839 7.44129 42 8.20435 42 9ZM31.5 36C31.1022 36 30.7206 36.158 30.4393 36.4393C30.158 36.7206 30 37.1022 30 37.5V39H9V19.5H29.3794L27.4387 21.4387C27.1573 21.7202 26.9992 22.102 26.9992 22.5C26.9992 22.898 27.1573 23.2798 27.4387 23.5613C27.7202 23.8427 28.102 24.0008 28.5 24.0008C28.898 24.0008 29.2798 23.8427 29.5613 23.5613L34.0613 19.0613C34.2007 18.9219 34.3114 18.7565 34.3868 18.5744C34.4623 18.3923 34.5012 18.1971 34.5012 18C34.5012 17.8029 34.4623 17.6077 34.3868 17.4256C34.3114 17.2435 34.2007 17.0781 34.0613 16.9387L29.5613 12.4387C29.2798 12.1573 28.898 11.9992 28.5 11.9992C28.102 11.9992 27.7202 12.1573 27.4387 12.4387C27.1573 12.7202 26.9992 13.102 26.9992 13.5C26.9992 13.898 27.1573 14.2798 27.4387 14.5613L29.3794 16.5H9C8.20435 16.5 7.44129 16.8161 6.87868 17.3787C6.31607 17.9413 6 18.7044 6 19.5V39C6 39.7957 6.31607 40.5587 6.87868 41.1213C7.44129 41.6839 8.20435 42 9 42H30C30.7956 42 31.5587 41.6839 32.1213 41.1213C32.6839 40.5587 33 39.7957 33 39V37.5C33 37.1022 32.842 36.7206 32.5607 36.4393C32.2794 36.158 31.8978 36 31.5 36Z" fill="url(#paint1_linear_1_6645)"/>
<defs>
<linearGradient id="paint0_linear_1_6645" x1="24" y1="7.5" x2="24" y2="40.5" gradientUnits="userSpaceOnUse">
<stop stop-color="#3DFFB9"/>
<stop offset="1" stop-color="#24996F"/>
</linearGradient>
<linearGradient id="paint1_linear_1_6645" x1="24" y1="6" x2="24" y2="42" gradientUnits="userSpaceOnUse">
<stop stop-color="#3DFFB9"/>
<stop offset="1" stop-color="#24996F"/>
</linearGradient>
</defs>
</svg>
