<svg width="64" height="64" viewBox="0 0 64 64" fill="none" xmlns="http://www.w3.org/2000/svg">
<g id="swap-duotone">
<path id="Vector" opacity="0.2" d="M54 12V38C54 38.5304 53.7893 39.0391 53.4142 39.4142C53.0391 39.7893 52.5304 40 52 40H42V52C42 52.5304 41.7893 53.0391 41.4142 53.4142C41.0391 53.7893 40.5304 54 40 54H12C11.4696 54 10.9609 53.7893 10.5858 53.4142C10.2107 53.0391 10 52.5304 10 52V26C10 25.4696 10.2107 24.9609 10.5858 24.5858C10.9609 24.2107 11.4696 24 12 24H22V12C22 11.4696 22.2107 10.9609 22.5858 10.5858C22.9609 10.2107 23.4696 10 24 10H52C52.5304 10 53.0391 10.2107 53.4142 10.5858C53.7893 10.9609 54 11.4696 54 12Z" fill="url(#paint0_linear_13_381)"/>
<path id="Vector_2" d="M56 12V38C56 39.0609 55.5786 40.0783 54.8284 40.8284C54.0783 41.5786 53.0609 42 52 42H24.8275L27.415 44.585C27.6008 44.7708 27.7482 44.9914 27.8488 45.2342C27.9494 45.477 28.0011 45.7372 28.0011 46C28.0011 46.2628 27.9494 46.523 27.8488 46.7658C27.7482 47.0086 27.6008 47.2292 27.415 47.415C27.2292 47.6008 27.0086 47.7482 26.7658 47.8488C26.523 47.9494 26.2628 48.0011 26 48.0011C25.7372 48.0011 25.477 47.9494 25.2342 47.8488C24.9914 47.7482 24.7708 47.6008 24.585 47.415L18.585 41.415C18.399 41.2293 18.2515 41.0087 18.1509 40.7659C18.0502 40.5231 17.9984 40.2628 17.9984 40C17.9984 39.7372 18.0502 39.4769 18.1509 39.2341C18.2515 38.9913 18.399 38.7707 18.585 38.585L24.585 32.585C24.9603 32.2097 25.4693 31.9989 26 31.9989C26.5307 31.9989 27.0397 32.2097 27.415 32.585C27.7903 32.9603 28.0011 33.4693 28.0011 34C28.0011 34.5307 27.7903 35.0397 27.415 35.415L24.8275 38H52V12H24V14C24 14.5304 23.7893 15.0391 23.4142 15.4142C23.0391 15.7893 22.5304 16 22 16C21.4696 16 20.9609 15.7893 20.5858 15.4142C20.2107 15.0391 20 14.5304 20 14V12C20 10.9391 20.4214 9.92172 21.1716 9.17157C21.9217 8.42143 22.9391 8 24 8H52C53.0609 8 54.0783 8.42143 54.8284 9.17157C55.5786 9.92172 56 10.9391 56 12ZM42 48C41.4696 48 40.9609 48.2107 40.5858 48.5858C40.2107 48.9609 40 49.4696 40 50V52H12V26H39.1725L36.585 28.585C36.2097 28.9603 35.9989 29.4693 35.9989 30C35.9989 30.5307 36.2097 31.0397 36.585 31.415C36.9603 31.7903 37.4693 32.0011 38 32.0011C38.5307 32.0011 39.0397 31.7903 39.415 31.415L45.415 25.415C45.601 25.2293 45.7485 25.0087 45.8491 24.7659C45.9498 24.5231 46.0016 24.2628 46.0016 24C46.0016 23.7372 45.9498 23.4769 45.8491 23.2341C45.7485 22.9913 45.601 22.7707 45.415 22.585L39.415 16.585C39.0397 16.2097 38.5307 15.9989 38 15.9989C37.4693 15.9989 36.9603 16.2097 36.585 16.585C36.2097 16.9603 35.9989 17.4693 35.9989 18C35.9989 18.5307 36.2097 19.0397 36.585 19.415L39.1725 22H12C10.9391 22 9.92172 22.4214 9.17157 23.1716C8.42143 23.9217 8 24.9391 8 26V52C8 53.0609 8.42143 54.0783 9.17157 54.8284C9.92172 55.5786 10.9391 56 12 56H40C41.0609 56 42.0783 55.5786 42.8284 54.8284C43.5786 54.0783 44 53.0609 44 52V50C44 49.4696 43.7893 48.9609 43.4142 48.5858C43.0391 48.2107 42.5304 48 42 48Z" fill="url(#paint1_linear_13_381)"/>
</g>
<defs>
<linearGradient id="paint0_linear_13_381" x1="32" y1="10" x2="32" y2="54" gradientUnits="userSpaceOnUse">
<stop stop-color="#3DFFB9"/>
<stop offset="1" stop-color="#24996F"/>
</linearGradient>
<linearGradient id="paint1_linear_13_381" x1="32" y1="8" x2="32" y2="56" gradientUnits="userSpaceOnUse">
<stop stop-color="#3DFFB9"/>
<stop offset="1" stop-color="#24996F"/>
</linearGradient>
</defs>
</svg>
