<svg width="80" height="80" viewBox="0 0 80 80" fill="none" xmlns="http://www.w3.org/2000/svg">
<g id="tree-structure-duotone">
<path id="Vector" opacity="0.2" d="M22.5 35V45C22.5 45.663 22.2366 46.2989 21.7678 46.7678C21.2989 47.2366 20.663 47.5 20 47.5H10C9.33696 47.5 8.70107 47.2366 8.23223 46.7678C7.76339 46.2989 7.5 45.663 7.5 45V35C7.5 34.337 7.76339 33.7011 8.23223 33.2322C8.70107 32.7634 9.33696 32.5 10 32.5H20C20.663 32.5 21.2989 32.7634 21.7678 33.2322C22.2366 33.7011 22.5 34.337 22.5 35ZM67.5 12.5H52.5C51.837 12.5 51.2011 12.7634 50.7322 13.2322C50.2634 13.7011 50 14.337 50 15V30C50 30.663 50.2634 31.2989 50.7322 31.7678C51.2011 32.2366 51.837 32.5 52.5 32.5H67.5C68.163 32.5 68.7989 32.2366 69.2678 31.7678C69.7366 31.2989 70 30.663 70 30V15C70 14.337 69.7366 13.7011 69.2678 13.2322C68.7989 12.7634 68.163 12.5 67.5 12.5ZM67.5 47.5H52.5C51.837 47.5 51.2011 47.7634 50.7322 48.2322C50.2634 48.7011 50 49.337 50 50V65C50 65.663 50.2634 66.2989 50.7322 66.7678C51.2011 67.2366 51.837 67.5 52.5 67.5H67.5C68.163 67.5 68.7989 67.2366 69.2678 66.7678C69.7366 66.2989 70 65.663 70 65V50C70 49.337 69.7366 48.7011 69.2678 48.2322C68.7989 47.7634 68.163 47.5 67.5 47.5Z" fill="url(#paint0_linear_0_22103)"/>
<path id="Vector_2" d="M52.5 35H67.5C68.8261 35 70.0979 34.4732 71.0355 33.5355C71.9732 32.5979 72.5 31.3261 72.5 30V15C72.5 13.6739 71.9732 12.4021 71.0355 11.4645C70.0979 10.5268 68.8261 10 67.5 10H52.5C51.1739 10 49.9021 10.5268 48.9645 11.4645C48.0268 12.4021 47.5 13.6739 47.5 15V20H45C42.3478 20 39.8043 21.0536 37.9289 22.9289C36.0536 24.8043 35 27.3478 35 30V37.5H25V35C25 33.6739 24.4732 32.4021 23.5355 31.4645C22.5979 30.5268 21.3261 30 20 30H10C8.67392 30 7.40215 30.5268 6.46447 31.4645C5.52678 32.4021 5 33.6739 5 35V45C5 46.3261 5.52678 47.5979 6.46447 48.5355C7.40215 49.4732 8.67392 50 10 50H20C21.3261 50 22.5979 49.4732 23.5355 48.5355C24.4732 47.5979 25 46.3261 25 45V42.5H35V50C35 52.6522 36.0536 55.1957 37.9289 57.0711C39.8043 58.9464 42.3478 60 45 60H47.5V65C47.5 66.3261 48.0268 67.5979 48.9645 68.5355C49.9021 69.4732 51.1739 70 52.5 70H67.5C68.8261 70 70.0979 69.4732 71.0355 68.5355C71.9732 67.5979 72.5 66.3261 72.5 65V50C72.5 48.6739 71.9732 47.4021 71.0355 46.4645C70.0979 45.5268 68.8261 45 67.5 45H52.5C51.1739 45 49.9021 45.5268 48.9645 46.4645C48.0268 47.4021 47.5 48.6739 47.5 50V55H45C43.6739 55 42.4021 54.4732 41.4645 53.5355C40.5268 52.5979 40 51.3261 40 50V30C40 28.6739 40.5268 27.4021 41.4645 26.4645C42.4021 25.5268 43.6739 25 45 25H47.5V30C47.5 31.3261 48.0268 32.5979 48.9645 33.5355C49.9021 34.4732 51.1739 35 52.5 35ZM20 45H10V35H20V45ZM52.5 50H67.5V65H52.5V50ZM52.5 15H67.5V30H52.5V15Z" fill="url(#paint1_linear_0_22103)"/>
</g>
<defs>
<linearGradient id="paint0_linear_0_22103" x1="38.75" y1="12.5" x2="38.75" y2="67.5" gradientUnits="userSpaceOnUse">
<stop stop-color="#3DFFB9"/>
<stop offset="1" stop-color="#24996F"/>
</linearGradient>
<linearGradient id="paint1_linear_0_22103" x1="38.75" y1="10" x2="38.75" y2="70" gradientUnits="userSpaceOnUse">
<stop stop-color="#3DFFB9"/>
<stop offset="1" stop-color="#24996F"/>
</linearGradient>
</defs>
</svg>
