<svg width="80" height="80" viewBox="0 0 80 80" fill="none" xmlns="http://www.w3.org/2000/svg">
<path opacity="0.2" d="M72.5 30H7.5L40 10L72.5 30Z" fill="url(#paint0_linear_13_1852)"/>
<path d="M7.5 32.5004H15V52.5004H10C9.33696 52.5004 8.70107 52.7638 8.23223 53.2326C7.76339 53.7015 7.5 54.3374 7.5 55.0004C7.5 55.6634 7.76339 56.2993 8.23223 56.7682C8.70107 57.237 9.33696 57.5004 10 57.5004H70C70.663 57.5004 71.2989 57.237 71.7678 56.7682C72.2366 56.2993 72.5 55.6634 72.5 55.0004C72.5 54.3374 72.2366 53.7015 71.7678 53.2326C71.2989 52.7638 70.663 52.5004 70 52.5004H65V32.5004H72.5C73.044 32.4998 73.5729 32.3219 74.0066 31.9936C74.4402 31.6652 74.755 31.2044 74.9031 30.681C75.0511 30.1576 75.0245 29.6001 74.8271 29.0933C74.6297 28.5864 74.2724 28.1577 73.8094 27.8723L41.3094 7.87227C40.9156 7.63014 40.4623 7.50195 40 7.50195C39.5377 7.50195 39.0844 7.63014 38.6906 7.87227L6.19062 27.8723C5.72759 28.1577 5.37028 28.5864 5.17291 29.0933C4.97553 29.6001 4.94886 30.1576 5.09694 30.681C5.24503 31.2044 5.55977 31.6652 5.99345 31.9936C6.42712 32.3219 6.95605 32.4998 7.5 32.5004ZM20 32.5004H30V52.5004H20V32.5004ZM45 32.5004V52.5004H35V32.5004H45ZM60 52.5004H50V32.5004H60V52.5004ZM40 12.9348L63.6688 27.5004H16.3312L40 12.9348ZM77.5 65.0004C77.5 65.6634 77.2366 66.2993 76.7678 66.7682C76.2989 67.237 75.663 67.5004 75 67.5004H5C4.33696 67.5004 3.70107 67.237 3.23223 66.7682C2.76339 66.2993 2.5 65.6634 2.5 65.0004C2.5 64.3374 2.76339 63.7015 3.23223 63.2326C3.70107 62.7638 4.33696 62.5004 5 62.5004H75C75.663 62.5004 76.2989 62.7638 76.7678 63.2326C77.2366 63.7015 77.5 64.3374 77.5 65.0004Z" fill="url(#paint1_linear_13_1852)"/>
<defs>
<linearGradient id="paint0_linear_13_1852" x1="40" y1="10" x2="40" y2="30" gradientUnits="userSpaceOnUse">
<stop stop-color="#3DFFB9"/>
<stop offset="1" stop-color="#24996F"/>
</linearGradient>
<linearGradient id="paint1_linear_13_1852" x1="40" y1="7.50195" x2="40" y2="67.5004" gradientUnits="userSpaceOnUse">
<stop stop-color="#3DFFB9"/>
<stop offset="1" stop-color="#24996F"/>
</linearGradient>
</defs>
</svg>
