<svg width="80" height="80" viewBox="0 0 80 80" fill="none" xmlns="http://www.w3.org/2000/svg">
<g id="Frame">
<path id="Vector" opacity="0.2" d="M67.5 17.5V35C67.5 65 40 72.5 40 72.5C40 72.5 12.5 65 12.5 35V17.5C12.5 16.837 12.7634 16.2011 13.2322 15.7322C13.7011 15.2634 14.337 15 15 15H65C65.663 15 66.2989 15.2634 66.7678 15.7322C67.2366 16.2011 67.5 16.837 67.5 17.5Z" fill="url(#paint0_linear_0_21481)"/>
<path id="Vector_2" d="M65 12.5H15C13.6739 12.5 12.4021 13.0268 11.4645 13.9645C10.5268 14.9021 10 16.1739 10 17.5V35C10 51.475 17.975 61.4594 24.6656 66.9344C31.8719 72.8281 39.0406 74.8281 39.3531 74.9125C39.7828 75.0294 40.2359 75.0294 40.6656 74.9125C40.9781 74.8281 48.1375 72.8281 55.3531 66.9344C62.025 61.4594 70 51.475 70 35V17.5C70 16.1739 69.4732 14.9021 68.5355 13.9645C67.5979 13.0268 66.3261 12.5 65 12.5ZM65 35C65 46.5844 60.7312 55.9875 52.3125 62.9437C48.6478 65.9616 44.4798 68.31 40 69.8812C35.5788 68.3374 31.4623 66.0306 27.8375 63.0656C19.3188 56.0969 15 46.6562 15 35V17.5H65V35ZM25.7312 44.2688C25.2621 43.7997 24.9986 43.1634 24.9986 42.5C24.9986 41.8366 25.2621 41.2003 25.7312 40.7312C26.2003 40.2621 26.8366 39.9986 27.5 39.9986C28.1634 39.9986 28.7997 40.2621 29.2688 40.7312L35 46.4656L50.7312 30.7312C50.9635 30.499 51.2393 30.3147 51.5428 30.189C51.8462 30.0633 52.1715 29.9986 52.5 29.9986C52.8285 29.9986 53.1538 30.0633 53.4572 30.189C53.7607 30.3147 54.0365 30.499 54.2688 30.7312C54.501 30.9635 54.6853 31.2393 54.811 31.5428C54.9367 31.8462 55.0014 32.1715 55.0014 32.5C55.0014 32.8285 54.9367 33.1538 54.811 33.4572C54.6853 33.7607 54.501 34.0365 54.2688 34.2688L36.7688 51.7688C36.5366 52.0012 36.2608 52.1856 35.9574 52.3114C35.6539 52.4372 35.3285 52.502 35 52.502C34.6715 52.502 34.3461 52.4372 34.0426 52.3114C33.7392 52.1856 33.4634 52.0012 33.2312 51.7688L25.7312 44.2688Z" fill="url(#paint1_linear_0_21481)"/>
</g>
<defs>
<linearGradient id="paint0_linear_0_21481" x1="40" y1="15" x2="40" y2="72.5" gradientUnits="userSpaceOnUse">
<stop stop-color="#3DFFB9"/>
<stop offset="1" stop-color="#24996F"/>
</linearGradient>
<linearGradient id="paint1_linear_0_21481" x1="40" y1="12.5" x2="40" y2="75.0002" gradientUnits="userSpaceOnUse">
<stop stop-color="#3DFFB9"/>
<stop offset="1" stop-color="#24996F"/>
</linearGradient>
</defs>
</svg>
