<svg width="80" height="80" viewBox="0 0 80 80" fill="none" xmlns="http://www.w3.org/2000/svg">
<path opacity="0.2" d="M70 40C70 45.9334 68.2405 51.7336 64.9441 56.6671C61.6477 61.6006 56.9623 65.4458 51.4805 67.7164C45.9987 69.987 39.9667 70.5811 34.1473 69.4236C28.3279 68.266 22.9824 65.4088 18.7868 61.2132C14.5912 57.0176 11.734 51.6721 10.5765 45.8527C9.4189 40.0333 10.013 34.0013 12.2836 28.5195C14.5543 23.0377 18.3994 18.3524 23.3329 15.0559C28.2664 11.7595 34.0666 10 40 10C47.9565 10 55.5871 13.1607 61.2132 18.7868C66.8393 24.4129 70 32.0435 70 40Z" fill="url(#paint0_linear_13_1857)"/>
<path d="M40 7.5C33.5721 7.5 27.2886 9.40609 21.944 12.9772C16.5994 16.5484 12.4338 21.6242 9.97393 27.5628C7.51408 33.5014 6.87047 40.0361 8.12449 46.3404C9.37851 52.6448 12.4738 58.4358 17.019 62.981C21.5643 67.5262 27.3552 70.6215 33.6596 71.8755C39.964 73.1295 46.4986 72.4859 52.4372 70.0261C58.3758 67.5662 63.4516 63.4006 67.0228 58.056C70.5939 52.7114 72.5 46.4279 72.5 40C72.4909 31.3833 69.0639 23.122 62.9709 17.0291C56.878 10.9361 48.6168 7.5091 40 7.5ZM40 67.5C34.561 67.5 29.2442 65.8872 24.7218 62.8654C20.1995 59.8437 16.6747 55.5488 14.5933 50.5238C12.5119 45.4988 11.9673 39.9695 13.0284 34.635C14.0895 29.3005 16.7086 24.4005 20.5546 20.5546C24.4005 16.7086 29.3006 14.0895 34.635 13.0284C39.9695 11.9673 45.4988 12.5119 50.5238 14.5933C55.5488 16.6747 59.8437 20.1995 62.8654 24.7218C65.8872 29.2442 67.5 34.561 67.5 40C67.4917 47.2909 64.5918 54.2808 59.4363 59.4363C54.2809 64.5918 47.2909 67.4917 40 67.5ZM60 40C60 40.663 59.7366 41.2989 59.2678 41.7678C58.7989 42.2366 58.1631 42.5 57.5 42.5H40C39.337 42.5 38.7011 42.2366 38.2322 41.7678C37.7634 41.2989 37.5 40.663 37.5 40V22.5C37.5 21.837 37.7634 21.2011 38.2322 20.7322C38.7011 20.2634 39.337 20 40 20C40.6631 20 41.2989 20.2634 41.7678 20.7322C42.2366 21.2011 42.5 21.837 42.5 22.5V37.5H57.5C58.1631 37.5 58.7989 37.7634 59.2678 38.2322C59.7366 38.7011 60 39.337 60 40Z" fill="url(#paint1_linear_13_1857)"/>
<defs>
<linearGradient id="paint0_linear_13_1857" x1="40" y1="10" x2="40" y2="70" gradientUnits="userSpaceOnUse">
<stop stop-color="#3DFFB9"/>
<stop offset="1" stop-color="#24996F"/>
</linearGradient>
<linearGradient id="paint1_linear_13_1857" x1="40" y1="7.5" x2="40" y2="72.5" gradientUnits="userSpaceOnUse">
<stop stop-color="#3DFFB9"/>
<stop offset="1" stop-color="#24996F"/>
</linearGradient>
</defs>
</svg>
