<svg width="64" height="64" viewBox="0 0 64 64" fill="none" xmlns="http://www.w3.org/2000/svg">
<g id="Frame">
<path id="Vector" opacity="0.2" d="M56 14V52H8V12H54C54.5304 12 55.0391 12.2107 55.4142 12.5858C55.7893 12.9609 56 13.4696 56 14Z" fill="url(#paint0_linear_13_372)"/>
<path id="Vector_2" d="M58 52C58 52.5304 57.7893 53.0391 57.4142 53.4142C57.0392 53.7893 56.5304 54 56 54H8C7.46957 54 6.96086 53.7893 6.58579 53.4142C6.21071 53.0391 6 52.5304 6 52V12C6 11.4696 6.21071 10.9609 6.58579 10.5858C6.96086 10.2107 7.46957 10 8 10C8.53043 10 9.03914 10.2107 9.41421 10.5858C9.78929 10.9609 10 11.4696 10 12V35.5925L22.6825 24.5C23.0276 24.1979 23.4661 24.0236 23.9244 24.0063C24.3827 23.989 24.8331 24.1298 25.2 24.405L39.9025 35.4325L54.6825 22.5C54.8763 22.3082 55.1073 22.158 55.3612 22.0587C55.6152 21.9594 55.8868 21.9131 56.1593 21.9226C56.4318 21.9321 56.6995 21.9972 56.9459 22.114C57.1923 22.2308 57.4122 22.3967 57.5922 22.6015C57.7721 22.8064 57.9083 23.0459 57.9923 23.3053C58.0763 23.5648 58.1063 23.8386 58.0806 24.1101C58.0549 24.3815 57.9739 24.6449 57.8427 24.8839C57.7115 25.1229 57.5327 25.3326 57.3175 25.5L41.3175 39.5C40.9724 39.8021 40.5339 39.9764 40.0756 39.9937C39.6173 40.011 39.1669 39.8702 38.8 39.595L24.0975 28.5725L10 40.9075V50H56C56.5304 50 57.0392 50.2107 57.4142 50.5858C57.7893 50.9609 58 51.4696 58 52Z" fill="url(#paint1_linear_13_372)"/>
</g>
<defs>
<linearGradient id="paint0_linear_13_372" x1="32" y1="12" x2="32" y2="52" gradientUnits="userSpaceOnUse">
<stop stop-color="#3DFFB9"/>
<stop offset="1" stop-color="#24996F"/>
</linearGradient>
<linearGradient id="paint1_linear_13_372" x1="32.0448" y1="10" x2="32.0448" y2="54" gradientUnits="userSpaceOnUse">
<stop stop-color="#3DFFB9"/>
<stop offset="1" stop-color="#24996F"/>
</linearGradient>
</defs>
</svg>
