<svg width="96" height="96" viewBox="0 0 96 96" fill="none" xmlns="http://www.w3.org/2000/svg">
<g id="Frame">
<path id="Vector" opacity="0.2" d="M84 48C84 55.1201 81.8886 62.0804 77.9329 68.0005C73.9772 73.9207 68.3548 78.5349 61.7766 81.2597C55.1985 83.9844 47.9601 84.6973 40.9768 83.3083C33.9935 81.9192 27.5789 78.4905 22.5442 73.4558C17.5095 68.4212 14.0808 62.0066 12.6917 55.0233C11.3027 48.0399 12.0156 40.8015 14.7404 34.2234C17.4651 27.6453 22.0793 22.0228 27.9995 18.0671C33.9197 14.1114 40.8799 12 48 12C57.5478 12 66.7046 15.7928 73.4559 22.5442C80.2072 29.2955 84 38.4522 84 48Z" fill="url(#paint0_linear_13_487)"/>
<path id="Vector_2" d="M65.1225 36.8775C65.4014 37.1561 65.6227 37.487 65.7737 37.8512C65.9247 38.2154 66.0024 38.6058 66.0024 39C66.0024 39.3942 65.9247 39.7846 65.7737 40.1488C65.6227 40.513 65.4014 40.8439 65.1225 41.1225L44.1225 62.1225C43.8439 62.4014 43.513 62.6227 43.1488 62.7737C42.7846 62.9247 42.3943 63.0024 42 63.0024C41.6058 63.0024 41.2154 62.9247 40.8512 62.7737C40.487 62.6227 40.1561 62.4014 39.8775 62.1225L30.8775 53.1225C30.3146 52.5596 29.9983 51.7961 29.9983 51C29.9984 50.2039 30.3146 49.4404 30.8775 48.8775C31.4404 48.3146 32.2039 47.9983 33 47.9983C33.7961 47.9983 34.5596 48.3146 35.1225 48.8775L42 55.7588L60.8775 36.8775C61.1561 36.5986 61.487 36.3773 61.8512 36.2263C62.2154 36.0753 62.6058 35.9976 63 35.9976C63.3943 35.9976 63.7846 36.0753 64.1488 36.2263C64.513 36.3773 64.8439 36.5986 65.1225 36.8775ZM87 48C87 55.7135 84.7127 63.2537 80.4273 69.6672C76.142 76.0808 70.051 81.0795 62.9247 84.0313C55.7984 86.9831 47.9568 87.7554 40.3915 86.2506C32.8262 84.7458 25.8771 81.0314 20.4229 75.5772C14.9686 70.1229 11.2542 63.1738 9.74939 55.6085C8.24457 48.0433 9.0169 40.2017 11.9687 33.0753C14.9205 25.949 19.9193 19.8581 26.3328 15.5727C32.7463 11.2873 40.2865 9 48 9C58.3401 9.01092 68.2536 13.1233 75.5651 20.4349C82.8767 27.7464 86.9891 37.6599 87 48ZM81 48C81 41.4732 79.0646 35.093 75.4385 29.6662C71.8124 24.2394 66.6585 20.0097 60.6286 17.512C54.5986 15.0143 47.9634 14.3608 41.562 15.6341C35.1607 16.9074 29.2806 20.0503 24.6655 24.6655C20.0504 29.2806 16.9074 35.1606 15.6341 41.562C14.3608 47.9634 15.0143 54.5986 17.512 60.6286C20.0097 66.6585 24.2394 71.8124 29.6662 75.4385C35.093 79.0646 41.4732 81 48 81C56.7491 80.9901 65.137 77.5101 71.3236 71.3236C77.5101 65.137 80.9901 56.7491 81 48Z" fill="url(#paint1_linear_13_487)"/>
</g>
<defs>
<linearGradient id="paint0_linear_13_487" x1="48" y1="12" x2="48" y2="84" gradientUnits="userSpaceOnUse">
<stop stop-color="#3DFFB9"/>
<stop offset="1" stop-color="#24996F"/>
</linearGradient>
<linearGradient id="paint1_linear_13_487" x1="48" y1="9" x2="48" y2="87" gradientUnits="userSpaceOnUse">
<stop stop-color="#3DFFB9"/>
<stop offset="1" stop-color="#24996F"/>
</linearGradient>
</defs>
</svg>
