<svg width="80" height="80" viewBox="0 0 80 80" fill="none" xmlns="http://www.w3.org/2000/svg">
<g id="Frame" clip-path="url(#clip0_13_663)">
<path id="Vector" opacity="0.2" d="M5 47.5H15V65H5C4.33696 65 3.70107 64.7366 3.23223 64.2677C2.76339 63.7989 2.5 63.163 2.5 62.5V50C2.5 49.3369 2.76339 48.7011 3.23223 48.2322C3.70107 47.7634 4.33696 47.5 5 47.5ZM63.75 17.5C62.4527 17.5008 61.1718 17.7901 60 18.3469C59.9149 16.4702 59.2281 14.6707 58.0411 13.2146C56.8542 11.7585 55.2301 10.7231 53.4091 10.2615C51.5881 9.79983 49.6669 9.93652 47.9296 10.6513C46.1923 11.3661 44.7312 12.6211 43.7624 14.2305C42.7935 15.84 42.3684 17.7186 42.5499 19.5884C42.7314 21.4582 43.5098 23.22 44.7701 24.6131C46.0303 26.0063 47.7055 26.9568 49.5478 27.3242C51.3901 27.6916 53.3018 27.4563 55 26.6531C55.0789 28.3643 55.6584 30.0147 56.6666 31.3996C57.6747 32.7846 59.0672 33.8431 60.6714 34.444C62.2756 35.0449 64.0209 35.1617 65.6908 34.7799C67.3607 34.3981 68.8819 33.5346 70.0656 32.2963C71.2493 31.0581 72.0435 29.4996 72.3498 27.8142C72.656 26.1287 72.4608 24.3905 71.7883 22.815C71.1158 21.2395 69.9956 19.896 68.5667 18.9512C67.1378 18.0064 65.463 17.5018 63.75 17.5Z" fill="#28FFB2"/>
<path id="Vector_2" d="M71.9781 44.0813C71.0478 43.3655 69.965 42.8739 68.8139 42.6446C67.6627 42.4154 66.4742 42.4546 65.3406 42.7594L52.2656 45.7656C52.5698 44.4806 52.5792 43.1434 52.2931 41.8542C52.007 40.5651 51.4328 39.3574 50.6136 38.3217C49.7943 37.286 48.7513 36.4491 47.5626 35.8739C46.374 35.2986 45.0705 34.9999 43.75 35H28.1063C26.7925 34.9967 25.4911 35.2538 24.2773 35.7564C23.0635 36.259 21.9613 36.9971 21.0344 37.9281L13.9656 45H5C3.67392 45 2.40215 45.5268 1.46447 46.4645C0.526784 47.4022 0 48.6739 0 50L0 62.5C0 63.8261 0.526784 65.0979 1.46447 66.0355C2.40215 66.9732 3.67392 67.5 5 67.5H37.5C37.7044 67.5001 37.908 67.4749 38.1063 67.425L58.1063 62.425C58.2337 62.3947 58.3582 62.3528 58.4781 62.3L70.625 57.1313L70.7625 57.0688C71.9299 56.4854 72.9296 55.6145 73.6674 54.538C74.4052 53.4615 74.8567 52.215 74.9796 50.9157C75.1025 49.6165 74.8925 48.3073 74.3696 47.1117C73.8467 45.916 73.028 44.8731 71.9906 44.0813H71.9781ZM5 50H12.5V62.5H5V50ZM68.5719 52.5656L56.6969 57.6219L37.1875 62.5H17.5V48.5344L24.5719 41.4656C25.0345 40.9993 25.5852 40.6296 26.1919 40.378C26.7987 40.1264 27.4494 39.9979 28.1063 40H43.75C44.7446 40 45.6984 40.3951 46.4016 41.0984C47.1049 41.8016 47.5 42.7554 47.5 43.75C47.5 44.7446 47.1049 45.6984 46.4016 46.4017C45.6984 47.1049 44.7446 47.5 43.75 47.5H35C34.337 47.5 33.7011 47.7634 33.2322 48.2322C32.7634 48.7011 32.5 49.337 32.5 50C32.5 50.663 32.7634 51.2989 33.2322 51.7678C33.7011 52.2366 34.337 52.5 35 52.5H45C45.1882 52.4995 45.3757 52.4785 45.5594 52.4375L66.4969 47.6219L66.5938 47.5969C67.2329 47.4194 67.9151 47.4846 68.5091 47.7799C69.103 48.0752 69.5668 48.5798 69.8112 49.1965C70.0555 49.8131 70.0632 50.4984 69.8326 51.1204C69.6021 51.7424 69.1497 52.2571 68.5625 52.5656H68.5719ZM51.25 30C51.8677 30.0007 52.4843 29.9505 53.0938 29.85C53.7792 31.8861 55.0334 33.6833 56.7079 35.0292C58.3824 36.3751 60.4073 37.2134 62.5432 37.4449C64.679 37.6765 66.8365 37.2916 68.7606 36.3359C70.6846 35.3801 72.2948 33.8934 73.4007 32.0516C74.5066 30.2097 75.062 28.0897 75.0012 25.9422C74.9404 23.7947 74.266 21.7095 73.0577 19.9331C71.8494 18.1568 70.1577 16.7635 68.1827 15.9181C66.2076 15.0727 64.0318 14.8105 61.9125 15.1625C61.2525 13.2008 60.064 11.4592 58.478 10.1293C56.8919 8.79946 54.9698 7.93295 52.923 7.62512C50.8762 7.31729 48.7842 7.58008 46.8771 8.38458C44.9701 9.18908 43.322 10.5041 42.1141 12.1849C40.9062 13.8657 40.1855 15.8471 40.0312 17.9112C39.8768 19.9752 40.2949 22.0418 41.2394 23.8835C42.1839 25.7253 43.6181 27.2708 45.3843 28.3499C47.1505 29.4291 49.1802 30 51.25 30ZM70 26.25C70 27.4861 69.6334 28.6945 68.9467 29.7223C68.2599 30.7501 67.2838 31.5512 66.1418 32.0243C64.9997 32.4973 63.7431 32.6211 62.5307 32.3799C61.3183 32.1388 60.2047 31.5435 59.3306 30.6694C58.4565 29.7953 57.8612 28.6817 57.6201 27.4693C57.3789 26.2569 57.5027 25.0003 57.9758 23.8582C58.4488 22.7162 59.2499 21.7401 60.2777 21.0533C61.3055 20.3666 62.5139 20 63.75 20C65.4076 20 66.9973 20.6585 68.1694 21.8306C69.3415 23.0027 70 24.5924 70 26.25ZM51.25 12.5C52.6135 12.5007 53.9393 12.9472 55.0254 13.7715C56.1114 14.5958 56.8982 15.7526 57.2656 17.0656C55.9852 17.9666 54.9069 19.1248 54.0998 20.4663C53.2926 21.8078 52.7744 23.303 52.5781 24.8563C52.1417 24.9505 51.6965 24.9987 51.25 25C49.5924 25 48.0027 24.3415 46.8306 23.1694C45.6585 21.9973 45 20.4076 45 18.75C45 17.0924 45.6585 15.5027 46.8306 14.3306C48.0027 13.1585 49.5924 12.5 51.25 12.5Z" fill="url(#paint0_linear_13_663)"/>
</g>
<defs>
<linearGradient id="paint0_linear_13_663" x1="37.5069" y1="7.5" x2="37.5069" y2="67.5" gradientUnits="userSpaceOnUse">
<stop stop-color="#3DFFB9"/>
<stop offset="1" stop-color="#24996F"/>
</linearGradient>
<clipPath id="clip0_13_663">
<rect width="80" height="80" fill="white"/>
</clipPath>
</defs>
</svg>
