<svg width="64" height="64" viewBox="0 0 64 64" fill="none" xmlns="http://www.w3.org/2000/svg">
<g id="Frame">
<path id="Vector" opacity="0.2" d="M54 12V24H42L54 12ZM10 52L22 40H10V52Z" fill="url(#paint0_linear_13_390)"/>
<path id="Vector_2" d="M54.765 10.1525C54.3996 10.0009 53.9974 9.96108 53.6094 10.0381C53.2214 10.1151 52.8649 10.3054 52.585 10.585L48.57 14.6025C43.5325 10.275 37.84 8 32 8C21.295 8 14.855 14.3175 14.585 14.585C14.2097 14.9603 13.9989 15.4693 13.9989 16C13.9989 16.5307 14.2097 17.0397 14.585 17.415C14.9603 17.7903 15.4693 18.0011 16 18.0011C16.5307 18.0011 17.0397 17.7903 17.415 17.415C17.4675 17.36 22.9325 12 32 12C37.7925 12 42.48 14.7125 45.73 17.44L40.585 22.585C40.305 22.8647 40.1142 23.2212 40.0369 23.6094C39.9596 23.9976 39.9993 24.3999 40.1508 24.7656C40.3023 25.1312 40.5588 25.4437 40.888 25.6634C41.2172 25.8832 41.6042 26.0003 42 26H54C54.5304 26 55.0391 25.7893 55.4142 25.4142C55.7893 25.0391 56 24.5304 56 24V12C55.9999 11.6044 55.8825 11.2178 55.6627 10.8889C55.4429 10.5601 55.1305 10.3038 54.765 10.1525ZM52 22H46.8275L52 16.8275V22ZM46.585 46.585C46.5325 46.64 41.0675 52 32 52C26.2075 52 21.52 49.2875 18.27 46.56L23.415 41.415C23.695 41.1353 23.8858 40.7788 23.9631 40.3906C24.0404 40.0024 24.0008 39.6001 23.8492 39.2344C23.6977 38.8688 23.4412 38.5563 23.112 38.3366C22.7828 38.1168 22.3958 37.9997 22 38H10C9.46957 38 8.96086 38.2107 8.58579 38.5858C8.21071 38.9609 8 39.4696 8 40V52C7.99969 52.3958 8.11682 52.7828 8.33656 53.112C8.5563 53.4412 8.86877 53.6977 9.23442 53.8492C9.60007 54.0007 10.0024 54.0404 10.3906 53.9631C10.7788 53.8858 11.1353 53.695 11.415 53.415L15.43 49.3975C20.4675 53.725 26.16 56 32 56C42.705 56 49.145 49.6825 49.415 49.415C49.7903 49.0397 50.0011 48.5307 50.0011 48C50.0011 47.4693 49.7903 46.9603 49.415 46.585C49.0397 46.2097 48.5307 45.9989 48 45.9989C47.4693 45.9989 46.9603 46.2097 46.585 46.585ZM12 42H17.1725L12 47.1725V42Z" fill="url(#paint1_linear_13_390)"/>
</g>
<defs>
<linearGradient id="paint0_linear_13_390" x1="32" y1="12" x2="32" y2="52" gradientUnits="userSpaceOnUse">
<stop stop-color="#3DFFB9"/>
<stop offset="1" stop-color="#24996F"/>
</linearGradient>
<linearGradient id="paint1_linear_13_390" x1="32" y1="8" x2="32" y2="56" gradientUnits="userSpaceOnUse">
<stop stop-color="#3DFFB9"/>
<stop offset="1" stop-color="#24996F"/>
</linearGradient>
</defs>
</svg>
