<svg width="80" height="80" viewBox="0 0 80 80" fill="none" xmlns="http://www.w3.org/2000/svg">
<g id="Frame">
<path id="Vector" opacity="0.2" d="M52.5 45C52.5 47.4723 51.7669 49.889 50.3934 51.9446C49.0199 54.0002 47.0676 55.6024 44.7836 56.5485C42.4995 57.4946 39.9861 57.7421 37.5614 57.2598C35.1366 56.7775 32.9093 55.587 31.1612 53.8388C29.413 52.0907 28.2225 49.8634 27.7402 47.4386C27.2579 45.0139 27.5054 42.5005 28.4515 40.2165C29.3976 37.9324 30.9998 35.9801 33.0554 34.6066C35.111 33.2331 37.5277 32.5 40 32.5C43.3152 32.5 46.4946 33.817 48.8388 36.1612C51.183 38.5054 52.5 41.6848 52.5 45ZM20 17.5C18.0222 17.5 16.0888 18.0865 14.4443 19.1853C12.7998 20.2841 11.5181 21.8459 10.7612 23.6732C10.0043 25.5004 9.8063 27.5111 10.1922 29.4509C10.578 31.3907 11.5304 33.1725 12.9289 34.5711C14.3275 35.9696 16.1093 36.922 18.0491 37.3079C19.9889 37.6937 21.9996 37.4957 23.8268 36.7388C25.6541 35.9819 27.2159 34.7002 28.3147 33.0557C29.4135 31.4112 30 29.4778 30 27.5C30 24.8478 28.9464 22.3043 27.0711 20.4289C25.1957 18.5536 22.6522 17.5 20 17.5ZM60 17.5C58.0222 17.5 56.0888 18.0865 54.4443 19.1853C52.7998 20.2841 51.5181 21.8459 50.7612 23.6732C50.0043 25.5004 49.8063 27.5111 50.1922 29.4509C50.578 31.3907 51.5304 33.1725 52.9289 34.5711C54.3275 35.9696 56.1093 36.922 58.0491 37.3079C59.9889 37.6937 61.9996 37.4957 63.8268 36.7388C65.6541 35.9819 67.2159 34.7002 68.3147 33.0557C69.4135 31.4112 70 29.4778 70 27.5C70 24.8478 68.9464 22.3043 67.0711 20.4289C65.1957 18.5536 62.6522 17.5 60 17.5Z" fill="url(#paint0_linear_13_684)"/>
<path id="Vector_2" d="M76.5 47.0002C76.2373 47.1972 75.9385 47.3405 75.6204 47.422C75.3024 47.5035 74.9714 47.5215 74.6464 47.4751C74.3214 47.4287 74.0087 47.3187 73.7262 47.1514C73.4437 46.9841 73.197 46.7629 73 46.5002C71.4931 44.4748 69.5318 42.8315 67.2738 41.7025C65.0159 40.5735 62.5244 39.9904 60 40.0002C59.3369 40.0002 58.701 39.7368 58.2322 39.268C57.7634 38.7992 57.5 38.1633 57.5 37.5002C57.5 36.8372 57.7634 36.2013 58.2322 35.7325C58.701 35.2636 59.3369 35.0002 60 35.0002C61.4027 35.0001 62.7773 34.6066 63.9676 33.8644C65.1579 33.1222 66.1162 32.0611 66.7336 30.8016C67.3511 29.5421 67.6029 28.1347 67.4606 26.7392C67.3183 25.3437 66.7874 24.0161 65.9284 22.9072C65.0693 21.7983 63.9165 20.9525 62.6009 20.4659C61.2853 19.9793 59.8596 19.8715 58.4857 20.1546C57.1118 20.4376 55.8449 21.1003 54.8288 22.0674C53.8127 23.0344 53.0882 24.267 52.7375 25.6252C52.6554 25.9433 52.5115 26.242 52.3139 26.5045C52.1164 26.7669 51.8691 26.9878 51.5862 27.1547C51.3033 27.3216 50.9902 27.431 50.665 27.4769C50.3397 27.5228 50.0086 27.5042 49.6906 27.4221C49.3726 27.34 49.0738 27.1961 48.8114 26.9986C48.5489 26.801 48.328 26.5537 48.1611 26.2708C47.9943 25.9879 47.8848 25.6749 47.8389 25.3496C47.793 25.0244 47.8116 24.6933 47.8937 24.3752C48.3805 22.4918 49.3 20.748 50.5793 19.2826C51.8586 17.8171 53.4622 16.6705 55.2626 15.9338C57.063 15.1972 59.0105 14.8909 60.9501 15.0394C62.8897 15.1879 64.7679 15.787 66.4352 16.789C68.1025 17.7911 69.513 19.1685 70.5543 20.8115C71.5956 22.4546 72.2391 24.3181 72.4335 26.2536C72.6279 28.1891 72.3679 30.1433 71.6742 31.9607C70.9805 33.7781 69.8722 35.4084 68.4375 36.7221C71.8369 38.194 74.792 40.5296 77.0093 43.4971C77.2063 43.7604 77.3494 44.06 77.4304 44.3787C77.5114 44.6974 77.5288 45.0289 77.4815 45.3544C77.4342 45.6798 77.3231 45.9926 77.1547 46.2751C76.9863 46.5575 76.7638 46.8039 76.5 47.0002ZM59.6625 66.2502C59.837 66.5348 59.9528 66.8515 60.0029 67.1815C60.0531 67.5116 60.0367 67.8484 59.9546 68.1719C59.8725 68.4955 59.7264 68.7994 59.525 69.0657C59.3236 69.3319 59.0709 69.5551 58.7818 69.722C58.4927 69.889 58.1731 69.9964 57.8418 70.0379C57.5106 70.0793 57.1744 70.054 56.853 69.9635C56.5317 69.8729 56.2318 69.7189 55.971 69.5105C55.7101 69.3021 55.4937 69.0436 55.3344 68.7502C53.7593 66.0843 51.5165 63.875 48.8272 62.3402C46.1378 60.8055 43.0949 59.9983 39.9984 59.9983C36.902 59.9983 33.859 60.8055 31.1697 62.3402C28.4803 63.875 26.2375 66.0843 24.6625 68.7502C24.5062 69.049 24.2911 69.3131 24.0301 69.5265C23.7691 69.74 23.4676 69.8985 23.1438 69.9924C22.82 70.0864 22.4805 70.1138 22.1458 70.0732C21.8111 70.0325 21.4881 69.9246 21.1961 69.7558C20.9042 69.5871 20.6495 69.3611 20.4472 69.0913C20.2449 68.8216 20.0993 68.5137 20.019 68.1862C19.9388 67.8587 19.9257 67.5184 19.9804 67.1857C20.0351 66.853 20.1566 66.5348 20.3375 66.2502C22.7612 62.0858 26.4568 58.8086 30.8812 56.9002C28.3916 54.9941 26.5619 52.3557 25.6493 49.3559C24.7368 46.3562 24.7872 43.1458 25.7935 40.1762C26.7998 37.2065 28.7114 34.6269 31.2596 32.7998C33.8078 30.9728 36.8645 29.9902 40 29.9902C43.1355 29.9902 46.1922 30.9728 48.7404 32.7998C51.2886 34.6269 53.2002 37.2065 54.2065 40.1762C55.2128 43.1458 55.2632 46.3562 54.3506 49.3559C53.438 52.3557 51.6083 54.9941 49.1187 56.9002C53.5431 58.8086 57.2387 62.0858 59.6625 66.2502ZM40 55.0002C41.9778 55.0002 43.9112 54.4137 45.5557 53.3149C47.2002 52.2161 48.4819 50.6543 49.2388 48.8271C49.9956 46.9998 50.1937 44.9891 49.8078 43.0493C49.422 41.1095 48.4696 39.3277 47.071 37.9292C45.6725 36.5306 43.8907 35.5782 41.9509 35.1924C40.0111 34.8065 38.0004 35.0046 36.1731 35.7614C34.3459 36.5183 32.7841 37.8 31.6853 39.4445C30.5865 41.089 30 43.0224 30 45.0002C30 47.6524 31.0535 50.1959 32.9289 52.0713C34.8043 53.9467 37.3478 55.0002 40 55.0002ZM22.5 37.5002C22.5 36.8372 22.2366 36.2013 21.7677 35.7325C21.2989 35.2636 20.663 35.0002 20 35.0002C18.5972 35.0001 17.2227 34.6066 16.0324 33.8644C14.8421 33.1222 13.8838 32.0611 13.2663 30.8016C12.6489 29.5421 12.397 28.1347 12.5393 26.7392C12.6817 25.3437 13.2125 24.0161 14.0716 22.9072C14.9306 21.7983 16.0834 20.9525 17.399 20.4659C18.7147 19.9793 20.1404 19.8715 21.5142 20.1546C22.8881 20.4376 24.155 21.1003 25.1711 22.0674C26.1872 23.0344 26.9118 24.267 27.2625 25.6252C27.4282 26.2676 27.8424 26.8177 28.4138 27.1547C28.9852 27.4917 29.667 27.5879 30.3093 27.4221C30.9517 27.2563 31.5018 26.8422 31.8388 26.2708C32.1758 25.6994 32.272 25.0176 32.1062 24.3752C31.6195 22.4918 30.6999 20.748 29.4206 19.2826C28.1414 17.8171 26.5377 16.6705 24.7373 15.9338C22.9369 15.1972 20.9894 14.8909 19.0498 15.0394C17.1102 15.1879 15.2321 15.787 13.5647 16.789C11.8974 17.7911 10.487 19.1685 9.44566 20.8115C8.40433 22.4546 7.76086 24.3181 7.56644 26.2536C7.37201 28.1891 7.63201 30.1433 8.32573 31.9607C9.01946 33.7781 10.1278 35.4084 11.5625 36.7221C8.16648 38.1954 5.2147 40.5309 2.99997 43.4971C2.60173 44.0275 2.43052 44.6944 2.52399 45.3511C2.61747 46.0078 2.96798 46.6004 3.49841 46.9987C4.02884 47.3969 4.69575 47.5681 5.35242 47.4747C6.00909 47.3812 6.60173 47.0307 6.99997 46.5002C8.5068 44.4748 10.4681 42.8315 12.7261 41.7025C14.984 40.5735 17.4755 39.9904 20 40.0002C20.663 40.0002 21.2989 39.7368 21.7677 39.268C22.2366 38.7992 22.5 38.1633 22.5 37.5002Z" fill="url(#paint1_linear_13_684)"/>
</g>
<defs>
<linearGradient id="paint0_linear_13_684" x1="40" y1="17.5" x2="40" y2="57.5" gradientUnits="userSpaceOnUse">
<stop stop-color="#3DFFB9"/>
<stop offset="1" stop-color="#24996F"/>
</linearGradient>
<linearGradient id="paint1_linear_13_684" x1="40.0033" y1="15.0029" x2="40.0033" y2="70.0914" gradientUnits="userSpaceOnUse">
<stop stop-color="#3DFFB9"/>
<stop offset="1" stop-color="#24996F"/>
</linearGradient>
</defs>
</svg>
