<svg width="48" height="48" viewBox="0 0 48 48" fill="none" xmlns="http://www.w3.org/2000/svg">
<path opacity="0.2" d="M25.5 20.25C25.5 22.1784 24.9282 24.0634 23.8568 25.6668C22.7855 27.2702 21.2627 28.5199 19.4812 29.2578C17.6996 29.9958 15.7392 30.1889 13.8479 29.8127C11.9566 29.4365 10.2193 28.5079 8.85571 27.1443C7.49215 25.7807 6.56355 24.0434 6.18735 22.1521C5.81114 20.2608 6.00422 18.3004 6.74218 16.5188C7.48013 14.7373 8.72982 13.2145 10.3332 12.1432C11.9366 11.0718 13.8216 10.5 15.75 10.5C18.3359 10.5 20.8158 11.5272 22.6443 13.3557C24.4728 15.1842 25.5 17.6641 25.5 20.25Z" fill="url(#paint0_linear_1_6669)"/>
<path d="M21.9842 29.6102C23.9946 28.2718 25.5209 26.3219 26.3374 24.049C27.1539 21.7761 27.2173 19.3007 26.5182 16.989C25.819 14.6772 24.3945 12.6519 22.4553 11.2123C20.516 9.77283 18.165 8.99561 15.7498 8.99561C13.3347 8.99561 10.9837 9.77283 9.04442 11.2123C7.10517 12.6519 5.68065 14.6772 4.98152 16.989C4.28239 19.3007 4.34577 21.7761 5.16228 24.049C5.9788 26.3219 7.5051 28.2718 9.51547 29.6102C5.8789 30.9505 2.77317 33.4307 0.661724 36.6808C0.550753 36.8457 0.473673 37.0311 0.434964 37.2261C0.396254 37.421 0.396688 37.6218 0.436239 37.8166C0.47579 38.0114 0.55367 38.1964 0.665351 38.3609C0.777033 38.5253 0.920289 38.6659 1.08679 38.7745C1.25329 38.8831 1.43972 38.9575 1.63524 38.9935C1.83076 39.0294 2.03146 39.0261 2.22569 38.9837C2.41992 38.9414 2.6038 38.8609 2.76663 38.7469C2.92947 38.6328 3.06802 38.4876 3.17422 38.3195C4.5362 36.2248 6.39989 34.5034 8.59604 33.3118C10.7922 32.1201 13.2512 31.496 15.7498 31.496C18.2485 31.496 20.7075 32.1201 22.9037 33.3118C25.0998 34.5034 26.9635 36.2248 28.3255 38.3195C28.5455 38.6465 28.8853 38.8738 29.2716 38.9522C29.6578 39.0306 30.0594 38.9539 30.3895 38.7386C30.7196 38.5233 30.9517 38.1867 31.0356 37.8016C31.1195 37.4166 31.0485 37.0139 30.838 36.6808C28.7265 33.4307 25.6208 30.9505 21.9842 29.6102ZM7.49985 20.2502C7.49985 18.6185 7.9837 17.0234 8.89022 15.6667C9.79675 14.31 11.0852 13.2526 12.5927 12.6282C14.1002 12.0037 15.759 11.8404 17.3593 12.1587C18.9597 12.477 20.4297 13.2628 21.5835 14.4165C22.7373 15.5703 23.523 17.0403 23.8413 18.6407C24.1597 20.241 23.9963 21.8998 23.3719 23.4073C22.7474 24.9148 21.69 26.2033 20.3333 27.1098C18.9766 28.0163 17.3815 28.5002 15.7498 28.5002C13.5626 28.4977 11.4656 27.6277 9.91896 26.0811C8.37232 24.5344 7.50233 22.4374 7.49985 20.2502ZM46.9011 38.7564C46.5679 38.9737 46.1621 39.0497 45.7728 38.9678C45.3836 38.8859 45.0428 38.6527 44.8255 38.3195C43.4651 36.2235 41.6017 34.5014 39.4051 33.3102C37.2085 32.1191 34.7486 31.4968 32.2499 31.5002C31.852 31.5002 31.4705 31.3421 31.1892 31.0608C30.9079 30.7795 30.7499 30.398 30.7499 30.0002C30.7499 29.6023 30.9079 29.2208 31.1892 28.9395C31.4705 28.6582 31.852 28.5002 32.2499 28.5002C33.4648 28.499 34.6645 28.2296 35.7632 27.711C36.8619 27.1925 37.8326 26.4377 38.6058 25.5005C39.379 24.5633 39.9356 23.467 40.236 22.2898C40.5363 21.1125 40.573 19.8835 40.3433 18.6904C40.1136 17.4974 39.6232 16.3698 38.9072 15.3883C38.1913 14.4067 37.2673 13.5954 36.2014 13.0124C35.1355 12.4293 33.954 12.0888 32.7413 12.0153C31.5286 11.9418 30.3146 12.137 29.1861 12.587C29.0021 12.6666 28.804 12.7084 28.6036 12.7101C28.4031 12.7118 28.2044 12.6733 28.019 12.5969C27.8337 12.5205 27.6656 12.4077 27.5246 12.2652C27.3836 12.1227 27.2726 11.9534 27.1982 11.7673C27.1237 11.5812 27.0873 11.382 27.0912 11.1816C27.095 10.9812 27.1389 10.7835 27.2204 10.6004C27.3019 10.4172 27.4193 10.2523 27.5656 10.1153C27.712 9.97826 27.8843 9.87197 28.0723 9.80267C30.6551 8.77264 33.5278 8.73557 36.1362 9.69862C38.7447 10.6617 40.9041 12.5566 42.1978 15.0178C43.4916 17.4791 43.8281 20.3322 43.1423 23.0269C42.4565 25.7216 40.7971 28.0668 38.4842 29.6102C42.1208 30.9505 45.2265 33.4307 47.338 36.6808C47.5552 37.014 47.6313 37.4198 47.5494 37.8091C47.4674 38.1983 47.2342 38.5391 46.9011 38.7564Z" fill="url(#paint1_linear_1_6669)"/>
<defs>
<linearGradient id="paint0_linear_1_6669" x1="15.75" y1="10.5" x2="15.75" y2="30" gradientUnits="userSpaceOnUse">
<stop stop-color="#3DFFB9"/>
<stop offset="1" stop-color="#24996F"/>
</linearGradient>
<linearGradient id="paint1_linear_1_6669" x1="23.9939" y1="8.99561" x2="23.9939" y2="39.0181" gradientUnits="userSpaceOnUse">
<stop stop-color="#3DFFB9"/>
<stop offset="1" stop-color="#24996F"/>
</linearGradient>
</defs>
</svg>
