<svg width="80" height="80" viewBox="0 0 80 80" fill="none" xmlns="http://www.w3.org/2000/svg">
<g id="currency-dollar-duotone">
<path id="Vector" opacity="0.2" d="M60 52.5C60 54.1415 59.6767 55.767 59.0485 57.2835C58.4203 58.8001 57.4996 60.1781 56.3388 61.3388C55.1781 62.4996 53.8001 63.4203 52.2835 64.0485C50.767 64.6767 49.1415 65 47.5 65H40V40H47.5C49.1415 40 50.767 40.3233 52.2835 40.9515C53.8001 41.5797 55.1781 42.5004 56.3388 43.6612C57.4996 44.8219 58.4203 46.1999 59.0485 47.7165C59.6767 49.233 60 50.8585 60 52.5ZM35 15C31.6848 15 28.5054 16.317 26.1612 18.6612C23.817 21.0054 22.5 24.1848 22.5 27.5C22.5 30.8152 23.817 33.9946 26.1612 36.3388C28.5054 38.683 31.6848 40 35 40H40V15H35Z" fill="url(#paint0_linear_0_21488)"/>
<path id="Vector_2" d="M47.5 37.5H42.5V17.5H45C47.6522 17.5 50.1957 18.5536 52.0711 20.4289C53.9464 22.3043 55 24.8478 55 27.5C55 28.163 55.2634 28.7989 55.7322 29.2678C56.2011 29.7366 56.837 30 57.5 30C58.163 30 58.7989 29.7366 59.2678 29.2678C59.7366 28.7989 60 28.163 60 27.5C59.9959 23.523 58.4142 19.7101 55.602 16.898C52.7899 14.0858 48.977 12.5041 45 12.5H42.5V7.5C42.5 6.83696 42.2366 6.20107 41.7678 5.73223C41.2989 5.26339 40.663 5 40 5C39.337 5 38.7011 5.26339 38.2322 5.73223C37.7634 6.20107 37.5 6.83696 37.5 7.5V12.5H35C31.0218 12.5 27.2064 14.0804 24.3934 16.8934C21.5804 19.7064 20 23.5218 20 27.5C20 31.4782 21.5804 35.2936 24.3934 38.1066C27.2064 40.9196 31.0218 42.5 35 42.5H37.5V62.5H32.5C29.8478 62.5 27.3043 61.4464 25.4289 59.5711C23.5536 57.6957 22.5 55.1522 22.5 52.5C22.5 51.837 22.2366 51.2011 21.7678 50.7322C21.2989 50.2634 20.663 50 20 50C19.337 50 18.7011 50.2634 18.2322 50.7322C17.7634 51.2011 17.5 51.837 17.5 52.5C17.5041 56.477 19.0858 60.2899 21.898 63.102C24.7101 65.9142 28.523 67.4959 32.5 67.5H37.5V72.5C37.5 73.163 37.7634 73.7989 38.2322 74.2678C38.7011 74.7366 39.337 75 40 75C40.663 75 41.2989 74.7366 41.7678 74.2678C42.2366 73.7989 42.5 73.163 42.5 72.5V67.5H47.5C51.4782 67.5 55.2936 65.9197 58.1066 63.1066C60.9197 60.2936 62.5 56.4782 62.5 52.5C62.5 48.5218 60.9197 44.7064 58.1066 41.8934C55.2936 39.0803 51.4782 37.5 47.5 37.5ZM35 37.5C32.3478 37.5 29.8043 36.4464 27.9289 34.5711C26.0536 32.6957 25 30.1522 25 27.5C25 24.8478 26.0536 22.3043 27.9289 20.4289C29.8043 18.5536 32.3478 17.5 35 17.5H37.5V37.5H35ZM47.5 62.5H42.5V42.5H47.5C50.1522 42.5 52.6957 43.5536 54.5711 45.4289C56.4464 47.3043 57.5 49.8478 57.5 52.5C57.5 55.1522 56.4464 57.6957 54.5711 59.5711C52.6957 61.4464 50.1522 62.5 47.5 62.5Z" fill="url(#paint1_linear_0_21488)"/>
</g>
<defs>
<linearGradient id="paint0_linear_0_21488" x1="41.25" y1="15" x2="41.25" y2="65" gradientUnits="userSpaceOnUse">
<stop stop-color="#3DFFB9"/>
<stop offset="1" stop-color="#24996F"/>
</linearGradient>
<linearGradient id="paint1_linear_0_21488" x1="40" y1="5" x2="40" y2="75" gradientUnits="userSpaceOnUse">
<stop stop-color="#3DFFB9"/>
<stop offset="1" stop-color="#24996F"/>
</linearGradient>
</defs>
</svg>
