<svg width="80" height="80" viewBox="0 0 80 80" fill="none" xmlns="http://www.w3.org/2000/svg">
<g id="Frame">
<path id="Vector" opacity="0.2" d="M75.0003 42.5V50H19.0815C16.9311 50.0001 14.838 49.307 13.1127 48.0235C11.3873 46.74 10.1216 44.9346 9.5034 42.875L5.10653 28.2188C4.99449 27.8455 4.97126 27.4512 5.03869 27.0674C5.10613 26.6836 5.26236 26.3208 5.49492 26.0081C5.72748 25.6954 6.02992 25.4414 6.3781 25.2664C6.72629 25.0913 7.11057 25.0001 7.50028 25H10.0003L17.5003 32.5H29.0347L25.1315 20.7906C25.0063 20.4151 24.9721 20.0151 25.0317 19.6237C25.0913 19.2324 25.2429 18.8607 25.4742 18.5394C25.7055 18.2181 26.0098 17.9564 26.362 17.7757C26.7143 17.5949 27.1044 17.5005 27.5003 17.5H30.0003L45.0003 32.5H65.0003C67.6524 32.5 70.196 33.5536 72.0713 35.4289C73.9467 37.3043 75.0003 39.8478 75.0003 42.5Z" fill="url(#paint0_linear_13_670)"/>
<path id="Vector_2" d="M70.0004 67.5C70.0004 68.163 69.737 68.7989 69.2681 69.2678C68.7993 69.7366 68.1634 70 67.5004 70H22.5004C21.8373 70 21.2014 69.7366 20.7326 69.2678C20.2637 68.7989 20.0004 68.163 20.0004 67.5C20.0004 66.837 20.2637 66.2011 20.7326 65.7322C21.2014 65.2634 21.8373 65 22.5004 65H67.5004C68.1634 65 68.7993 65.2634 69.2681 65.7322C69.737 66.2011 70.0004 66.837 70.0004 67.5ZM77.5004 42.5V50C77.5004 50.663 77.237 51.2989 76.7681 51.7678C76.2993 52.2366 75.6634 52.5 75.0004 52.5H19.0847C16.3934 52.5123 13.7709 51.6502 11.6118 50.0435C9.45269 48.4367 7.87385 46.1722 7.11286 43.5906L2.71598 28.9375C2.49198 28.1912 2.44547 27.403 2.58018 26.6356C2.71488 25.8681 3.02707 25.1428 3.49183 24.5175C3.95659 23.8921 4.56107 23.3841 5.25704 23.0338C5.95301 22.6835 6.72121 22.5007 7.50036 22.5H10.0004C10.6625 22.5003 11.2975 22.7633 11.766 23.2312L18.5379 30H25.566L22.7535 21.5813C22.5028 20.8294 22.4345 20.0287 22.5542 19.2452C22.6738 18.4617 22.978 17.7179 23.4416 17.0751C23.9053 16.4323 24.5151 15.9089 25.2208 15.5481C25.9264 15.1873 26.7078 14.9994 27.5004 15H30.0004C30.3288 14.9997 30.654 15.0642 30.9575 15.1897C31.261 15.3151 31.5368 15.4992 31.7691 15.7313L46.0379 30H65.0004C68.3156 30 71.495 31.317 73.8392 33.6612C76.1834 36.0054 77.5004 39.1848 77.5004 42.5ZM72.5004 42.5C72.5004 40.5109 71.7102 38.6032 70.3037 37.1967C68.8971 35.7902 66.9895 35 65.0004 35H45.0004C44.3382 34.9997 43.7032 34.7367 43.2347 34.2688L28.966 20H27.5004L31.4035 31.7094C31.5287 32.0849 31.5629 32.4849 31.5033 32.8763C31.4437 33.2676 31.2921 33.6393 31.0608 33.9606C30.8295 34.2819 30.5252 34.5436 30.173 34.7243C29.8207 34.9051 29.4306 34.9995 29.0347 35H17.5004C17.172 35.0003 16.8467 34.9358 16.5432 34.8103C16.2397 34.6849 15.9639 34.5008 15.7316 34.2688L8.96598 27.5H7.50036L11.8972 42.1562C12.3544 43.7055 13.3025 45.0644 14.5988 46.0281C15.8951 46.9919 17.4694 47.5085 19.0847 47.5H72.5004V42.5Z" fill="url(#paint1_linear_13_670)"/>
</g>
<defs>
<linearGradient id="paint0_linear_13_670" x1="40.0006" y1="17.5" x2="40.0006" y2="50" gradientUnits="userSpaceOnUse">
<stop stop-color="#3DFFB9"/>
<stop offset="1" stop-color="#24996F"/>
</linearGradient>
<linearGradient id="paint1_linear_13_670" x1="40.0026" y1="15" x2="40.0026" y2="70" gradientUnits="userSpaceOnUse">
<stop stop-color="#3DFFB9"/>
<stop offset="1" stop-color="#24996F"/>
</linearGradient>
</defs>
</svg>
