<svg width="96" height="96" viewBox="0 0 96 96" fill="none" xmlns="http://www.w3.org/2000/svg">
<g id="Frame">
<path id="Vector" opacity="0.2" d="M81 21V43.0387C81 74.6062 54.2588 85.065 48.9225 86.8388C48.3248 87.045 47.6752 87.045 47.0775 86.8388C41.7413 85.0725 15 74.625 15 43.0462V21C15 20.2044 15.3161 19.4413 15.8787 18.8787C16.4413 18.3161 17.2044 18 18 18H78C78.7957 18 79.5587 18.3161 80.1213 18.8787C80.6839 19.4413 81 20.2044 81 21Z" fill="url(#paint0_linear_13_502)"/>
<path id="Vector_2" d="M78 15H18C16.4087 15 14.8826 15.6321 13.7574 16.7574C12.6321 17.8826 12 19.4087 12 21V43.0387C12 76.6462 40.4325 87.7912 46.125 89.6812C47.3404 90.0973 48.6596 90.0973 49.875 89.6812C55.575 87.7875 84 76.6425 84 43.035V21C84 19.4087 83.3679 17.8826 82.2426 16.7574C81.1174 15.6321 79.5913 15 78 15ZM78 43.0462C78 72.4538 53.1225 82.2787 48 83.9888C42.9263 82.3013 18 72.4837 18 43.0462V21H78V43.0462ZM45 51V36C45 35.2044 45.3161 34.4413 45.8787 33.8787C46.4413 33.3161 47.2043 33 48 33C48.7957 33 49.5587 33.3161 50.1213 33.8787C50.6839 34.4413 51 35.2044 51 36V51C51 51.7957 50.6839 52.5587 50.1213 53.1213C49.5587 53.6839 48.7957 54 48 54C47.2043 54 46.4413 53.6839 45.8787 53.1213C45.3161 52.5587 45 51.7957 45 51ZM43.5 64.5C43.5 63.61 43.7639 62.74 44.2584 61.9999C44.7529 61.2599 45.4557 60.6831 46.2779 60.3425C47.1002 60.0019 48.005 59.9128 48.8779 60.0865C49.7508 60.2601 50.5526 60.6887 51.182 61.318C51.8113 61.9474 52.2399 62.7492 52.4135 63.6221C52.5872 64.495 52.4981 65.3998 52.1575 66.2221C51.8169 67.0443 51.2401 67.7471 50.5001 68.2416C49.76 68.7361 48.89 69 48 69C46.8065 69 45.6619 68.5259 44.818 67.682C43.9741 66.8381 43.5 65.6935 43.5 64.5Z" fill="url(#paint1_linear_13_502)"/>
</g>
<defs>
<linearGradient id="paint0_linear_13_502" x1="48" y1="18" x2="48" y2="86.9935" gradientUnits="userSpaceOnUse">
<stop stop-color="#3DFFB9"/>
<stop offset="1" stop-color="#24996F"/>
</linearGradient>
<linearGradient id="paint1_linear_13_502" x1="48" y1="15" x2="48" y2="89.9932" gradientUnits="userSpaceOnUse">
<stop stop-color="#3DFFB9"/>
<stop offset="1" stop-color="#24996F"/>
</linearGradient>
</defs>
</svg>
