<svg width="120" height="120" viewBox="0 0 120 120" fill="none" xmlns="http://www.w3.org/2000/svg">
<g id="Frame">
<path id="Vector" opacity="0.2" d="M101.25 22.5V37.5C101.25 38.4946 100.855 39.4484 100.152 40.1516C99.4484 40.8549 98.4946 41.25 97.5 41.25H82.5C81.5054 41.25 80.5516 40.8549 79.8483 40.1516C79.1451 39.4484 78.75 38.4946 78.75 37.5V22.5C78.75 21.5054 79.1451 20.5516 79.8483 19.8484C80.5516 19.1451 81.5054 18.75 82.5 18.75H97.5C98.4946 18.75 99.4484 19.1451 100.152 19.8484C100.855 20.5516 101.25 21.5054 101.25 22.5ZM37.5 18.75H22.5C21.5054 18.75 20.5516 19.1451 19.8484 19.8484C19.1451 20.5516 18.75 21.5054 18.75 22.5V37.5C18.75 38.4946 19.1451 39.4484 19.8484 40.1516C20.5516 40.8549 21.5054 41.25 22.5 41.25H37.5C38.4946 41.25 39.4484 40.8549 40.1516 40.1516C40.8549 39.4484 41.25 38.4946 41.25 37.5V22.5C41.25 21.5054 40.8549 20.5516 40.1516 19.8484C39.4484 19.1451 38.4946 18.75 37.5 18.75ZM97.5 78.75H82.5C81.5054 78.75 80.5516 79.1451 79.8483 79.8483C79.1451 80.5516 78.75 81.5054 78.75 82.5V97.5C78.75 98.4946 79.1451 99.4484 79.8483 100.152C80.5516 100.855 81.5054 101.25 82.5 101.25H97.5C98.4946 101.25 99.4484 100.855 100.152 100.152C100.855 99.4484 101.25 98.4946 101.25 97.5V82.5C101.25 81.5054 100.855 80.5516 100.152 79.8483C99.4484 79.1451 98.4946 78.75 97.5 78.75ZM37.5 78.75H22.5C21.5054 78.75 20.5516 79.1451 19.8484 79.8483C19.1451 80.5516 18.75 81.5054 18.75 82.5V97.5C18.75 98.4946 19.1451 99.4484 19.8484 100.152C20.5516 100.855 21.5054 101.25 22.5 101.25H37.5C38.4946 101.25 39.4484 100.855 40.1516 100.152C40.8549 99.4484 41.25 98.4946 41.25 97.5V82.5C41.25 81.5054 40.8549 80.5516 40.1516 79.8483C39.4484 79.1451 38.4946 78.75 37.5 78.75Z" fill="url(#paint0_linear_13_349)"/>
<path id="Vector_2" d="M97.5 45C99.4891 45 101.397 44.2098 102.803 42.8033C104.21 41.3968 105 39.4891 105 37.5V22.5C105 20.5109 104.21 18.6032 102.803 17.1967C101.397 15.7902 99.4891 15 97.5 15H82.5C80.5109 15 78.6032 15.7902 77.1967 17.1967C75.7902 18.6032 75 20.5109 75 22.5V26.25H45V22.5C45 20.5109 44.2098 18.6032 42.8033 17.1967C41.3968 15.7902 39.4891 15 37.5 15H22.5C20.5109 15 18.6032 15.7902 17.1967 17.1967C15.7902 18.6032 15 20.5109 15 22.5V37.5C15 39.4891 15.7902 41.3968 17.1967 42.8033C18.6032 44.2098 20.5109 45 22.5 45H26.25V75H22.5C20.5109 75 18.6032 75.7902 17.1967 77.1967C15.7902 78.6032 15 80.5109 15 82.5V97.5C15 99.4891 15.7902 101.397 17.1967 102.803C18.6032 104.21 20.5109 105 22.5 105H37.5C39.4891 105 41.3968 104.21 42.8033 102.803C44.2098 101.397 45 99.4891 45 97.5V93.75H75V97.5C75 99.4891 75.7902 101.397 77.1967 102.803C78.6032 104.21 80.5109 105 82.5 105H97.5C99.4891 105 101.397 104.21 102.803 102.803C104.21 101.397 105 99.4891 105 97.5V82.5C105 80.5109 104.21 78.6032 102.803 77.1967C101.397 75.7902 99.4891 75 97.5 75H93.75V45H97.5ZM82.5 22.5H97.5V37.5H82.5V22.5ZM22.5 22.5H37.5V29.9531C37.4938 29.9841 37.4938 30.0159 37.5 30.0469V37.5H22.5V22.5ZM37.5 97.5H22.5V82.5H37.5V89.9531C37.4938 89.9841 37.4938 90.0159 37.5 90.0469V97.5ZM97.5 97.5H82.5V82.5H97.5V97.5ZM86.25 75H82.5C80.5109 75 78.6032 75.7902 77.1967 77.1967C75.7902 78.6032 75 80.5109 75 82.5V86.25H45V82.5C45 80.5109 44.2098 78.6032 42.8033 77.1967C41.3968 75.7902 39.4891 75 37.5 75H33.75V45H37.5C39.4891 45 41.3968 44.2098 42.8033 42.8033C44.2098 41.3968 45 39.4891 45 37.5V33.75H75V37.5C75 39.4891 75.7902 41.3968 77.1967 42.8033C78.6032 44.2098 80.5109 45 82.5 45H86.25V75Z" fill="url(#paint1_linear_13_349)"/>
</g>
<defs>
<linearGradient id="paint0_linear_13_349" x1="60" y1="18.75" x2="60" y2="101.25" gradientUnits="userSpaceOnUse">
<stop stop-color="#3DFFB9"/>
<stop offset="1" stop-color="#24996F"/>
</linearGradient>
<linearGradient id="paint1_linear_13_349" x1="60" y1="15" x2="60" y2="105" gradientUnits="userSpaceOnUse">
<stop stop-color="#3DFFB9"/>
<stop offset="1" stop-color="#24996F"/>
</linearGradient>
</defs>
</svg>
