<svg width="120" height="120" viewBox="0 0 120 120" fill="none" xmlns="http://www.w3.org/2000/svg">
<g id="Frame">
<path id="Vector" opacity="0.2" d="M112.5 61.875C112.5 71.1937 95.7094 78.75 75 78.75C65.8125 78.75 57.3937 77.2641 50.8734 74.7937C68.7938 73.5234 82.5 66.5625 82.5 58.125V45.3375C99.6188 46.9031 112.5 53.7094 112.5 61.875ZM82.5 39.375C82.5 30.0563 65.7094 22.5 45 22.5C24.2906 22.5 7.5 30.0563 7.5 39.375C7.5 48.6938 24.2906 56.25 45 56.25C65.7094 56.25 82.5 48.6938 82.5 39.375Z" fill="url(#paint0_linear_13_338)"/>
<path id="Vector_2" d="M86.25 41.9859V39.375C86.25 27.6187 68.5172 18.75 45 18.75C21.4828 18.75 3.75 27.6187 3.75 39.375V58.125C3.75 67.9172 16.0547 75.6984 33.75 78.0281V80.625C33.75 92.3812 51.4828 101.25 75 101.25C98.5172 101.25 116.25 92.3812 116.25 80.625V61.875C116.25 52.1719 104.334 44.3813 86.25 41.9859ZM108.75 61.875C108.75 68.0719 94.3172 75 75 75C73.2516 75 71.5172 74.9391 69.8063 74.8266C79.9172 71.1422 86.25 65.1562 86.25 58.125V49.5656C100.252 51.6516 108.75 57.3141 108.75 61.875ZM33.75 70.4297V59.2781C37.4802 59.7642 41.2383 60.0053 45 60C48.7617 60.0053 52.5198 59.7642 56.25 59.2781V70.4297C52.5253 70.9799 48.7651 71.2541 45 71.25C41.2349 71.2541 37.4747 70.9799 33.75 70.4297ZM78.75 51.5297V58.125C78.75 62.0578 72.9328 66.2812 63.75 68.8453V57.8906C69.8016 56.4234 74.925 54.2391 78.75 51.5297ZM45 26.25C64.3172 26.25 78.75 33.1781 78.75 39.375C78.75 45.5719 64.3172 52.5 45 52.5C25.6828 52.5 11.25 45.5719 11.25 39.375C11.25 33.1781 25.6828 26.25 45 26.25ZM11.25 58.125V51.5297C15.075 54.2391 20.1984 56.4234 26.25 57.8906V68.8453C17.0672 66.2812 11.25 62.0578 11.25 58.125ZM41.25 80.625V78.6703C42.4828 78.7172 43.7297 78.75 45 78.75C46.8187 78.75 48.5953 78.6891 50.3391 78.5859C52.2762 79.2794 54.2494 79.8678 56.25 80.3484V91.3453C47.0672 88.7812 41.25 84.5578 41.25 80.625ZM63.75 92.9297V81.75C67.479 82.2513 71.2374 82.5018 75 82.5C78.7617 82.5053 82.5198 82.2642 86.25 81.7781V92.9297C78.7899 94.0234 71.2101 94.0234 63.75 92.9297ZM93.75 91.3453V80.3906C99.8016 78.9234 104.925 76.7391 108.75 74.0297V80.625C108.75 84.5578 102.933 88.7812 93.75 91.3453Z" fill="url(#paint1_linear_13_338)"/>
</g>
<defs>
<linearGradient id="paint0_linear_13_338" x1="60" y1="22.5" x2="60" y2="78.75" gradientUnits="userSpaceOnUse">
<stop stop-color="#3DFFB9"/>
<stop offset="1" stop-color="#24996F"/>
</linearGradient>
<linearGradient id="paint1_linear_13_338" x1="60" y1="18.75" x2="60" y2="101.25" gradientUnits="userSpaceOnUse">
<stop stop-color="#3DFFB9"/>
<stop offset="1" stop-color="#24996F"/>
</linearGradient>
</defs>
</svg>
