<svg width="48" height="48" viewBox="0 0 48 48" fill="none" xmlns="http://www.w3.org/2000/svg">
<path opacity="0.2" d="M43.5 18H4.5L24 6L43.5 18Z" fill="url(#paint0_linear_13_968)"/>
<path d="M4.5 19.4991H9V31.4991H6C5.60218 31.4991 5.22064 31.6571 4.93934 31.9384C4.65804 32.2197 4.5 32.6012 4.5 32.9991C4.5 33.3969 4.65804 33.7784 4.93934 34.0597C5.22064 34.341 5.60218 34.4991 6 34.4991H42C42.3978 34.4991 42.7794 34.341 43.0607 34.0597C43.342 33.7784 43.5 33.3969 43.5 32.9991C43.5 32.6012 43.342 32.2197 43.0607 31.9384C42.7794 31.6571 42.3978 31.4991 42 31.4991H39V19.4991H43.5C43.8264 19.4987 44.1437 19.392 44.4039 19.195C44.6641 18.998 44.853 18.7215 44.9418 18.4074C45.0307 18.0934 45.0147 17.7589 44.8963 17.4548C44.7778 17.1507 44.5634 16.8935 44.2856 16.7222L24.7856 4.72219C24.5493 4.57691 24.2774 4.5 24 4.5C23.7226 4.5 23.4507 4.57691 23.2144 4.72219L3.71437 16.7222C3.43655 16.8935 3.22217 17.1507 3.10374 17.4548C2.98532 17.7589 2.96932 18.0934 3.05817 18.4074C3.14702 18.7215 3.33586 18.998 3.59607 19.195C3.85627 19.392 4.17363 19.4987 4.5 19.4991ZM12 19.4991H18V31.4991H12V19.4991ZM27 19.4991V31.4991H21V19.4991H27ZM36 31.4991H30V19.4991H36V31.4991ZM24 7.75969L38.2013 16.4991H9.79875L24 7.75969ZM46.5 38.9991C46.5 39.3969 46.342 39.7784 46.0607 40.0597C45.7794 40.341 45.3978 40.4991 45 40.4991H3C2.60218 40.4991 2.22064 40.341 1.93934 40.0597C1.65804 39.7784 1.5 39.3969 1.5 38.9991C1.5 38.6012 1.65804 38.2197 1.93934 37.9384C2.22064 37.6571 2.60218 37.4991 3 37.4991H45C45.3978 37.4991 45.7794 37.6571 46.0607 37.9384C46.342 38.2197 46.5 38.6012 46.5 38.9991Z" fill="url(#paint1_linear_13_968)"/>
<defs>
<linearGradient id="paint0_linear_13_968" x1="24" y1="6" x2="24" y2="18" gradientUnits="userSpaceOnUse">
<stop stop-color="#3DFFB9"/>
<stop offset="1" stop-color="#24996F"/>
</linearGradient>
<linearGradient id="paint1_linear_13_968" x1="24" y1="4.5" x2="24" y2="40.4991" gradientUnits="userSpaceOnUse">
<stop stop-color="#3DFFB9"/>
<stop offset="1" stop-color="#24996F"/>
</linearGradient>
</defs>
</svg>
