<svg width="64" height="73" viewBox="0 0 64 73" fill="none" xmlns="http://www.w3.org/2000/svg">
<path d="M53.1901 17.8978C54.1976 17.4707 55.3623 17.656 56.2086 18.3532C56.8615 18.8933 57.2443 19.7718 57.2524 20.7471L57.3532 29.6294C57.3532 29.9276 57.5023 30.1896 57.7441 30.3468C57.9859 30.5039 58.2841 30.5442 58.5541 30.4314L62.4714 28.8355C62.955 28.638 63.2734 28.1625 63.2653 27.6426L63.1807 20.5295C63.1444 16.717 61.0447 13.5091 57.5305 12.1751C55.2656 11.3167 52.7307 11.486 50.4899 12.4169L49.3937 12.9328L49.2285 19.6026L53.182 17.8898L53.1901 17.8978Z" fill="#2CF3AB"/>
<path d="M10.9236 54.4353C10.5408 54.5925 10.1499 54.669 9.75895 54.669C9.18265 54.669 8.62247 54.4998 8.11065 54.1734C7.26433 53.6253 6.76863 52.7386 6.76057 51.7513L6.49055 21.0058C6.48249 19.8491 7.17164 18.7852 8.2517 18.3137L35.6522 6.92062C37.0144 6.31611 38.1307 6.87226 38.5499 7.14631C38.969 7.41632 39.9282 8.19816 39.8999 9.66511L39.9322 41.0071C39.904 42.1637 39.1786 43.1994 38.0864 43.6468L26.5846 48.1443L26.8062 54.6368L40.4883 49.2607C43.8535 47.8904 46.0821 44.7027 46.1667 41.1401L46.1345 9.81825C46.207 6.68688 44.6595 3.78522 41.9875 2.07243C40.4682 1.09312 38.707 0.573242 36.9056 0.573242C35.5837 0.573242 34.286 0.851318 33.0649 1.39538L5.66842 12.7642C2.34763 14.2473 0.231834 17.4996 0.260044 21.0622L0.53006 51.8077C0.55827 54.8182 2.10582 57.607 4.67702 59.2633C6.19636 60.2427 7.94944 60.7545 9.76701 60.7545C10.9962 60.7545 12.1891 60.5207 13.3296 60.0573L14.6676 59.2714L14.6031 52.7104L10.9236 54.4393V54.4353Z" fill="#2CF3AB"/>
<path d="M63.3642 41.2329C63.3642 40.9347 63.2231 40.6728 62.9732 40.5156C62.7314 40.3463 62.4332 40.3181 62.1632 40.431L58.25 42.0269C57.7664 42.2203 57.448 42.6999 57.4561 43.2198L57.5407 51.3404C57.5488 52.497 56.8798 53.5569 55.8239 54.0325L28.1694 66.3565C26.8355 66.961 25.7474 66.4049 25.3363 66.1348C24.9252 65.8648 23.9862 65.083 24.0144 63.608L23.2568 32.7416C23.285 31.5849 24.0104 30.0495 25.0663 29.6102L29.3946 27.8571L36.5359 24.625L36.6528 17.9834L22.5434 23.96C19.2509 25.3302 17.0827 28.5261 16.998 32.0887L17.925 63.475C17.8484 66.6064 19.3718 69.508 21.9792 71.2289C23.4704 72.2082 25.1872 72.7281 26.9483 72.7281C28.246 72.7281 29.5115 72.45 30.7044 71.9059L58.3628 59.5819C61.5506 58.1271 63.5092 54.9473 63.481 51.284L63.3803 41.2249L63.3642 41.2329Z" fill="#2CF3AB"/>
</svg>
