<svg width="64" height="64" viewBox="0 0 64 64" fill="none" xmlns="http://www.w3.org/2000/svg">
<g opacity="0.2">
<circle cx="32" cy="32" r="32" fill="#D9D9D9"/>
<circle cx="32" cy="32" r="32" fill="url(#paint0_linear_1_7846)"/>
</g>
<circle cx="32" cy="32" r="31" stroke="url(#paint1_linear_1_7846)" stroke-width="2"/>
<g clip-path="url(#clip0_1_7846)">
<path d="M36.1688 6.84713C36.1324 6.73515 36.064 6.63633 35.9719 6.56298C35.8798 6.48963 35.7682 6.445 35.6509 6.43463L33.4238 6.24263L32.5508 4.16663C32.5053 4.0577 32.4286 3.96465 32.3304 3.8992C32.2322 3.83375 32.1168 3.79883 31.9988 3.79883C31.8807 3.79883 31.7653 3.83375 31.6671 3.8992C31.5689 3.96465 31.4922 4.0577 31.4468 4.16663L30.5764 6.24263L28.3466 6.43575C28.2289 6.44565 28.1167 6.49008 28.0241 6.56348C27.9315 6.63689 27.8627 6.73599 27.8262 6.84837C27.7897 6.96075 27.7872 7.08139 27.819 7.19518C27.8508 7.30897 27.9155 7.41084 28.005 7.488L29.6966 8.96625L29.1896 11.1615C29.1628 11.2764 29.1705 11.3966 29.2116 11.5072C29.2528 11.6177 29.3256 11.7137 29.421 11.7831C29.5164 11.8525 29.6301 11.8922 29.748 11.8973C29.8659 11.9024 29.9826 11.8726 30.0836 11.8118L31.9961 10.6493L33.9128 11.8118C34.0138 11.8726 34.1305 11.9024 34.2484 11.8973C34.3662 11.8922 34.48 11.8525 34.5754 11.7831C34.6708 11.7137 34.7436 11.6177 34.7848 11.5072C34.8259 11.3966 34.8336 11.2764 34.8068 11.1615L34.3001 8.964L35.9914 7.488C36.0808 7.41057 36.1454 7.30842 36.177 7.19439C36.2085 7.08036 36.2057 6.95954 36.1688 6.84713Z" fill="url(#paint2_linear_1_7846)"/>
</g>
<g clip-path="url(#clip1_1_7846)">
<path d="M36.1688 54.8486C36.1324 54.7366 36.064 54.6378 35.9719 54.5644C35.8798 54.4911 35.7682 54.4465 35.6509 54.4361L33.4238 54.2441L32.5508 52.1681C32.5053 52.0592 32.4286 51.9661 32.3304 51.9007C32.2322 51.8352 32.1168 51.8003 31.9988 51.8003C31.8807 51.8003 31.7653 51.8352 31.6671 51.9007C31.5689 51.9661 31.4922 52.0592 31.4468 52.1681L30.5764 54.2441L28.3466 54.4372C28.2289 54.4471 28.1167 54.4915 28.0241 54.5649C27.9315 54.6384 27.8627 54.7375 27.8262 54.8498C27.7897 54.9622 27.7872 55.0829 27.819 55.1966C27.8508 55.3104 27.9155 55.4123 28.005 55.4895L29.6966 56.9677L29.1896 59.163C29.1628 59.2778 29.1705 59.3981 29.2116 59.5086C29.2528 59.6192 29.3256 59.7152 29.421 59.7846C29.5164 59.8539 29.6301 59.8937 29.748 59.8988C29.8659 59.9039 29.9826 59.8741 30.0836 59.8132L31.9961 58.6507L33.9128 59.8132C34.0138 59.8741 34.1305 59.9039 34.2484 59.8988C34.3662 59.8937 34.48 59.8539 34.5754 59.7846C34.6708 59.7152 34.7436 59.6192 34.7848 59.5086C34.8259 59.3981 34.8336 59.2778 34.8068 59.163L34.3001 56.9655L35.9914 55.4895C36.0808 55.412 36.1454 55.3099 36.177 55.1959C36.2085 55.0818 36.2057 54.961 36.1688 54.8486Z" fill="url(#paint3_linear_1_7846)"/>
</g>
<g clip-path="url(#clip2_1_7846)">
<path d="M20.4891 13.8896C20.4527 13.7776 20.3843 13.6788 20.2922 13.6055C20.2001 13.5321 20.0885 13.4875 19.9712 13.4771L17.7441 13.2851L16.8711 11.2091C16.8256 11.1002 16.749 11.0071 16.6507 10.9417C16.5525 10.8762 16.4371 10.8413 16.3191 10.8413C16.201 10.8413 16.0856 10.8762 15.9874 10.9417C15.8892 11.0071 15.8125 11.1002 15.7671 11.2091L14.8967 13.2851L12.6669 13.4782C12.5492 13.4881 12.437 13.5326 12.3444 13.606C12.2518 13.6794 12.183 13.7785 12.1465 13.8908C12.11 14.0032 12.1075 14.1239 12.1393 14.2377C12.1712 14.3515 12.2358 14.4533 12.3253 14.5305L14.0169 16.0087L13.5099 18.204C13.4831 18.3189 13.4908 18.4391 13.5319 18.5497C13.5731 18.6602 13.6459 18.7562 13.7413 18.8256C13.8367 18.895 13.9505 18.9347 14.0683 18.9398C14.1862 18.9449 14.3029 18.9151 14.4039 18.8542L16.3164 17.6917L18.2331 18.8542C18.3341 18.9151 18.4509 18.9449 18.5687 18.9398C18.6866 18.9347 18.8003 18.895 18.8957 18.8256C18.9911 18.7562 19.0639 18.6602 19.1051 18.5497C19.1462 18.4391 19.1539 18.3189 19.1271 18.204L18.6204 16.0065L20.3117 14.5305C20.4012 14.4531 20.4657 14.3509 20.4973 14.2369C20.5288 14.1228 20.526 14.002 20.4891 13.8896Z" fill="url(#paint4_linear_1_7846)"/>
</g>
<g clip-path="url(#clip3_1_7846)">
<path d="M52.4891 13.8891C52.4527 13.7771 52.3843 13.6783 52.2922 13.605C52.2001 13.5316 52.0885 13.487 51.9712 13.4766L49.7441 13.2846L48.8711 11.2086C48.8256 11.0997 48.749 11.0066 48.6507 10.9412C48.5525 10.8757 48.4371 10.8408 48.3191 10.8408C48.201 10.8408 48.0856 10.8757 47.9874 10.9412C47.8892 11.0066 47.8125 11.0997 47.7671 11.2086L46.8967 13.2846L44.6669 13.4777C44.5492 13.4876 44.437 13.5321 44.3444 13.6055C44.2518 13.6789 44.183 13.778 44.1465 13.8904C44.11 14.0027 44.1075 14.1234 44.1393 14.2372C44.1712 14.351 44.2358 14.4528 44.3253 14.53L46.0169 16.0082L45.5099 18.2035C45.4831 18.3184 45.4908 18.4386 45.5319 18.5492C45.5731 18.6597 45.6459 18.7557 45.7413 18.8251C45.8367 18.8945 45.9505 18.9342 46.0683 18.9393C46.1862 18.9444 46.3029 18.9146 46.4039 18.8537L48.3164 17.6912L50.2331 18.8537C50.3341 18.9146 50.4509 18.9444 50.5687 18.9393C50.6866 18.9342 50.8003 18.8945 50.8957 18.8251C50.9911 18.7557 51.0639 18.6597 51.1051 18.5492C51.1462 18.4386 51.1539 18.3184 51.1271 18.2035L50.6204 16.006L52.3117 14.53C52.4012 14.4526 52.4657 14.3504 52.4973 14.2364C52.5288 14.1223 52.526 14.0015 52.4891 13.8891Z" fill="url(#paint5_linear_1_7846)"/>
</g>
<path d="M20.4891 47.1689C20.4527 47.0569 20.3843 46.9581 20.2922 46.8848C20.2001 46.8114 20.0885 46.7668 19.9712 46.7564L17.7441 46.5644L16.8711 44.4884C16.8256 44.3795 16.749 44.2864 16.6507 44.221C16.5525 44.1555 16.4371 44.1206 16.3191 44.1206C16.201 44.1206 16.0856 44.1555 15.9874 44.221C15.8892 44.2864 15.8125 44.3795 15.7671 44.4884L14.8967 46.5644L12.6669 46.7575C12.5492 46.7674 12.437 46.8119 12.3444 46.8853C12.2518 46.9587 12.183 47.0578 12.1465 47.1701C12.11 47.2825 12.1075 47.4032 12.1393 47.517C12.1712 47.6308 12.2358 47.7326 12.3253 47.8098L14.0169 49.288L13.5099 51.4833C13.4831 51.5982 13.4908 51.7184 13.5319 51.8289C13.5731 51.9395 13.6459 52.0355 13.7413 52.1049C13.8367 52.1743 13.9505 52.214 14.0683 52.2191C14.1862 52.2242 14.3029 52.1944 14.4039 52.1335L16.3164 50.971L18.2331 52.1335C18.3341 52.1944 18.4509 52.2242 18.5687 52.2191C18.6866 52.214 18.8003 52.1743 18.8957 52.1049C18.9911 52.0355 19.0639 51.9395 19.1051 51.8289C19.1462 51.7184 19.1539 51.5982 19.1271 51.4833L18.6204 49.2858L20.3117 47.8098C20.4012 47.7323 20.4657 47.6302 20.4973 47.5162C20.5288 47.4021 20.526 47.2813 20.4891 47.1689Z" fill="url(#paint6_linear_1_7846)"/>
<path d="M52.4891 47.1689C52.4527 47.0569 52.3843 46.9581 52.2922 46.8848C52.2001 46.8114 52.0885 46.7668 51.9712 46.7564L49.7441 46.5644L48.8711 44.4884C48.8256 44.3795 48.749 44.2864 48.6507 44.221C48.5525 44.1555 48.4371 44.1206 48.3191 44.1206C48.201 44.1206 48.0856 44.1555 47.9874 44.221C47.8892 44.2864 47.8125 44.3795 47.7671 44.4884L46.8967 46.5644L44.6669 46.7575C44.5492 46.7674 44.437 46.8119 44.3444 46.8853C44.2518 46.9587 44.183 47.0578 44.1465 47.1701C44.11 47.2825 44.1075 47.4032 44.1393 47.517C44.1712 47.6308 44.2358 47.7326 44.3253 47.8098L46.0169 49.288L45.5099 51.4833C45.4831 51.5982 45.4908 51.7184 45.5319 51.8289C45.5731 51.9395 45.6459 52.0355 45.7413 52.1049C45.8367 52.1743 45.9505 52.214 46.0683 52.2191C46.1862 52.2242 46.3029 52.1944 46.4039 52.1335L48.3164 50.971L50.2331 52.1335C50.3341 52.1944 50.4509 52.2242 50.5687 52.2191C50.6866 52.214 50.8003 52.1743 50.8957 52.1049C50.9911 52.0355 51.0639 51.9395 51.1051 51.8289C51.1462 51.7184 51.1539 51.5982 51.1271 51.4833L50.6204 49.2858L52.3117 47.8098C52.4012 47.7323 52.4657 47.6302 52.4973 47.5162C52.5288 47.4021 52.526 47.2813 52.4891 47.1689Z" fill="url(#paint7_linear_1_7846)"/>
<g clip-path="url(#clip4_1_7846)">
<path d="M12.1688 30.5283C12.1324 30.4163 12.064 30.3175 11.9719 30.2441C11.8798 30.1708 11.7682 30.1261 11.6509 30.1158L9.42376 29.9238L8.55076 27.8478C8.50531 27.7388 8.42864 27.6458 8.33041 27.5804C8.23219 27.5149 8.11679 27.48 7.99876 27.48C7.88073 27.48 7.76533 27.5149 7.6671 27.5804C7.56888 27.6458 7.49221 27.7388 7.44676 27.8478L6.57638 29.9238L4.34663 30.1169C4.2289 30.1268 4.1167 30.1712 4.02412 30.2446C3.93153 30.318 3.86268 30.4171 3.8262 30.5295C3.78971 30.6419 3.78722 30.7625 3.81903 30.8763C3.85084 30.9901 3.91554 31.092 4.00501 31.1692L5.69663 32.6474L5.18963 34.8427C5.16282 34.9575 5.17047 35.0778 5.21163 35.1883C5.25278 35.2989 5.32561 35.3948 5.42101 35.4642C5.51641 35.5336 5.63014 35.5734 5.748 35.5785C5.86585 35.5836 5.9826 35.5538 6.08363 35.4929L7.99613 34.3304L9.91276 35.4929C10.0138 35.5538 10.1305 35.5836 10.2484 35.5785C10.3662 35.5734 10.48 35.5336 10.5754 35.4642C10.6708 35.3948 10.7436 35.2989 10.7848 35.1883C10.8259 35.0778 10.8336 34.9575 10.8068 34.8427L10.3001 32.6452L11.9914 31.1692C12.0808 31.0917 12.1454 30.9896 12.177 30.8755C12.2085 30.7615 12.2057 30.6407 12.1688 30.5283Z" fill="url(#paint8_linear_1_7846)"/>
</g>
<g clip-path="url(#clip5_1_7846)">
<path d="M60.1688 30.5283C60.1324 30.4163 60.064 30.3175 59.9719 30.2441C59.8798 30.1708 59.7682 30.1261 59.6509 30.1158L57.4238 29.9238L56.5508 27.8478C56.5053 27.7388 56.4286 27.6458 56.3304 27.5804C56.2322 27.5149 56.1168 27.48 55.9988 27.48C55.8807 27.48 55.7653 27.5149 55.6671 27.5804C55.5689 27.6458 55.4922 27.7388 55.4468 27.8478L54.5764 29.9238L52.3466 30.1169C52.2289 30.1268 52.1167 30.1712 52.0241 30.2446C51.9315 30.318 51.8627 30.4171 51.8262 30.5295C51.7897 30.6419 51.7872 30.7625 51.819 30.8763C51.8508 30.9901 51.9155 31.092 52.005 31.1692L53.6966 32.6474L53.1896 34.8427C53.1628 34.9575 53.1705 35.0778 53.2116 35.1883C53.2528 35.2989 53.3256 35.3948 53.421 35.4642C53.5164 35.5336 53.6301 35.5734 53.748 35.5785C53.8659 35.5836 53.9826 35.5538 54.0836 35.4929L55.9961 34.3304L57.9128 35.4929C58.0138 35.5538 58.1305 35.5836 58.2484 35.5785C58.3662 35.5734 58.48 35.5336 58.5754 35.4642C58.6708 35.3948 58.7436 35.2989 58.7848 35.1883C58.8259 35.0778 58.8336 34.9575 58.8068 34.8427L58.3001 32.6452L59.9914 31.1692C60.0808 31.0917 60.1454 30.9896 60.177 30.8755C60.2085 30.7615 60.2057 30.6407 60.1688 30.5283Z" fill="url(#paint9_linear_1_7846)"/>
</g>
<path d="M19.0119 39.5615V23.9015H29.5629V26.145H21.7663V30.4765H29.0521V32.7422H21.7663V37.2958H29.5629V39.5615H19.0119ZM38.753 39.7837C36.5169 39.7837 34.8509 39.2283 33.7551 38.1177C32.6741 36.9922 32.1336 35.3337 32.1336 33.142V23.9015H34.999V33.1198C34.999 34.5118 35.2952 35.5632 35.8875 36.274C36.4947 36.9848 37.4498 37.3402 38.753 37.3402C39.9969 37.3402 40.9298 36.9848 41.5518 36.274C42.1885 35.5632 42.5069 34.5118 42.5069 33.1198V23.9015H45.3279V33.142C45.3279 35.3337 44.7726 36.9922 43.662 38.1177C42.5661 39.2283 40.9298 39.7837 38.753 39.7837Z" fill="url(#paint10_linear_1_7846)"/>
<defs>
<linearGradient id="paint0_linear_1_7846" x1="32" y1="0" x2="32" y2="64" gradientUnits="userSpaceOnUse">
<stop stop-color="#3DFFB9"/>
<stop offset="1" stop-color="#24996F"/>
</linearGradient>
<linearGradient id="paint1_linear_1_7846" x1="32" y1="0" x2="32" y2="64" gradientUnits="userSpaceOnUse">
<stop stop-color="#3DFFB9"/>
<stop offset="1" stop-color="#24996F"/>
</linearGradient>
<linearGradient id="paint2_linear_1_7846" x1="31.9978" y1="3.79883" x2="31.9978" y2="11.8979" gradientUnits="userSpaceOnUse">
<stop stop-color="#3DFFB9"/>
<stop offset="1" stop-color="#24996F"/>
</linearGradient>
<linearGradient id="paint3_linear_1_7846" x1="31.9978" y1="51.8003" x2="31.9978" y2="59.8993" gradientUnits="userSpaceOnUse">
<stop stop-color="#3DFFB9"/>
<stop offset="1" stop-color="#24996F"/>
</linearGradient>
<linearGradient id="paint4_linear_1_7846" x1="16.3181" y1="10.8413" x2="16.3181" y2="18.9403" gradientUnits="userSpaceOnUse">
<stop stop-color="#3DFFB9"/>
<stop offset="1" stop-color="#24996F"/>
</linearGradient>
<linearGradient id="paint5_linear_1_7846" x1="48.3181" y1="10.8408" x2="48.3181" y2="18.9399" gradientUnits="userSpaceOnUse">
<stop stop-color="#3DFFB9"/>
<stop offset="1" stop-color="#24996F"/>
</linearGradient>
<linearGradient id="paint6_linear_1_7846" x1="16.3181" y1="44.1206" x2="16.3181" y2="52.2196" gradientUnits="userSpaceOnUse">
<stop stop-color="#3DFFB9"/>
<stop offset="1" stop-color="#24996F"/>
</linearGradient>
<linearGradient id="paint7_linear_1_7846" x1="48.3181" y1="44.1206" x2="48.3181" y2="52.2196" gradientUnits="userSpaceOnUse">
<stop stop-color="#3DFFB9"/>
<stop offset="1" stop-color="#24996F"/>
</linearGradient>
<linearGradient id="paint8_linear_1_7846" x1="7.99779" y1="27.48" x2="7.99779" y2="35.579" gradientUnits="userSpaceOnUse">
<stop stop-color="#3DFFB9"/>
<stop offset="1" stop-color="#24996F"/>
</linearGradient>
<linearGradient id="paint9_linear_1_7846" x1="55.9978" y1="27.48" x2="55.9978" y2="35.579" gradientUnits="userSpaceOnUse">
<stop stop-color="#3DFFB9"/>
<stop offset="1" stop-color="#24996F"/>
</linearGradient>
<linearGradient id="paint10_linear_1_7846" x1="32.2793" y1="18.5615" x2="32.2793" y2="44.5615" gradientUnits="userSpaceOnUse">
<stop stop-color="#3DFFB9"/>
<stop offset="1" stop-color="#24996F"/>
</linearGradient>
<clipPath id="clip0_1_7846">
<rect width="9.6" height="9.6" fill="white" transform="translate(27.1992 3.2002)"/>
</clipPath>
<clipPath id="clip1_1_7846">
<rect width="9.6" height="9.6" fill="white" transform="translate(27.1992 51.2002)"/>
</clipPath>
<clipPath id="clip2_1_7846">
<rect width="9.6" height="9.6" fill="white" transform="translate(11.5195 10.2383)"/>
</clipPath>
<clipPath id="clip3_1_7846">
<rect width="9.6" height="9.6" fill="white" transform="translate(43.5195 10.2378)"/>
</clipPath>
<clipPath id="clip4_1_7846">
<rect width="9.6" height="9.6" fill="white" transform="translate(3.19922 26.8789)"/>
</clipPath>
<clipPath id="clip5_1_7846">
<rect width="9.6" height="9.6" fill="white" transform="translate(51.1992 26.8789)"/>
</clipPath>
</defs>
</svg>
