<svg width="64" height="64" viewBox="0 0 64 64" fill="none" xmlns="http://www.w3.org/2000/svg">
<path opacity="0.2" d="M59.4153 21.3151L27.3153 53.4151C27.1296 53.601 26.909 53.7485 26.6662 53.8492C26.4234 53.9498 26.1632 54.0016 25.9003 54.0016C25.6375 54.0016 25.3772 53.9498 25.1344 53.8492C24.8916 53.7485 24.6711 53.601 24.4853 53.4151L6.58532 35.4151C6.21053 35.04 6 34.5315 6 34.0013C6 33.4711 6.21053 32.9626 6.58532 32.5876L12.5853 26.5875C12.7711 26.4016 12.9916 26.2541 13.2344 26.1534C13.4772 26.0528 13.7375 26.001 14.0003 26.001C14.2632 26.001 14.5234 26.0528 14.7662 26.1534C15.009 26.2541 15.2296 26.4016 15.4153 26.5875L24.5853 35.4175C24.7711 35.6035 24.9916 35.751 25.2344 35.8517C25.4772 35.9523 25.7375 36.0041 26.0003 36.0041C26.2632 36.0041 26.5234 35.9523 26.7662 35.8517C27.009 35.751 27.2296 35.6035 27.4153 35.4175L50.5853 12.5875C50.7711 12.4016 50.9916 12.2541 51.2344 12.1534C51.4772 12.0528 51.7375 12.001 52.0003 12.001C52.2632 12.001 52.5234 12.0528 52.7662 12.1534C53.009 12.2541 53.2296 12.4016 53.4153 12.5875L59.4153 18.4875C59.7901 18.8626 60.0006 19.3711 60.0006 19.9013C60.0006 20.4315 59.7901 20.94 59.4153 21.3151Z" fill="url(#paint0_linear_1_7869)"/>
<path d="M60.8194 17.0601L54.8194 11.1701C54.0697 10.4235 53.0549 10.0044 51.9969 10.0044C50.9389 10.0044 49.9241 10.4235 49.1744 11.1701L25.9994 34.0001L25.9719 33.9726L16.8119 25.1551C16.0604 24.4113 15.0449 23.9953 13.9876 23.9981C12.9302 24.0009 11.917 24.4223 11.1694 25.1701L5.1694 31.1701C4.42058 31.92 4 32.9365 4 33.9963C4 35.0561 4.42058 36.0726 5.1694 36.8226L23.0744 54.8226C23.4458 55.1941 23.8868 55.4888 24.3722 55.6899C24.8576 55.891 25.3778 55.9944 25.9031 55.9944C26.4285 55.9944 26.9487 55.891 27.4341 55.6899C27.9195 55.4888 28.3605 55.1941 28.7319 54.8226L60.8319 22.7276C61.2041 22.3551 61.4991 21.9128 61.7 21.4261C61.9009 20.9394 62.0037 20.4178 62.0026 19.8912C62.0014 19.3646 61.8963 18.8435 61.6932 18.3577C61.4902 17.8718 61.1932 17.4309 60.8194 17.0601ZM25.9044 52.0001L7.9994 34.0001L13.9994 28.0001L14.0269 28.0276L23.1869 36.8451C23.9359 37.587 24.9476 38.0033 26.0019 38.0033C27.0562 38.0033 28.0679 37.587 28.8169 36.8451L52.0144 14.0001L57.9994 19.9001L25.9044 52.0001Z" fill="url(#paint1_linear_1_7869)"/>
<defs>
<linearGradient id="paint0_linear_1_7869" x1="33.0003" y1="12.001" x2="33.0003" y2="54.0016" gradientUnits="userSpaceOnUse">
<stop stop-color="#3DFFB9"/>
<stop offset="1" stop-color="#24996F"/>
</linearGradient>
<linearGradient id="paint1_linear_1_7869" x1="33.0013" y1="10.0044" x2="33.0013" y2="55.9944" gradientUnits="userSpaceOnUse">
<stop stop-color="#3DFFB9"/>
<stop offset="1" stop-color="#24996F"/>
</linearGradient>
</defs>
</svg>
