<svg width="40" height="40" viewBox="0 0 40 40" fill="none" xmlns="http://www.w3.org/2000/svg">
<path d="M29.7859 10.2141C28.8499 9.27823 27.581 8.75172 26.2574 8.74996C24.9338 8.74821 23.6635 9.27134 22.725 10.2047L20.9047 12.1125C20.6719 12.3301 20.3648 12.4506 20.0461 12.4493C19.7274 12.448 19.4213 12.325 19.1903 12.1056C18.9592 11.8861 18.8207 11.5867 18.8031 11.2685C18.7854 10.9503 18.89 10.6374 19.0953 10.3937L20.9266 8.47344C20.9329 8.46628 20.9397 8.4595 20.9469 8.45312C22.3573 7.06552 24.2588 6.29144 26.2373 6.2995C28.2159 6.30756 30.1111 7.0971 31.5101 8.49614C32.9092 9.89518 33.6987 11.7904 33.7067 13.7689C33.7148 15.7474 32.9407 17.649 31.5531 19.0594C31.5468 19.0665 31.54 19.0733 31.5328 19.0797L29.6125 20.9109C29.3688 21.1163 29.0559 21.2208 28.7378 21.2032C28.4196 21.1855 28.1201 21.047 27.9007 20.816C27.6812 20.585 27.5583 20.2788 27.557 19.9602C27.5557 19.6415 27.6762 19.3344 27.8938 19.1016L29.8016 17.2812C30.736 16.3417 31.2592 15.0696 31.2563 13.7444C31.2534 12.4193 30.7245 11.1495 29.7859 10.2141ZM19.0953 27.8875L17.275 29.7953C16.3328 30.7104 15.0684 31.2179 13.755 31.2083C12.4416 31.1987 11.1847 30.6727 10.256 29.744C9.32725 28.8153 8.80125 27.5584 8.79165 26.245C8.78205 24.9316 9.28963 23.6672 10.2047 22.725L12.1125 20.9047C12.3301 20.6719 12.4506 20.3648 12.4493 20.0461C12.448 19.7274 12.325 19.4213 12.1056 19.1903C11.8861 18.9592 11.5867 18.8207 11.2685 18.8031C10.9503 18.7854 10.6374 18.89 10.3937 19.0953L8.46719 20.9266C8.46003 20.9329 8.45325 20.9397 8.44688 20.9469C7.05927 22.3573 6.28519 24.2588 6.29325 26.2373C6.30131 28.2159 7.09085 30.1111 8.48989 31.5101C9.88893 32.9092 11.7841 33.6987 13.7626 33.7067C15.7412 33.7148 17.6427 32.9407 19.0531 31.5531C19.0603 31.5468 19.0671 31.54 19.0734 31.5328L20.9047 29.6125C21.0292 29.4961 21.1286 29.3556 21.1967 29.1994C21.2649 29.0432 21.3004 28.8747 21.3011 28.7043C21.3018 28.5339 21.2677 28.3652 21.2008 28.2085C21.1338 28.0517 21.0356 27.9104 20.912 27.793C20.7885 27.6756 20.6423 27.5848 20.4823 27.526C20.3224 27.4672 20.1521 27.4418 19.9819 27.4512C19.8118 27.4606 19.6454 27.5048 19.4929 27.5809C19.3404 27.657 19.2051 27.7634 19.0953 27.8938V27.8875ZM32.5 23.75H28.75C28.4185 23.75 28.1005 23.8817 27.8661 24.1161C27.6317 24.3505 27.5 24.6685 27.5 25C27.5 25.3315 27.6317 25.6495 27.8661 25.8839C28.1005 26.1183 28.4185 26.25 28.75 26.25H32.5C32.8315 26.25 33.1495 26.1183 33.3839 25.8839C33.6183 25.6495 33.75 25.3315 33.75 25C33.75 24.6685 33.6183 24.3505 33.3839 24.1161C33.1495 23.8817 32.8315 23.75 32.5 23.75ZM7.5 16.25H11.25C11.5815 16.25 11.8995 16.1183 12.1339 15.8839C12.3683 15.6495 12.5 15.3315 12.5 15C12.5 14.6685 12.3683 14.3505 12.1339 14.1161C11.8995 13.8817 11.5815 13.75 11.25 13.75H7.5C7.16848 13.75 6.85054 13.8817 6.61612 14.1161C6.3817 14.3505 6.25 14.6685 6.25 15C6.25 15.3315 6.3817 15.6495 6.61612 15.8839C6.85054 16.1183 7.16848 16.25 7.5 16.25ZM25 27.5C24.6685 27.5 24.3505 27.6317 24.1161 27.8661C23.8817 28.1005 23.75 28.4185 23.75 28.75V32.5C23.75 32.8315 23.8817 33.1495 24.1161 33.3839C24.3505 33.6183 24.6685 33.75 25 33.75C25.3315 33.75 25.6495 33.6183 25.8839 33.3839C26.1183 33.1495 26.25 32.8315 26.25 32.5V28.75C26.25 28.4185 26.1183 28.1005 25.8839 27.8661C25.6495 27.6317 25.3315 27.5 25 27.5ZM15 12.5C15.3315 12.5 15.6495 12.3683 15.8839 12.1339C16.1183 11.8995 16.25 11.5815 16.25 11.25V7.5C16.25 7.16848 16.1183 6.85054 15.8839 6.61612C15.6495 6.3817 15.3315 6.25 15 6.25C14.6685 6.25 14.3505 6.3817 14.1161 6.61612C13.8817 6.85054 13.75 7.16848 13.75 7.5V11.25C13.75 11.5815 13.8817 11.8995 14.1161 12.1339C14.3505 12.3683 14.6685 12.5 15 12.5Z" fill="#003E43"/>
</svg>
