<svg width="143" height="143" viewBox="0 0 143 143" fill="none" xmlns="http://www.w3.org/2000/svg">
<mask id="path-1-inside-1_1_8112" fill="white">
<path d="M143 71.5C143 88.0419 137.264 104.072 126.77 116.859C116.276 129.646 101.673 138.399 85.449 141.626C69.2249 144.853 52.3838 142.355 37.7951 134.557C23.2065 126.76 11.7729 114.145 5.44262 98.8619C-0.887698 83.5791 -1.7231 66.5743 3.07876 50.7447C7.88062 34.915 18.0226 21.2401 31.7767 12.0499C45.5308 2.85974 62.046 -1.2771 78.5082 0.344291C94.9705 1.96568 110.361 9.24497 122.058 20.9419L111.947 31.0535C102.589 21.696 90.2764 15.8725 77.1066 14.5754C63.9368 13.2783 50.7246 16.5878 39.7214 23.9399C28.7181 31.2921 20.6045 42.232 16.763 54.8957C12.9215 67.5594 13.5898 81.1633 18.6541 93.3895C23.7183 105.616 32.8652 115.708 44.5361 121.946C56.207 128.184 69.6799 130.183 82.6592 127.601C95.6384 125.019 107.321 118.017 115.716 107.787C124.111 97.5576 128.7 84.7335 128.7 71.5H143Z"/>
</mask>
<path d="M143 71.5C143 88.0419 137.264 104.072 126.77 116.859C116.276 129.646 101.673 138.399 85.449 141.626C69.2249 144.853 52.3838 142.355 37.7951 134.557C23.2065 126.76 11.7729 114.145 5.44262 98.8619C-0.887698 83.5791 -1.7231 66.5743 3.07876 50.7447C7.88062 34.915 18.0226 21.2401 31.7767 12.0499C45.5308 2.85974 62.046 -1.2771 78.5082 0.344291C94.9705 1.96568 110.361 9.24497 122.058 20.9419L111.947 31.0535C102.589 21.696 90.2764 15.8725 77.1066 14.5754C63.9368 13.2783 50.7246 16.5878 39.7214 23.9399C28.7181 31.2921 20.6045 42.232 16.763 54.8957C12.9215 67.5594 13.5898 81.1633 18.6541 93.3895C23.7183 105.616 32.8652 115.708 44.5361 121.946C56.207 128.184 69.6799 130.183 82.6592 127.601C95.6384 125.019 107.321 118.017 115.716 107.787C124.111 97.5576 128.7 84.7335 128.7 71.5H143Z" stroke="#28FFB2" stroke-width="32" mask="url(#path-1-inside-1_1_8112)"/>
</svg>
